<?xml version="1.0" encoding="iso-8859-1"?>
<!-- Generator: Adobe Illustrator 13.0.0, SVG Export Plug-In . SVG Version: 6.00 Build 14948)  -->
<!DOCTYPE svg PUBLIC "-//W3C//DTD SVG 1.1//EN" "http://www.w3.org/Graphics/SVG/1.1/DTD/svg11.dtd">
<svg version="1.1" xmlns="http://www.w3.org/2000/svg" xmlns:xlink="http://www.w3.org/1999/xlink" x="0px" y="0px"
	 width="35.029px" height="33.044px" viewBox="-0.059 -0.5 35.029 33.044"
	 style="enable-background:new -0.059 -0.5 35.029 33.044;" xml:space="preserve">
<g id="add_x5F_fournissuer" style="display:none;">
	<path style="display:inline;" d="M28.42,11.938v4.612H3.578v-4.612L1.583,16.55v5.325v0.188v3.875c0,1.104,0.877,2,1.96,2h25.332
		c1.08,0,1.541-1.021,1.541-2.125V16.55L28.42,11.938z M19.237,20.88h-6.475v-1.884h6.475V20.88z"/>
	<polygon style="display:inline;" points="16,15.438 22.875,8.563 17.719,8.563 17.719,1.688 14.281,1.688 14.281,8.563 
		9.125,8.563 	"/>
	<polygon style="display:inline;" points="9.375,11.938 3.578,11.938 3.578,14.438 12.125,14.438 	"/>
	<polygon style="display:inline;" points="22.641,11.938 28.438,11.938 28.438,14.438 19.891,14.438 	"/>
</g>
<g id="add_x5F_doc" style="display:none;">
	<g style="display:inline;">
		<line style="fill:none;stroke:#449FDB;" x1="16" y1="16" x2="16" y2="16"/>
	</g>
	<path style="display:inline;" d="M30.94,20.867l-5.094-3.427h-3.141l5.439,4.173h-5.672c-0.162,0-0.309,0.083-0.384,0.213
		l-1.306,3.576H11.21l-1.307-3.576c-0.072-0.13-0.221-0.213-0.385-0.213H3.85l5.442-4.173H6.149l-5.093,3.427
		c-0.758,0.453-1.211,1.498-1.008,2.318l0.898,4.918C1.149,28.926,2.053,29.6,2.949,29.6h26.1c0.899,0,1.8-0.674,2.003-1.496
		l0.898-4.918c0.206-0.822-0.248-1.866-1.006-2.318H30.94z M24.319,10.592h-5.282V2.4h-6.08v8.192h-5.28l8.32,7.808L24.319,10.592z"
		/>
</g>
<g id="doc_x5F_nonlus_1_" style="display:none;">
	<rect x="5.599" y="12.473" style="display:inline;" width="20.803" height="2.156"/>
	<rect x="6.795" y="8.332" style="display:inline;" width="18.409" height="2.157"/>
	<path style="display:inline;" d="M28.42,11.938v4.612H3.578v-4.612L1.583,16.55v5.325v0.188v3.875c0,1.104,0.877,2,1.96,2h25.332
		c1.08,0,1.541-1.021,1.541-2.125V16.55L28.42,11.938z M19.237,20.88h-6.475v-1.884h6.475V20.88z"/>
</g>
<g id="dossier_-_copie" style="display:none;">
	<path style="display:inline;" d="M0.094,9.041h31.813l-1.988,19.883H2.082L0.094,9.041z M28.924,5.064l0.994,1.988H2.082
		L4.07,3.076h10.937L16,5.064H28.924z"/>
</g>
<g id="dossier_x5F_open" style="display:none;">
	<g style="display:inline;">
		<line style="fill:none;stroke:#449FDB;" x1="16" y1="16" x2="16" y2="16"/>
	</g>
	<path style="display:inline;" d="M26,29l6-16H6L0,29H26z M4,11L0,29V3h9l4,4h13v4H4z"/>
</g>
<g id="connexion" style="display:none;">
	<g style="display:inline;">
		<g>
			<path d="M28.031,16.906c0,6.633-5.396,12.031-12.031,12.031c-6.634,0-12.031-5.398-12.031-12.031
				c0-3.847,1.815-7.278,4.633-9.482c0,0,0.92-0.718,1.888,0.349c0.707,0.779,0.156,1.66-0.24,2.023
				c-1.864,1.708-3.108,4.388-3.107,7.109c0,4.885,3.974,8.857,8.858,8.857s8.858-3.973,8.858-8.857"/>
		</g>
		<path d="M24.858,16.906c0.001-2.721-1.244-5.401-3.107-7.109c-0.396-0.363-0.947-1.245-0.24-2.023
			c0.968-1.067,1.888-0.349,1.888-0.349c2.819,2.204,4.633,5.635,4.633,9.482"/>
	</g>
	<path style="display:inline;" d="M17.594,13.938c0,0.881-0.713,1.594-1.594,1.594l0,0c-0.88,0-1.594-0.713-1.594-1.594v-8.75
		c0-0.88,0.713-1.594,1.594-1.594l0,0c0.881,0,1.594,0.713,1.594,1.594V13.938z"/>
</g>
<g id="coffre" style="display:none;">
	<g style="display:inline;">
		<circle cx="11.614" cy="17.234" r="1.638"/>
		<path d="M26.269,6.697H5.606c-1.801,0-3.262,1.46-3.262,3.262v14.683c0,1.802,1.461,3.261,3.262,3.261h20.663
			c1.802,0,3.263-1.459,3.263-3.261V9.959C29.531,8.157,28.07,6.697,26.269,6.697z M18.034,18.505L18.034,18.505l-1.846,0.307
			c-0.075,0.226-0.165,0.444-0.271,0.653l1.087,1.522l-1.703,1.703l-1.526-1.088c-0.208,0.104-0.425,0.194-0.649,0.268l-0.308,1.85
			h-2.41L10.1,21.871c-0.224-0.074-0.441-0.164-0.649-0.268l-1.526,1.088l-1.704-1.704l1.087-1.522
			c-0.106-0.209-0.197-0.428-0.271-0.653l-1.846-0.307v-2.411l1.841-0.307c0.075-0.226,0.166-0.446,0.272-0.657l-1.084-1.518
			l1.705-1.704l1.515,1.083c0.212-0.108,0.433-0.199,0.66-0.275l0.307-1.835h2.41l0.307,1.835c0.229,0.076,0.45,0.167,0.661,0.275
			l1.515-1.083l1.704,1.704l-1.084,1.518c0.106,0.211,0.197,0.431,0.272,0.657l1.841,0.307V18.505z M26.313,22.344
			c0,0.776-0.63,1.406-1.406,1.406S23.5,23.12,23.5,22.344v-9.938c0-0.777,0.63-1.406,1.406-1.406s1.406,0.629,1.406,1.406V22.344z"
			/>
	</g>
	<path style="display:inline;" d="M10.875,28.25c0,1.328-1.077,2.406-2.406,2.406s-2.406-1.078-2.406-2.406"/>
	<path style="display:inline;" d="M26.375,28.25c0,1.328-1.077,2.406-2.406,2.406s-2.406-1.078-2.406-2.406"/>
</g>
<g id="home" style="display:none;">
	<g style="display:inline;">
		<line style="fill:none;stroke:#449FDB;stroke-width:0.4208;" x1="17.063" y1="2.427" x2="17.063" y2="2.427"/>
	</g>
	<g style="display:inline;">
		<line style="fill:none;stroke:#449FDB;" x1="0" y1="2.4" x2="0" y2="2.4"/>
	</g>
	<g style="display:inline;">
		<line style="fill:#FFFFFF;" x1="5.635" y1="10.908" x2="5.635" y2="10.908"/>
	</g>
	<g style="display:inline;">
		<line style="fill:none;stroke:#449FDB;stroke-width:0.9474;" x1="15.168" y1="16.71" x2="15.168" y2="16.71"/>
	</g>
	<path style="display:inline;" d="M24.982,13.542c0,0.523-0.424,0.947-0.947,0.947h-3.05c-0.523,0-0.947-0.424-0.947-0.947V5.934
		c0-0.523,0.424-0.947,0.947-0.947h3.05c0.523,0,0.947,0.424,0.947,0.947V13.542z"/>
	<line style="display:inline;" x1="15.997" y1="3.92" x2="15.997" y2="3.92"/>
	<path style="display:inline;" d="M31.229,17.895L16.86,4.649c-0.915-0.843-1.692,0.036-1.692,0.036l-14.33,13.21
		c-1.479,1.363,0,2.132,0,2.132h0.71h3.079v3.02v5.507c0,0.523,0.424,0.947,0.947,0.947h7.579c0.523,0,0.948-0.424,0.948-0.947
		v-4.737h3.79v4.737c0,0.523,0.424,0.947,0.947,0.947h7.579c0.523,0,0.947-0.424,0.947-0.947v-4.737v-0.77v-3.02h0.074h3.079h0.71
		C31.229,20.026,32.708,19.258,31.229,17.895z"/>
</g>
<g id="trash" style="display:none;">
	<g style="display:inline;">
	</g>
	<path style="display:inline;" d="M25.5,10h-19c-1.1,0-1.918,0.896-1.818,1.992l1.637,18.016C6.419,31.104,7.4,32,8.5,32h15
		c1.1,0,2.081-0.896,2.182-1.992l1.637-18.016C27.419,10.896,26.6,10,25.5,10z"/>
	<path style="display:inline;" d="M25,3.75h-2.942c0,0-0.058-3.75-3.683-3.75h-4.644c-3.625,0-3.683,3.75-3.683,3.75H9.94H7
		c-1.657,0-3,1.343-3,3v1h24v-1C28,5.093,26.657,3.75,25,3.75z M11.661,3.75c0,0,0.042-2.71,2.662-2.71h3.357
		c2.619,0,2.66,2.71,2.66,2.71H11.661z"/>
</g>
<g id="Mes_x5F_partage" style="display:none;">
	<g style="display:inline;">
		<line style="fill:none;stroke:#449FDB;stroke-width:0.931;" x1="0.75" y1="1.105" x2="0.75" y2="1.105"/>
	</g>
	<g style="display:inline;">
		<path d="M25.885,21.586c-1.311,0-2.5,0.545-3.345,1.418l-12.539-6.266c0.039-0.239,0.059-0.487,0.059-0.737
			s-0.02-0.497-0.059-0.735l12.539-6.27c0.845,0.875,2.034,1.42,3.345,1.42c2.571,0,4.656-2.083,4.656-4.655
			c0-2.569-2.085-4.654-4.656-4.654c-2.569,0-4.652,2.085-4.652,4.654c0,0.251,0.018,0.497,0.056,0.737L8.75,12.768
			c-0.846-0.876-2.033-1.421-3.347-1.421c-2.571,0-4.654,2.085-4.654,4.655c0,2.571,2.083,4.653,4.654,4.653
			c1.314,0,2.5-0.545,3.347-1.42l12.538,6.27c-0.038,0.24-0.056,0.484-0.056,0.734c0,2.572,2.083,4.656,4.652,4.656
			c2.571,0,4.656-2.084,4.656-4.656C30.541,23.67,28.456,21.586,25.885,21.586z M25.834,3.333c1.335,0,2.416,1.082,2.416,2.417
			c0,1.335-1.081,2.417-2.416,2.417s-2.417-1.082-2.417-2.417C23.417,4.416,24.499,3.333,25.834,3.333z"/>
	</g>
</g>
<g id="add_x5F_dossier" style="display:none;">
	<g style="display:inline;">
		<polygon points="28.924,5.064 16,5.064 15.007,3.076 4.07,3.076 2.082,7.053 29.918,7.053 		"/>
		<polygon points="23.5,14.21 21.945,14.21 21.945,17.224 18.884,17.224 18.884,18.751 21.945,18.751 21.945,21.763 23.5,21.763 
			23.5,18.751 26.563,18.751 26.563,17.224 23.5,17.224 		"/>
		<path d="M0.094,9.041l1.988,19.883h27.836l1.988-19.883H0.094z M22.725,24.271c-3.529,0-6.387-2.813-6.387-6.283
			c0-3.469,2.857-6.282,6.387-6.282c3.527,0,6.387,2.811,6.387,6.282C29.111,21.454,26.252,24.271,22.725,24.271z"/>
	</g>
</g>
<g id="favoris" style="display:none;">
	<g style="display:inline;">
		<line style="fill:none;stroke:#449FDB;" x1="16" y1="16" x2="16" y2="16"/>
	</g>
	<path style="display:inline;" d="M32,12.408l-11.057-1.607L16,0.783l-4.944,10.018L0,12.408l8,7.798L6.111,31.217L16,26.018
		l9.889,5.199L24,20.206L32,12.408z"/>
</g>
<g id="Calque_29" style="display:none;">
	<g style="display:inline;">
		<line style="fill:none;stroke:#449FDB;" x1="16" y1="16" x2="16" y2="16"/>
	</g>
	<path style="display:inline;" d="M32,12.408l-11.057-1.607L16,0.783l-4.943,10.018L0,12.408l8,7.798L6.111,31.217L16,26.018
		l9.889,5.199L24,20.206L32,12.408z M16,23.547l-6.982,3.671l1.334-7.776l-5.65-5.506l7.808-1.134l3.492-7.075l3.492,7.075
		l7.807,1.134l-5.649,5.506l1.334,7.776L16,23.547L16,23.547z"/>
</g>
<g id="fournisseurs" style="display:none;">
	<g style="display:inline;">
		<line style="fill:none;stroke:#449FDB;" x1="16" y1="16" x2="16" y2="16"/>
	</g>
	<path style="display:inline;" d="M27.146,8c0-1.6-1.592-1.6-1.592-1.6H6.441c0,0-1.592,0-1.592,1.6v1.6h22.297V8z M22.368,3.2
		H9.627c0,0-1.592,0-1.592,1.6h15.925C23.961,3.2,22.367,3.2,22.368,3.2L22.368,3.2z M30.331,9.6
		c-0.942-0.947-0.942-0.947-0.942-0.947V11.2H2.607V8.653c0,0,0,0-0.942,0.947c-0.942,0.947-1.618,1.202-1.237,3.203
		c0.376,1.991,2.205,12.92,2.475,14.397c0.299,1.622,1.947,1.6,1.947,1.6h22.298c0,0,1.647,0.022,1.947-1.6
		c0.271-1.478,2.098-12.406,2.477-14.397C31.951,10.802,31.275,10.548,30.331,9.6L30.331,9.6z M22.368,18.24c0,0,0,1.6-1.595,1.6
		h-9.552c-1.593,0-1.593-1.6-1.593-1.6v-3.2h2.229v2.56h8.277v-2.56h2.234L22.368,18.24L22.368,18.24z"/>
</g>
<g id="add_x5F_fournisseurs" style="display:none;">
	<g style="display:inline;">
		<line style="fill:none;stroke:#449FDB;" x1="16" y1="16" x2="16" y2="16"/>
	</g>
	<path style="display:inline;" d="M30.011,13.801c-0.942-0.947-0.942-0.947-0.942-0.947V17.4H2.287v-4.547c0,0,0,0-0.942,0.947
		c-0.942,0.946-1.618,1.201-1.237,3.202c0.376,1.991,2.205,9.92,2.475,11.397C2.882,30.022,4.53,30,4.53,30h22.298
		c0,0,1.647,0.022,1.947-1.6c0.271-1.478,2.098-9.406,2.477-11.397C31.631,15.002,30.955,14.748,30.011,13.801L30.011,13.801z
		 M22.048,22.44c0,0,0,1.6-1.595,1.6h-9.552c-1.593,0-1.593-1.6-1.593-1.6v-3.2h2.229v2.56h8.277v-2.56h2.234L22.048,22.44
		L22.048,22.44z"/>
	<polygon style="display:inline;" points="24.32,8.192 19.038,8.192 19.038,0 12.958,0 12.958,8.192 7.679,8.192 15.999,16 	"/>
</g>
<g id="tcheck_x5F_box" style="display:none;">
	<path style="display:inline;" d="M0,0v32h32V0H0z M30,30H2V2h28V30z M24,7L14,17l-6-6l-4,4l10,10l14-14L24,7z"/>
</g>
<g id="save" style="display:none;">
	<g id="icomoon-ignore" style="display:inline;">
		<line style="fill:none;stroke:#449FDB;" x1="16" y1="0" x2="16" y2="0"/>
	</g>
	<path style="display:inline;" d="M28,18h-5l-7,7l-7-7H4l-4,8v2h32v-2L28,18z M18,12V4h-4v8H7l9,9l9-9H18z"/>
	<path style="display:inline;" d="M32,31.569c0,0.276-0.224,0.5-0.5,0.5h-31c-0.276,0-0.5-0.224-0.5-0.5v-1.143
		c0-0.276,0.224-0.5,0.5-0.5h31c0.276,0,0.5,0.224,0.5,0.5V31.569z"/>
</g>
<g id="impression" style="display:none;">
	<g style="display:inline;">
		<circle style="fill:none;" cx="29" cy="13" r="1.45"/>
		<path d="M30,10H2c-1.1,0-2,0.9-2,2v10c0,1.1,0.9,2,2,2h6h0.066v7c0,0.553,0.447,1,1,1h13.867c0.553,0,1-0.447,1-1v-7H24h6
			c1.1,0,2-0.9,2-2V12C32,10.9,31.1,10,30,10z M22,29c0,0.553-0.447,1-1,1H11c-0.552,0-1-0.447-1-1v-8c0-0.553,0.448-1,1-1h10
			c0.553,0,1,0.447,1,1V29z M29,14.45c-0.801,0-1.45-0.649-1.45-1.45s0.649-1.45,1.45-1.45s1.45,0.649,1.45,1.45
			S29.801,14.45,29,14.45z"/>
	</g>
	<path style="display:inline;" d="M24,7c0,0.552-0.447,1-1,1H9C8.448,8,8,7.552,8,7V5c0-0.552,0.448-1,1-1h14c0.553,0,1,0.448,1,1V7
		z"/>
</g>
<g id="supprimer" style="display:none;">
	<path style="display:inline;" d="M28.646,6.231l-4.465-4.464C23.209,0.795,21.288,0,19.913,0h-15c-1.375,0-2.5,1.125-2.5,2.5v27
		c0,1.375,1.125,2.5,2.5,2.5h23c1.375,0,2.5-1.125,2.5-2.5v-19c0-1.375-0.796-3.296-1.769-4.268H28.646z M27.232,7.646
		C27.33,7.744,27.428,7.863,27.521,8h-5.107V2.892c0.137,0.095,0.256,0.192,0.354,0.29L27.232,7.646L27.232,7.646z M28.414,29.5
		c0,0.271-0.229,0.5-0.5,0.5h-23c-0.271,0-0.5-0.229-0.5-0.5v-27c0-0.271,0.229-0.5,0.5-0.5h15c0.15,0,0.32,0.019,0.5,0.053V10
		h7.947c0.033,0.18,0.053,0.349,0.053,0.5V29.5z"/>
	<polygon style="display:inline;" points="22.414,2.455 22.414,8 27.959,8 	"/>
	<g style="display:inline;">
		<path d="M22.546,12.783c-3.678,0-6.659,2.98-6.659,6.66c0,3.675,2.981,6.657,6.659,6.657c3.676,0,6.657-2.982,6.657-6.657
			C29.203,15.763,26.222,12.783,22.546,12.783z M25.537,21.117c0.424,0.426,0.474,1.064,0.11,1.428
			c-0.364,0.363-1.003,0.314-1.429-0.111l-1.674-1.676l-1.678,1.675c-0.426,0.425-1.064,0.474-1.428,0.109
			c-0.363-0.363-0.314-1.002,0.111-1.427l1.678-1.676l-1.675-1.676c-0.425-0.426-0.474-1.064-0.109-1.428
			c0.363-0.363,1.002-0.314,1.427,0.111l1.675,1.676l1.676-1.674c0.426-0.424,1.064-0.474,1.428-0.11
			c0.363,0.364,0.314,1.003-0.111,1.429l-1.676,1.674L25.537,21.117z"/>
	</g>
</g>
<g id="deplacer_1_" style="display:none;">
	<g style="display:inline;">
		<polygon points="28.924,5.064 16,5.064 15.007,3.076 4.07,3.076 2.082,7.053 29.918,7.053 		"/>
		<path d="M0.094,9.041l1.988,19.883h27.836l1.988-19.883H0.094z M22.546,25.787c-3.678,0-6.659-2.982-6.659-6.657
			c0-3.679,2.981-6.66,6.659-6.66c3.676,0,6.657,2.98,6.657,6.66C29.203,22.805,26.222,25.787,22.546,25.787z"/>
	</g>
</g>
<g id="deplacer" style="display:none;">
	<polygon style="display:inline;" points="26.641,19.129 22.793,15.357 22.793,17.679 14.09,17.679 14.09,20.579 22.793,20.579 
		22.793,22.9 	"/>
</g>
<g id="demache" style="display:none;">
	<g id="icomoon-ignore_2_" style="display:inline;">
		<line style="fill:none;stroke:#449FDB;stroke-width:0.8248;" x1="0" y1="5.241" x2="0" y2="5.241"/>
	</g>
	<path style="display:inline;" d="M26.98,27.13c1.361,0,2.475-1.113,2.475-2.475V3.211c0-1.361-1.113-2.474-2.475-2.474H7.187
		c-1.361,0-2.474,1.113-2.474,2.474v0.825h3.3h18.144V23.83v3.3H26.98z"/>
	<path style="display:inline;" d="M22.269,5.241H2.474C1.113,5.241,0,6.354,0,7.715v21.443c0,1.361,1.113,2.475,2.474,2.475h19.794
		c1.361,0,2.474-1.113,2.474-2.475V7.715C24.742,6.354,23.63,5.241,22.269,5.241z M21.444,28.334H3.299V8.54h18.145V28.334z
		 M6.598,20.086h11.547v1.649H6.598V20.086z M6.598,23.386h11.547v1.648H6.598V23.386z M8.248,12.664
		c0-1.367,1.107-2.474,2.475-2.474c1.366,0,2.474,1.107,2.474,2.474c0,1.367-1.108,2.474-2.474,2.474
		C9.355,15.138,8.248,14.03,8.248,12.664z M12.371,15.138H9.072c-1.361,0-2.475,0.742-2.475,1.649v1.65h8.248v-1.65
		C14.846,15.88,13.733,15.138,12.371,15.138z"/>
	<g id="icomoon-ignore_3_" style="display:inline;">
		<line style="fill:none;stroke:#449FDB;stroke-width:0.8248;" x1="11.564" y1="3.138" x2="11.564" y2="3.138"/>
	</g>
</g>
<g id="img" style="display:none;">
	<circle style="display:inline;" cx="25" cy="11" r="3"/>
	<polygon style="display:inline;" points="28,26 4,26 10,10 18,20 22,17 	"/>
	<path style="display:inline;fill:none;stroke:#000000;stroke-width:2;stroke-miterlimit:10;" d="M30.578,28.067
		c0,0.516-0.416,0.933-0.932,0.933H2.354c-0.515,0-0.933-0.417-0.933-0.933V7.19c0-0.515,0.418-0.933,0.933-0.933h27.292
		c0.516,0,0.932,0.418,0.932,0.933V28.067z"/>
</g>
<g id="img_x5F_plein" style="display:none;">
	<g style="display:inline;">
		<polygon style="fill:none;" points="18,20 10,10 4,26 28,26 22,17 		"/>
		<path d="M29.646,6.257H2.354c-0.515,0-0.933,0.418-0.933,0.933v20.877C1.421,28.583,1.839,29,2.354,29h27.292
			c0.516,0,0.932-0.417,0.932-0.933V7.19C30.578,6.675,30.162,6.257,29.646,6.257z M4,26l6-16l8,10l4-3l6,9H4z M25.313,14.313
			c-1.657,0-3-1.344-3-3c0-1.657,1.343-3,3-3s3,1.343,3,3C28.313,12.969,26.97,14.313,25.313,14.313z"/>
	</g>
</g>
<g id="premium" style="display:none;">
	<g style="display:inline;">
		<path style="fill:none;" d="M15.95,7.692c-4.843-0.036-8.798,3.86-8.834,8.703c-0.036,4.842,3.86,8.798,8.703,8.833
			c4.842,0.037,8.799-3.86,8.834-8.701C24.688,11.685,20.793,7.729,15.95,7.692z M15.828,23.902c-4.11-0.03-7.417-3.388-7.386-7.497
			s3.386-7.417,7.497-7.386c4.107,0.032,7.416,3.387,7.387,7.496C23.293,20.627,19.938,23.934,15.828,23.902z"/>
		<path d="M15.939,9.02c-4.111-0.031-7.466,3.276-7.497,7.386s3.275,7.467,7.386,7.497c4.109,0.031,7.465-3.275,7.498-7.387
			C23.355,12.407,20.047,9.051,15.939,9.02z M17.002,21h-1.939v-6.348l-1.796,1.561v-2.069l1.796-1.561h1.939V21z"/>
		<path d="M29.199,18.172l-2.096-1.195c-0.598-0.305-0.596-0.802,0.002-1.104l2.102-1.187c0.584-0.294,0.533-0.618-0.113-0.721
			l-2.363-0.488c-0.662-0.106-0.814-0.577-0.34-1.05l1.633-1.777c0.465-0.462,0.314-0.754-0.33-0.653l-2.398,0.266
			c-0.662,0.106-0.953-0.296-0.645-0.893l1-2.195c0.299-0.581,0.066-0.813-0.516-0.517l-2.197,0.993c-0.6,0.306-1,0.012-0.893-0.649
			l0.275-2.397c0.105-0.646-0.188-0.795-0.65-0.333l-1.783,1.624c-0.475,0.475-0.945,0.32-1.049-0.343L18.359,3.19
			c-0.1-0.646-0.426-0.698-0.723-0.116l-1.193,2.094c-0.306,0.598-0.802,0.598-1.104-0.001l-1.185-2.099
			c-0.295-0.585-0.621-0.535-0.723,0.112l-0.487,2.362c-0.106,0.662-0.577,0.815-1.05,0.339L10.12,4.25
			C9.658,3.787,9.365,3.935,9.466,4.581l0.266,2.396c0.104,0.664-0.297,0.955-0.894,0.647l-2.194-1
			c-0.581-0.3-0.814-0.068-0.517,0.516L7.12,9.336c0.305,0.598,0.012,0.998-0.649,0.891L4.073,9.953
			c-0.646-0.105-0.794,0.188-0.332,0.65l1.624,1.784c0.475,0.474,0.32,0.946-0.343,1.048l-2.364,0.479
			c-0.646,0.1-0.699,0.424-0.115,0.721l2.093,1.194c0.599,0.306,0.597,0.802-0.002,1.104l-2.1,1.188
			c-0.584,0.294-0.533,0.619,0.113,0.721L5.01,19.33c0.662,0.104,0.816,0.576,0.339,1.048l-1.631,1.778
			c-0.465,0.461-0.317,0.754,0.33,0.651l2.397-0.266c0.662-0.104,0.953,0.298,0.647,0.895L6.09,25.63
			c-0.299,0.583-0.067,0.815,0.516,0.519l2.199-0.994c0.597-0.304,0.998-0.011,0.89,0.651l-0.272,2.396
			c-0.106,0.646,0.188,0.796,0.65,0.332l1.781-1.623c0.475-0.474,0.947-0.32,1.048,0.343l0.48,2.363
			c0.1,0.646,0.424,0.697,0.721,0.114l1.194-2.094c0.306-0.598,0.802-0.597,1.104,0.002l1.185,2.1
			c0.295,0.584,0.619,0.534,0.723-0.113l0.486-2.36c0.105-0.663,0.578-0.815,1.051-0.338l1.775,1.629
			c0.461,0.465,0.754,0.315,0.652-0.33l-0.264-2.396c-0.105-0.664,0.297-0.955,0.893-0.646l2.193,1.001
			c0.584,0.299,0.814,0.067,0.518-0.516l-0.992-2.197c-0.305-0.598-0.014-0.999,0.65-0.892l2.398,0.274
			c0.645,0.104,0.795-0.187,0.332-0.649l-1.625-1.785c-0.475-0.475-0.32-0.946,0.342-1.048l2.365-0.479
			C29.729,18.792,29.781,18.47,29.199,18.172z M15.818,25.229c-4.842-0.035-8.739-3.991-8.703-8.833
			c0.036-4.843,3.991-8.739,8.834-8.703c4.843,0.036,8.738,3.992,8.703,8.835C24.617,21.368,20.66,25.266,15.818,25.229z"/>
	</g>
</g>
<g id="fournisseurs_1_" style="display:none;">
	<g style="display:inline;">
		<line style="fill:none;stroke:#449FDB;" x1="16" y1="16" x2="16" y2="16"/>
	</g>
	<path style="display:inline;" d="M27.146,8c0-1.6-1.592-1.6-1.592-1.6H6.442c0,0-1.592,0-1.592,1.6v1.6h22.296V8z M22.368,3.2
		H9.627c0,0-1.592,0-1.592,1.6h15.925C23.961,3.2,22.367,3.2,22.368,3.2L22.368,3.2z M30.331,9.6
		c-0.942-0.947-0.942-0.947-0.942-0.947V11.2H2.607V8.653c0,0,0,0-0.942,0.947c-0.942,0.947-1.618,1.202-1.237,3.202
		C0.805,14.794,2.633,25.723,2.903,27.2c0.299,1.622,1.947,1.6,1.947,1.6h22.298c0,0,1.647,0.022,1.947-1.6
		c0.271-1.478,2.098-12.406,2.477-14.398C31.951,10.802,31.275,10.548,30.331,9.6L30.331,9.6z M22.368,18.24c0,0,0,1.6-1.595,1.6
		h-9.552c-1.593,0-1.593-1.6-1.593-1.6v-3.2h2.229v2.56h8.277v-2.56h2.234L22.368,18.24L22.368,18.24z"/>
</g>
<g id="enregistrer" style="display:none;">
	<g id="icomoon-ignore_1_" style="display:inline;">
		<line style="fill:none;stroke:#449FDB;" x1="0" y1="0" x2="0" y2="0"/>
	</g>
	<path style="display:inline;" d="M28,16h-5l-7,7l-7-7H4l-4,8v2h32v-2L28,16z M0,28h32v2H0V28z M18,10V2h-4v8H7l9,9l9-9H18z"/>
</g>
<g id="visualiser" style="display:none;">
	<g id="icomoon-ignore_4_" style="display:inline;">
		<line style="fill:none;stroke:#449FDB;" x1="16" y1="16" x2="16" y2="16"/>
	</g>
	<path style="display:inline;" d="M16,6C9.021,6,2.972,10.064,0,16c2.972,5.936,9.021,10,16,10s13.027-4.064,16-10
		C29.027,10.064,22.979,6,16,6z M23.889,11.303c1.881,1.199,3.473,2.805,4.67,4.697c-1.197,1.891-2.789,3.498-4.67,4.697
		C21.527,22.204,18.799,23,16,23s-5.527-0.796-7.889-2.303C6.23,19.498,4.639,17.893,3.441,16c1.198-1.891,2.79-3.498,4.67-4.697
		c0.121-0.078,0.246-0.154,0.371-0.228C8.171,11.929,8,12.851,8,13.812c0,4.418,3.582,8,8,8s8-3.582,8-8
		c0-0.962-0.17-1.883-0.482-2.737C23.643,11.149,23.766,11.225,23.889,11.303z M16,12.813c0,1.657-1.343,3-3,3s-3-1.343-3-3
		s1.343-3,3-3S16,11.156,16,12.813z"/>
</g>
<g id="renommer" style="display:none;">
	<g id="icomoon-ignore_5_" style="display:inline;">
		<line style="fill:none;stroke:#449FDB;" x1="16" y1="16" x2="16" y2="16"/>
	</g>
	<path style="display:inline;" d="M27,0c2.762,0,5,2.239,5,5c0,1.126-0.372,2.164-1,3l-2,2l-7-7l2-2C24.836,0.372,25.874,0,27,0z
		 M2,23l-2,9l9-2l18.5-18.5l-7-7L2,23z M21.361,10.362l-14,14l-1.723-1.723l14-14L21.361,10.362z"/>
</g>
<g id="partager" style="display:none;">
	<path style="display:inline;fill:#000100;" d="M4.814,24.421h1.156v8.123H20.12v-8.122h1.127v8.122h4.844v-9.506
		c0-3.767-2.88-7.448-7.223-7.448L7.074,15.583c-3.956,0-7.133,3.27-7.133,7.349v9.611h4.873V24.421z"/>
	<path style="display:inline;fill:#000100;" d="M13,14c3.104,0,5.618-2.517,5.618-5.622c0-3.103-2.514-5.617-5.618-5.617
		c-3.105,0-5.621,2.515-5.621,5.617C7.379,11.482,9.895,14,13,14z"/>
	<path style="display:inline;" d="M28.584,4.167c-3.529,0-6.387,2.813-6.387,6.282c0,3.471,2.857,6.283,6.387,6.283
		c3.527,0,6.387-2.816,6.387-6.283C34.971,6.978,32.111,4.167,28.584,4.167z M29.359,11.213v3.012h-1.555v-3.012h-3.062V9.686h3.062
		V6.672h1.555v3.013h3.063v1.527H29.359z"/>
</g>
<g id="pdf" style="display:none;">
	<g id="Calque_1_2_" style="display:inline;">
		<path style="display:none;" d="M28.233,6.232l-4.465-4.464C22.796,0.796,20.875,0,19.5,0h-15C3.125,0,2,1.125,2,2.5v27
			C2,30.875,3.125,32,4.5,32h23c1.375,0,2.5-1.125,2.5-2.5v-19c0-1.375-0.796-3.296-1.769-4.268H28.233z M26.819,7.646
			C26.917,7.744,27.015,7.864,27.108,8h-5.107V2.892c0.137,0.095,0.256,0.192,0.354,0.29L26.819,7.646L26.819,7.646z M28.001,29.5
			c0,0.271-0.229,0.5-0.5,0.5h-23c-0.271,0-0.5-0.229-0.5-0.5v-27c0-0.271,0.229-0.5,0.5-0.5h15c0.15,0,0.32,0.019,0.5,0.053V10
			h7.947c0.033,0.18,0.053,0.349,0.053,0.5V29.5z"/>
		<path style="display:none;" d="M28.233,6.232l-4.465-4.464C22.796,0.796,20.875,0,19.5,0h-15C3.125,0,2,1.125,2,2.5v27
			C2,30.875,3.125,32,4.5,32h23c1.375,0,2.5-1.125,2.5-2.5v-19c0-1.375-0.796-3.296-1.769-4.268H28.233z M26.819,7.646
			C26.917,7.744,27.015,7.864,27.108,8h-5.107V2.892c0.137,0.095,0.256,0.192,0.354,0.29L26.819,7.646L26.819,7.646z M28.001,29.5
			c0,0.271-0.229,0.5-0.5,0.5h-23c-0.271,0-0.5-0.229-0.5-0.5v-27c0-0.271,0.229-0.5,0.5-0.5h15c0.15,0,0.32,0.019,0.5,0.053V10
			h7.947c0.033,0.18,0.053,0.349,0.053,0.5V29.5z"/>
		<path style="display:none;" d="M28.233,6.232l-4.465-4.464C22.796,0.796,20.875,0,19.5,0h-15C3.125,0,2,1.125,2,2.5v27
			C2,30.875,3.125,32,4.5,32h23c1.375,0,2.5-1.125,2.5-2.5v-19c0-1.375-0.796-3.296-1.769-4.268H28.233z M26.819,7.646
			C26.917,7.744,27.015,7.864,27.108,8h-5.107V2.892c0.137,0.095,0.256,0.192,0.354,0.29L26.819,7.646L26.819,7.646z M28.001,29.5
			c0,0.271-0.229,0.5-0.5,0.5h-23c-0.271,0-0.5-0.229-0.5-0.5v-27c0-0.271,0.229-0.5,0.5-0.5h15c0.15,0,0.32,0.019,0.5,0.053V10
			h7.947c0.033,0.18,0.053,0.349,0.053,0.5V29.5z"/>
		<path style="fill:#020202;" d="M28.231,6.232h0.002l-4.465-4.464C22.796,0.796,20.875,0,19.5,0h-15C3.125,0,2,1.125,2,2.5v27
			C2,30.875,3.125,32,4.5,32h23c1.375,0,2.5-1.125,2.5-2.5v-19C30,9.125,29.204,7.204,28.231,6.232z M28.001,29.5
			c0,0.271-0.229,0.5-0.5,0.5h-23c-0.271,0-0.5-0.229-0.5-0.5v-27c0-0.271,0.229-0.5,0.5-0.5h15c0.15,0,0.32,0.019,0.5,0.053V10
			h7.947c0.033,0.18,0.053,0.349,0.053,0.5V29.5z"/>
		<path style="display:none;" d="M26.638,18.961c-0.023-0.176-0.164-0.393-0.313-0.541l-0.004,0.002
			c-0.426-0.42-1.369-0.645-2.812-0.662c-0.973-0.012-2.146,0.074-3.379,0.248c-0.553-0.32-1.123-0.666-1.567-1.084
			c-1.201-1.122-2.205-2.679-2.832-4.394c0.041-0.16,0.074-0.301,0.107-0.444c0,0,0.676-3.846,0.499-5.146
			c-0.024-0.178-0.041-0.23-0.088-0.369L16.19,6.42c-0.186-0.425-0.545-0.875-1.112-0.85l-0.341-0.01
			c-0.631,0-1.146,0.323-1.281,0.805c-0.41,1.514,0.014,3.778,0.781,6.711l-0.196,0.478c-0.55,1.34-1.237,2.689-1.847,3.879
			l-0.078,0.153c-0.641,1.252-1.221,2.312-1.746,3.213l-0.543,0.287c-0.039,0.021-0.969,0.515-1.188,0.646
			c-1.853,1.106-3.08,2.36-3.282,3.356c-0.065,0.318-0.018,0.726,0.312,0.914l0.524,0.265c0.229,0.112,0.468,0.172,0.714,0.172
			c1.319,0,2.851-1.644,4.959-5.323c2.437-0.794,5.209-1.451,7.639-1.813c1.853,1.043,4.129,1.766,5.565,1.766
			c0.257,0,0.476-0.022,0.654-0.069c0.274-0.074,0.508-0.229,0.649-0.444C26.657,20.131,26.712,19.553,26.638,18.961z M6.698,25.727
			c-0.125,0.205-0.154,0.254-0.076,0.041C6.646,25.757,6.674,25.738,6.698,25.727C7,25.225,7.874,23.762,9.222,22.657
			c0.088-0.071,0.307-0.274,0.508-0.468C8.312,24.452,7.347,25.396,6.698,25.727z M14.959,6.241c0.424,0,0.665,1.069,0.687,2.07
			c0.02,1.001-0.215,1.705-0.506,2.225c-0.24-0.77-0.357-1.984-0.357-2.778C14.782,7.757,14.765,6.241,14.959,6.241z M12.474,19.922
			L12.474,19.922c0.293-0.529,0.602-1.086,0.916-1.676c0.766-1.447,1.248-2.581,1.608-3.512c0.716,1.303,1.608,2.411,2.657,3.297
			c0.131,0.111,0.268,0.223,0.414,0.334C15.938,18.787,14.095,19.299,12.474,19.922z M25.911,19.803
			c-0.129,0.08-0.502,0.127-0.74,0.127c-0.771,0-1.727-0.352-3.066-0.926c0.518-0.039,0.986-0.059,1.408-0.059
			c0.775,0,1.004-0.002,1.762,0.19C26.033,19.329,26.042,19.721,25.911,19.803z"/>
		<g id="Calque_2_2_" style="display:none;">
			<polygon style="display:inline;" points="19.995,14.372 21.377,14.372 19.783,21.439 17.71,11.502 14.38,11.502 11.97,21.439 
				10.163,11.502 6.683,11.502 10.216,27.498 13.617,27.498 16.001,18.038 18.134,27.498 21.271,27.498 25.319,11.502 
				19.995,11.502 			"/>
		</g>
		<g id="Calque_3_1_" style="display:none;">
			<path style="display:inline;" d="M12.251,17.281v2h-3v7c0,0.552,0.447,1,1,1h4c0.553,0,1-0.448,1-1v-9H12.251z M14.251,25.281h-4
				v-2h4V25.281z"/>
			<path style="display:inline;" d="M12.438,5.219c0-0.276,0.224-0.5,0.5-0.5h1.812c0.276,0,0.5,0.224,0.5,0.5v9.813
				c0,0.276-0.224,0.5-0.5,0.5h-1.812c-0.276,0-0.5-0.224-0.5-0.5V5.219z"/>
			<path style="display:inline;" d="M9.001,5.219c0-0.276,0.225-0.5,0.5-0.5h1.813c0.275,0,0.5,0.224,0.5,0.5v11.813
				c0,0.275-0.225,0.5-0.5,0.5H9.501c-0.275,0-0.5-0.225-0.5-0.5V5.219z"/>
		</g>
		<g id="Calque_4_1_" style="display:none;">
			<polygon style="display:inline;" points="22.034,11.5 17.806,11.5 14.813,15.907 11.821,11.5 7.593,11.5 12.661,19.077 
				6.942,27.5 15.14,27.5 15.14,24.639 13.247,24.639 14.813,22.294 18.294,27.499 22.685,27.499 16.966,19.076 			"/>
		</g>
		<g id="Calque_5_1_" style="display:none;">
			<path style="display:inline;" d="M13.001,17v2h-3v7c0,0.553,0.447,1,1,1h4c0.553,0,1-0.447,1-1v-9H13.001z M15.001,25h-4v-2h4V25
				z"/>
			<path style="display:inline;" d="M13.188,4.938c0-0.276,0.224-0.5,0.5-0.5H15.5c0.276,0,0.5,0.224,0.5,0.5v9.812
				c0,0.276-0.224,0.5-0.5,0.5h-1.812c-0.276,0-0.5-0.224-0.5-0.5V4.938z"/>
			<path style="display:inline;" d="M9.751,4.938c0-0.276,0.225-0.5,0.5-0.5h1.813c0.275,0,0.5,0.224,0.5,0.5V16.75
				c0,0.275-0.225,0.5-0.5,0.5h-1.813c-0.275,0-0.5-0.225-0.5-0.5V4.938z"/>
		</g>
	</g>
	<g id="Calque_1_3_" style="display:inline;">
		<path style="display:none;fill:#020202;" d="M28.231,6.232h0.002l-4.465-4.464C22.796,0.796,20.875,0,19.5,0h-15
			C3.125,0,2,1.125,2,2.5v27C2,30.875,3.125,32,4.5,32h23c1.375,0,2.5-1.125,2.5-2.5v-19C30,9.125,29.204,7.204,28.231,6.232z
			 M28.001,29.5c0,0.271-0.229,0.5-0.5,0.5h-23c-0.271,0-0.5-0.229-0.5-0.5v-27c0-0.271,0.229-0.5,0.5-0.5h15
			c0.15,0,0.32,0.019,0.5,0.053V10h7.947c0.033,0.18,0.053,0.349,0.053,0.5V29.5z"/>
		<path d="M26.638,18.961c-0.023-0.176-0.164-0.393-0.313-0.541l-0.004,0.002c-0.426-0.42-1.369-0.645-2.812-0.662
			c-0.973-0.012-2.146,0.074-3.379,0.248c-0.553-0.32-1.123-0.666-1.567-1.084c-1.201-1.122-2.205-2.679-2.832-4.394
			c0.041-0.16,0.074-0.301,0.107-0.444c0,0,0.676-3.846,0.499-5.146c-0.024-0.178-0.041-0.23-0.088-0.369L16.19,6.42
			c-0.186-0.425-0.545-0.875-1.112-0.85l-0.341-0.01c-0.631,0-1.146,0.323-1.281,0.805c-0.41,1.514,0.014,3.778,0.781,6.711
			l-0.196,0.478c-0.55,1.34-1.237,2.689-1.847,3.879l-0.078,0.153c-0.641,1.252-1.221,2.312-1.746,3.213l-0.543,0.287
			c-0.039,0.021-0.969,0.515-1.188,0.646c-1.853,1.106-3.08,2.36-3.282,3.356c-0.065,0.318-0.018,0.726,0.312,0.914l0.524,0.265
			c0.229,0.112,0.468,0.172,0.714,0.172c1.319,0,2.851-1.644,4.959-5.323c2.437-0.794,5.209-1.451,7.639-1.813
			c1.853,1.043,4.129,1.766,5.565,1.766c0.257,0,0.476-0.022,0.654-0.069c0.274-0.074,0.508-0.229,0.649-0.444
			C26.657,20.131,26.712,19.553,26.638,18.961z M6.698,25.727c-0.125,0.205-0.154,0.254-0.076,0.041
			C6.646,25.757,6.674,25.738,6.698,25.727C7,25.225,7.874,23.762,9.222,22.657c0.088-0.071,0.307-0.274,0.508-0.468
			C8.312,24.452,7.347,25.396,6.698,25.727z M14.959,6.241c0.424,0,0.665,1.069,0.687,2.07c0.02,1.001-0.215,1.705-0.506,2.225
			c-0.24-0.77-0.357-1.984-0.357-2.778C14.782,7.757,14.765,6.241,14.959,6.241z M12.474,19.922L12.474,19.922
			c0.293-0.529,0.602-1.086,0.916-1.676c0.766-1.447,1.248-2.581,1.608-3.512c0.716,1.303,1.608,2.411,2.657,3.297
			c0.131,0.111,0.268,0.223,0.414,0.334C15.938,18.787,14.095,19.299,12.474,19.922z M25.911,19.803
			c-0.129,0.08-0.502,0.127-0.74,0.127c-0.771,0-1.727-0.352-3.066-0.926c0.518-0.039,0.986-0.059,1.408-0.059
			c0.775,0,1.004-0.002,1.762,0.19C26.033,19.329,26.042,19.721,25.911,19.803z"/>
	</g>
</g>
<g id="word" style="display:none;">
	<g id="Calque_1_5_" style="display:inline;">
		<path style="fill:#020202;" d="M28.231,6.232h0.002l-4.465-4.464C22.796,0.796,20.875,0,19.5,0h-15C3.125,0,2,1.125,2,2.5v27
			C2,30.875,3.125,32,4.5,32h23c1.375,0,2.5-1.125,2.5-2.5v-19C30,9.125,29.204,7.204,28.231,6.232z M28.001,29.5
			c0,0.271-0.229,0.5-0.5,0.5h-23c-0.271,0-0.5-0.229-0.5-0.5v-27c0-0.271,0.229-0.5,0.5-0.5h15c0.15,0,0.32,0.019,0.5,0.053V10
			h7.947c0.033,0.18,0.053,0.349,0.053,0.5V29.5z"/>
		<g id="Calque_2_3_">
			<polygon points="19.995,14.372 21.377,14.372 19.783,21.439 17.71,11.502 14.38,11.502 11.97,21.439 10.163,11.502 6.683,11.502 
				10.216,27.498 13.617,27.498 16.001,18.038 18.134,27.498 21.271,27.498 25.319,11.502 19.995,11.502 			"/>
		</g>
	</g>
</g>
<g id="xls" style="display:none;">
	<g id="Calque_1_6_" style="display:inline;">
		<path style="fill:#020202;" d="M28.231,6.232h0.002l-4.465-4.464C22.796,0.796,20.875,0,19.5,0h-15C3.125,0,2,1.125,2,2.5v27
			C2,30.875,3.125,32,4.5,32h23c1.375,0,2.5-1.125,2.5-2.5v-19C30,9.125,29.204,7.204,28.231,6.232z M28.001,29.5
			c0,0.271-0.229,0.5-0.5,0.5h-23c-0.271,0-0.5-0.229-0.5-0.5v-27c0-0.271,0.229-0.5,0.5-0.5h15c0.15,0,0.32,0.019,0.5,0.053V10
			h7.947c0.033,0.18,0.053,0.349,0.053,0.5V29.5z"/>
		<g id="Calque_4_2_">
			<polygon points="22.034,11.5 17.806,11.5 14.813,15.907 11.821,11.5 7.593,11.5 12.661,19.077 6.942,27.5 15.14,27.5 
				15.14,24.639 13.247,24.639 14.813,22.294 18.294,27.499 22.685,27.499 16.966,19.076 			"/>
		</g>
	</g>
</g>
<g id="zip" style="display:none;">
	<g id="Calque_1_4_" style="display:inline;">
		<path style="fill:#020202;" d="M28.231,6.232h0.002l-4.465-4.464C22.796,0.796,20.875,0,19.5,0h-15C3.125,0,2,1.125,2,2.5v27
			C2,30.875,3.125,32,4.5,32h23c1.375,0,2.5-1.125,2.5-2.5v-19C30,9.125,29.204,7.204,28.231,6.232z M28.001,29.5
			c0,0.271-0.229,0.5-0.5,0.5h-23c-0.271,0-0.5-0.229-0.5-0.5v-27c0-0.271,0.229-0.5,0.5-0.5h15c0.15,0,0.32,0.019,0.5,0.053V10
			h7.947c0.033,0.18,0.053,0.349,0.053,0.5V29.5z"/>
		<g id="Calque_3_2_">
			<path d="M12.251,17.281v2h-3v7c0,0.552,0.447,1,1,1h4c0.553,0,1-0.448,1-1v-9H12.251z M14.251,25.281h-4v-2h4V25.281z"/>
			<path d="M12.438,5.219c0-0.276,0.224-0.5,0.5-0.5h1.812c0.276,0,0.5,0.224,0.5,0.5v9.813c0,0.276-0.224,0.5-0.5,0.5h-1.812
				c-0.276,0-0.5-0.224-0.5-0.5V5.219z"/>
			<path d="M9.001,5.219c0-0.276,0.225-0.5,0.5-0.5h1.813c0.275,0,0.5,0.224,0.5,0.5v11.813c0,0.275-0.225,0.5-0.5,0.5H9.501
				c-0.275,0-0.5-0.225-0.5-0.5V5.219z"/>
		</g>
	</g>
</g>
<g id="none" style="display:none;">
	<g id="Calque_1_7_" style="display:inline;">
		<path style="fill:#020202;" d="M28.231,6.232h0.002l-4.465-4.464C22.796,0.796,20.875,0,19.5,0h-15C3.125,0,2,1.125,2,2.5v27
			C2,30.875,3.125,32,4.5,32h23c1.375,0,2.5-1.125,2.5-2.5v-19C30,9.125,29.204,7.204,28.231,6.232z M28.001,29.5
			c0,0.271-0.229,0.5-0.5,0.5h-23c-0.271,0-0.5-0.229-0.5-0.5v-27c0-0.271,0.229-0.5,0.5-0.5h15c0.15,0,0.32,0.019,0.5,0.053V10
			h7.947c0.033,0.18,0.053,0.349,0.053,0.5V29.5z"/>
	</g>
</g>
<g id="liste" style="display:none;">
	<g style="display:inline;">
		<line style="fill:none;stroke:#449FDB;" x1="0" y1="0" x2="0" y2="0"/>
	</g>
	<path style="display:inline;" d="M8,20.8H6.4c-0.883,0-1.6,0.716-1.6,1.601S5.517,24,6.4,24H8c0.883,0,1.6-0.715,1.6-1.6
		S8.883,20.8,8,20.8z M8,14.4H6.4c-0.883,0-1.6,0.717-1.6,1.6s0.717,1.6,1.6,1.6H8c0.883,0,1.6-0.717,1.6-1.6S8.883,14.4,8,14.4z
		 M8,8H6.4C5.517,8,4.8,8.717,4.8,9.6c0,0.883,0.717,1.6,1.6,1.6H8c0.883,0,1.6-0.717,1.6-1.6C9.6,8.717,8.883,8,8,8z M14.4,11.2
		h11.2c0.885,0,1.601-0.717,1.601-1.6C27.2,8.717,26.484,8,25.6,8H14.4c-0.883,0-1.6,0.717-1.6,1.6
		C12.8,10.483,13.517,11.2,14.4,11.2z M25.6,14.4H14.4c-0.883,0-1.6,0.717-1.6,1.6s0.717,1.6,1.6,1.6h11.2
		c0.885,0,1.601-0.717,1.601-1.6S26.484,14.4,25.6,14.4z M25.6,20.8H14.4c-0.883,0-1.6,0.716-1.6,1.601s0.717,1.6,1.6,1.6h11.2
		c0.885,0,1.601-0.715,1.601-1.6S26.484,20.8,25.6,20.8z"/>
</g>
<g id="mozaique" style="display:none;">
	<path style="display:inline;" d="M11.84,6.4H8.96C7.2,6.4,6.4,7.2,6.4,8.96v2.88c0,1.761,0.8,2.561,2.56,2.561h2.88
		c1.76,0,2.561-0.8,2.561-2.561V8.96C14.4,7.2,13.6,6.4,11.84,6.4z M23.04,6.4h-2.88C18.4,6.4,17.6,7.2,17.6,8.96v2.88
		c0,1.761,0.801,2.561,2.561,2.561h2.88c1.76,0,2.56-0.8,2.56-2.561V8.96C25.6,7.2,24.8,6.4,23.04,6.4z M11.84,17.6H8.96
		C7.2,17.6,6.4,18.4,6.4,20.16v2.88c0,1.76,0.8,2.56,2.56,2.56h2.88c1.76,0,2.561-0.8,2.561-2.56v-2.88
		C14.4,18.4,13.6,17.6,11.84,17.6z M23.04,17.6h-2.88C18.4,17.6,17.6,18.4,17.6,20.16v2.88c0,1.76,0.801,2.56,2.561,2.56h2.88
		c1.76,0,2.56-0.8,2.56-2.56v-2.88C25.6,18.4,24.8,17.6,23.04,17.6z"/>
</g>
<g id="info" style="display:none;">
	<g style="display:inline;">
		<path d="M16,0C7.163,0,0,7.163,0,16s7.163,16,16,16s16-7.163,16-16S24.837,0,16,0z M18.297,25.791h-4.593V11.315h4.593V25.791z
			 M18.297,9.187h-4.593v-3.5h4.593"/>
	</g>
</g>
<g id="flashcode">
	<g id="icomoon-ignore_6_">
		<line style="fill:none;stroke:#449FDB;" x1="0" y1="0" x2="0" y2="0"/>
	</g>
	<path d="M10,2H2v8h8V2z M12,0L12,0v12H0V0H12z M4,4h4v4H4V4z M30,2h-8v8h8V2z M32,0L32,0v12H20V0H32z M24,4h4v4h-4V4z M10,22H2v8h8
		V22z M12,20L12,20v12H0V20H12z M4,24h4v4H4V24z M14,0h2v2h-2V0z M16,2h2v2h-2V2z M14,4h2v2h-2V4z M16,6h2v2h-2V6z M14,8h2v2h-2V8z
		 M16,10h2v2h-2V10z M14,12h2v2h-2V12z M14,16h2v2h-2V16z M16,18h2v2h-2V18z M14,20h2v2h-2V20z M16,22h2v2h-2V22z M14,24h2v2h-2V24z
		 M16,26h2v2h-2V26z M14,28h2v2h-2V28z M16,30h2v2h-2V30z M30,16h2v2h-2V16z M2,16h2v2H2V16z M4,14h2v2H4V14z M0,14h2v2H0V14z M8,14
		h2v2H8V14z M10,16h2v2h-2V16z M12,14h2v2h-2V14z M18,16h2v2h-2V16z M20,14h2v2h-2V14z M22,16h2v2h-2V16z M24,14h2v2h-2V14z M26,16
		h2v2h-2V16z M28,14h2v2h-2V14z M30,20h2v2h-2V20z M18,20h2v2h-2V20z M20,18h2v2h-2V18z M22,20h2v2h-2V20z M26,20h2v2h-2V20z M28,18
		h2v2h-2V18z M30,24h2v2h-2V24z M18,24h2v2h-2V24z M20,22h2v2h-2V22z M24,22h2v2h-2V22z M26,24h2v2h-2V24z M28,22h2v2h-2V22z M30,28
		h2v2h-2V28z M20,26h2v2h-2V26z M22,28h2v2h-2V28z M24,26h2v2h-2V26z M26,28h2v2h-2V28z M20,30h2v2h-2V30z M24,30h2v2h-2V30z M28,30
		h2v2h-2V30z"/>
</g>
<g id="Calque_40" style="display:none;">
	<rect style="display:inline;fill:none;" width="32" height="32"/>
</g>
</svg>
