<?xml version="1.0" encoding="utf-8"?>
<?xml-stylesheet type="text/css" href="../assets/css/styleSVG-bike.css"?>

<svg version="1.1" id="velo" xmlns="http://www.w3.org/2000/svg"
	viewBox="0 244.1 595.3 354" xml:space="preserve">

<style type="text/css">
	#roue_gauche {
		fill : blue;
	}
</style>

<title>Vélo SVG</title>
<desc>Un beau vélo vectoriel</desc>

<g id="roue_droite">
	<path id="rayons_droite" d="M588.5,477.6c-0.6-29.4-12.4-57-33.6-77.9c-20.9-20.7-48.9-32-78.2-32l0,0c-0.6,0-1.4,0-2,0
		c-61.6,1.1-111,52.2-109.9,113.8c0.6,29.4,12.4,57,33.6,77.9c20.9,20.6,48.9,31.9,78.2,31.9c0.6,0,1.4,0,2,0
		c29.9-0.6,57.6-12.7,78.5-34.2C578.1,535.7,589.1,507.5,588.5,477.6z M484.9,578.7L484.9,578.7c-0.6,0-0.8,0-1.1-0.3
		c-0.3-0.3-0.6-0.6-0.6-1.1l-0.6-87c0-0.6,0.3-0.8,0.6-1.1c0.3-0.3,0.8-0.3,1.4-0.3l83.3,26.5c0.3,0,0.8,0.3,0.8,0.8
		c0.3,0.3,0.3,0.8,0,1.1c-4.8,11.6-11.6,22.3-20.6,31.3C531.5,566,508.9,576.7,484.9,578.7z M405.2,410.6c1.7-1.7,3.4-3.4,5.4-5.1
		c0.3-0.3,0.8-0.3,1.1-0.3c0.6,0,0.8,0.3,1.1,0.6l49.7,66.9c0.3,0.3,0.3,0.8,0.3,1.4c-0.3,0.6-0.6,0.8-0.8,0.8l-79.9,26.5
		c-0.3,0-0.3,0-0.6,0c-0.3,0-0.6,0-0.8-0.3c-0.3-0.3-0.6-0.6-0.8-1.1c-1.4-6.2-2-12.7-2.3-19.2C377,454.7,386.9,429.6,405.2,410.6
		L405.2,410.6z M385.2,516.3c0.3-0.3,0.6-0.6,0.8-0.8l80.2-26.8c0.6-0.3,0.8,0,1.4,0.3c0.3,0.3,0.6,0.8,0.6,1.1l0.6,86.7
		c0,0.6-0.3,0.8-0.6,1.1c-0.3,0.3-0.6,0.3-1.1,0.3c0,0,0,0-0.3,0c-22.9-2.3-43.5-11.9-59.9-28c-9.6-9.6-17.2-20.6-22.3-32.8
		C384.9,517.1,384.9,516.8,385.2,516.3z M475.3,464.9L475.3,464.9c-0.6,0-0.8-0.3-1.1-0.6l-49.4-67.2c-0.3-0.3-0.3-0.8-0.3-1.1
		c0-0.3,0.3-0.8,0.6-1.1c15-9.3,32.5-14.4,50.3-14.7c0.6,0,1.1,0,1.7,0l0,0c16.9,0,33.9,4.5,48.6,12.7c0.3,0.3,0.6,0.6,0.8,1.1
		c0,0.3,0,0.8-0.3,1.1l-49.7,69.2C476.1,464.6,475.8,464.9,475.3,464.9z M574.1,500.2c0,0.3-0.3,0.8-0.8,1.1c-0.3,0-0.6,0.3-0.8,0.3
		s-0.3,0-0.6,0l-83-26.3c-0.6-0.3-0.8-0.6-0.8-0.8c-0.3-0.6,0-0.8,0.3-1.4l49.7-69.5c0.3-0.3,0.6-0.6,1.1-0.6c0.6,0,0.8,0,1.1,0.3
		c2.3,1.7,4.2,3.7,6.2,5.6c18.6,18.4,29.4,42.9,29.7,69.2C576.4,485.2,575.5,492.8,574.1,500.2z"/>
	<path id="pneu_droite" d="M477,369.1L477,369.1c29.1,0,56.5,11.3,77.4,31.6c20.9,20.3,32.5,47.7,33,76.8
		c0.6,29.4-10.4,57.3-31.1,78.8c-20.6,21.2-48,33.3-77.7,33.6c-0.6,0-1.4,0-2,0c-29.1,0-56.5-11.3-77.4-31.6
		c-20.9-20.3-32.5-47.7-33-76.8c-0.6-29.4,10.4-57.3,31.1-78.8c20.6-21.2,48-33.3,77.4-33.6C475.5,369.1,476.1,369.1,477,369.1
		 M477,361.2c-0.8,0-1.4,0-2.3,0c-65.2,1.1-117.5,55.1-116.1,120.6c1.1,64.7,53.9,116.3,118.3,116.3c0.8,0,1.4,0,2.3,0
		c65.2-1.1,117.5-55.1,116.1-120.3C593.9,412.9,541.3,361.2,477,361.2L477,361.2z"/>
</g>

<g id="roue_gauche">
	<path id="rayons_gauche" d="M199.1,556.9c20.3-21.2,31.6-49.1,31.1-78.8c-0.3-29.4-12.1-57-32.8-77.9l0,0c-0.6-0.6-0.8-0.8-1.4-1.4
		c-44.3-42.6-115.5-41.2-158.1,3.1C17.5,423.1,6.2,451,6.8,480.7c0.3,29.4,12.1,57,32.8,77.9c0.6,0.6,0.8,0.8,1.4,1.4
		c21.5,20.6,49.7,31.6,79.6,31.1C150.5,590.8,178.2,578.7,199.1,556.9z M54.2,555.5C54.2,555.5,54.2,555.2,54.2,555.5
		c-0.3-0.3-0.6-0.8-0.6-1.1s0-0.8,0.6-1.1l61-62.1c0.3-0.3,0.8-0.6,1.4-0.6s0.8,0.3,1.1,0.8l40.4,77.4c0.3,0.3,0.3,0.8,0,1.1
		s-0.6,0.8-0.8,0.8c-11.6,4.8-24,7.6-36.7,7.9C96,579.2,72.6,571,54.2,555.5z M116.3,380.1c2.5,0,5.1,0,7.3,0c0.6,0,0.8,0.3,1.1,0.6
		c0.3,0.3,0.3,0.8,0.3,1.1l-12,82.8c0,0.6-0.3,0.8-0.8,1.1c-0.6,0.3-0.8,0.3-1.4,0l-75.4-37.6c-0.3,0-0.3-0.3-0.3-0.3
		c-0.3-0.3-0.3-0.3-0.3-0.6s0-0.8,0.3-1.1c3.4-5.4,7.6-10.4,12.1-15.2C64.9,391.7,89.8,380.7,116.3,380.1L116.3,380.1z M27.4,440.9
		c0.3-0.3,0.8,0,1.1,0l75.7,37.8c0.6,0.3,0.8,0.6,0.8,1.1c0,0.6,0,0.8-0.3,1.4L44,543c-0.3,0.3-0.8,0.6-1.1,0.6
		c-0.3,0-0.8-0.3-1.1-0.6l0,0c-14.7-17.5-22.6-39-22.6-62.1c-0.3-13.8,2.3-26.8,7.3-39.3C26.5,441.4,26.8,441.1,27.4,440.9z
		 M127.6,468L127.6,468c-0.3-0.3-0.6-0.8-0.6-1.1l12.4-82.5c0-0.3,0.3-0.8,0.6-1.1c0.3-0.3,0.8-0.3,1.1-0.3
		c17.2,4,33,12.7,45.7,25.1c0.6,0.3,0.8,0.8,1.4,1.4l0,0c12.1,12.1,20.9,27.1,25.4,43.2c0,0.3,0,0.8-0.3,1.1
		c-0.3,0.3-0.6,0.6-1.1,0.6l-83.9,14.1C128.5,468.5,127.9,468.5,127.6,468z M172.5,562.8c-0.3,0.3-0.8,0.3-1.1,0.3
		c-0.3,0-0.6-0.3-0.6-0.3l-0.3-0.3l-40.4-77.7c-0.3-0.6-0.3-0.8,0-1.4c0.3-0.6,0.6-0.8,1.1-0.8l84.2-14.1c0.3,0,0.8,0,1.1,0.3
		c0.3,0.3,0.6,0.6,0.6,1.1c0.3,2.8,0.6,5.6,0.6,8.5c0.3,26.3-9.6,51.1-27.7,70C184.7,553.8,179,558.6,172.5,562.8z"/>
	<path id="pneu_gauche" d="M118.3,369.1L118.3,369.1c28.5,0,55.9,11,76.5,30.8c21.2,20.3,33.3,48,33.9,77.4s-10.4,57.3-30.8,78.8
		C177,577.8,148.5,590,118.3,590c-28.5,0-55.9-11-76.5-30.8C-2,517.1-3.4,447.1,38.7,403C59.6,381.3,88.1,369.1,118.3,369.1
		 M118.3,361.2c-31.1,0-62.1,12.1-85.3,36.4c-45.2,47.2-43.8,122,3.4,167.5c22.9,22,52.5,33,81.9,33c31.1,0,62.1-12.1,85.3-36.4
		c45.2-47.2,43.8-122-3.4-167.5C177.3,372.2,148,361.2,118.3,361.2L118.3,361.2z"/>
</g>

<path id="structure" d="M477.5,470.2l-44.6-96.3c-2.5-5.4-3.4-15.2-3.7-21.2l0.6-1.1l-7.1-30.5c0,0-0.3,0-0.6,0V320h0.8
	c0.8,0,1.4-0.8,1.4-1.7l-0.3-3.4c0-0.8-0.8-1.4-1.7-1.4h-0.6v-5.1c12.7-4,26.8-9.6,28.2-16.1l0,0c0.8-1.1,1.4-2.5,1.4-4.2
	c0-4-3.1-7.1-7.1-7.1c-4,0-7.1,3.1-7.1,7.1l-39.5,12.4c-0.8,0.3-1.4,1.1-1.1,2l3.1,10.4c0.3,0.8,1.1,1.4,2,1.1c0,0,2-0.3,5.1-1.1v2
	h-0.3c-0.8,0-1.4,0.8-1.4,1.7l0.3,3.4c0,0.8,0.8,1.4,1.4,1.4v0.8c-46.6,2.5-177.9,9.9-183.3,10.2c-6.2,0.3-12.4,5.6-12.4,5.6
	L97.7,493.7l180.4,17.8l124.5-142.6c5.4-6.2,9.6-8.8,13.6-10.2c0.8,1.7,1.7,3.4,1.7,4.2c0.3,2,3.1,5.6,0.8,6.8
	c-2.3,1.2-1.7,4.5-1.1,7.9l50,97.1c-0.6,1.4-1.1,2.8-1.1,4.2c0,5.1,4.2,9.3,9.3,9.3c5.1,0,9.3-4.2,9.3-9.3
	C485.4,474.7,482,470.8,477.5,470.2z M334.6,399.3l-57.9,81l-142-3.4c0,0,76.8-94.3,83.9-103.1c7.1-8.8,18.9-8.8,24.3-7.6
	c0,0,85.8,16.9,85,16.7C337.2,385.5,338.6,394.3,334.6,399.3z"/>
<path id="pedalier" d="M345.1,508.1l-0.8-2.5c-0.3-0.8-1.1-1.4-2-1.1l-10.2,2.8l-29.9-4c0-2.3-0.3-4.8-0.8-7.1
	c-2-8.5-7.1-15.5-14.4-20c-5.1-3.4-11-5.1-17.2-5.1c-2,0-4,0.3-5.9,0.6l0,0l-0.8,0.3c-0.3,0-0.3,0-0.6,0c-8.5,2-15.5,7.1-20,14.4
	s-5.9,16.1-4,24.6c2,8.5,7.1,15.5,14.4,20c5.1,3.4,11,5.1,17.2,5.1l0,0c2.3,0,4.8-0.3,7.1-0.8h0.6c8.5-2,15.5-7.1,20-14.4
	c1.4-2.3,2.5-4.8,3.4-7.3l7.9,0.6h-0.6c-0.8,0.3-1.4,1.1-1.1,2l0.8,2.5c0.3,0.8,1.1,1.4,2,1.1l34.2-9.6
	C344.8,509.8,345.4,508.9,345.1,508.1z M283,484.1c4.8,3.4,8.5,8.2,9.9,14.1c0.3,0.8,0.3,1.7,0.6,2.5l-16.7-1.4L283,484.1z
	 M264.3,480.7h0.3l0,0c3.1-0.6,6.2-0.8,9-0.3l-5.9,15L255.8,485C258.4,482.9,261.2,481.5,264.3,480.7z M247.1,508.9
	c-1.4-5.6-0.6-11.6,2.3-16.9l11.9,10.4l-13.8,8.2C247.4,510,247.4,509.5,247.1,508.9z M269.7,527c-4.2,0-8.5-1.1-12.4-3.7
	c-2-1.1-3.7-2.5-5.1-4.2l13.8-8.2L269.7,527L269.7,527z M289.7,515.7c-2.5,4.2-6.2,7.3-10.4,9l-3.1-13.6l15.2,1.1
	C290.9,513.7,290.3,514.8,289.7,515.7z"/>
<path id="selle" d="M248.5,251.7c-1.1-1.1-5.1-7.6-11-7.6H172c-5.1,0-4.2,4-2,5.6c2.3,1.7,16.4,11.9,25.4,11.9c0.8,0,1.4,0,2.5,0
	l16.7,64.9h-5.9v7.1h7.6l2.3,8.2l11.6-2.8l-1.4-5.6h1.7v-7.1H227l-17.5-66.9c6.8-1.7,13-3.7,14.7-4.2c3.1-1.1,13.8-1.4,20,0
	C250.5,255.9,249.6,252.8,248.5,251.7z"/>
<path id="cadre" fill="#7F7F7F" d="M373.6,341.2c-0.3-0.6-1.1-1.1-1.7-1.1l-137,6.2c-1.1,0-1.7,0.8-2,1.7c0,1.1,0.6,2,1.7,2
	l116.6,23.7h0.3c0.6,0,1.1-0.3,1.7-0.8l20.6-29.9C373.9,342.9,373.9,342,373.6,341.2z"/>
<path id="chaine" d="M269.7,536.6c-4.2,0-11.6-2-11.9-2.3l-140.3-44.1l0,0c-4-1.7-6.8-5.6-6.8-9.9c0-5.9,4.8-10.7,10.7-10.7
	l149.4,0.8l0,0c17.8,0.6,32.2,15.2,32.2,33C303,521.6,288,536.6,269.7,536.6z M118.9,489.1l139.2,44.1c0,0,7.3,2,11.3,2
	c17.5,0,31.9-14.1,31.9-31.9c0-17.5-14.1-31.6-31.6-31.6h-0.8l0,0l-147.4-0.8c-5.1,0-9.3,4.2-9.3,9.3c0,4,2.5,7.6,6.2,8.8
	L118.9,489.1L118.9,489.1z"/>
</svg>
