<svg xmlns="http://www.w3.org/2000/svg" viewBox="0 0 184.252 112.089">
	<style>
		.bike {
			display: none;
		}

		.bike-light {
			display: none;
		}

		@media all and (max-width: 300px) {
			.bike-light {
				display: block;
			}
		}

		@media all and (min-width: 301px) {
			.bike {
				display: block;
			}
		}
	</style>

	<path class="bike-light" fill="#1D1D1B" d="M35.397 41.295c4.52 0 8.838.86 12.815 2.41L59.264 21.72c.048-.096.105-.187.164-.276L55.99 11.22l-5.04.147c-.102.002-.21.002-.315-.006-1.86-.118-3.273-1.724-3.153-3.585.12-1.86 1.726-3.273 3.587-3.153l26.524 1.71c1.083.072 1.962.957 1.995 2.065.033 1.176-.894 2.16-2.07 2.193l-15.69.46 3.07 9.132h63.823c-1.834-6.147-3.145-10.53-3.42-11.424-.976-3.17-2.39-3.17-3.15-3.17h-13.39c-1.544 0-2.795-1.25-2.795-2.795 0-1.543 1.25-2.793 2.794-2.793h13.39c2.876 0 6.683 1.233 8.492 7.115.58 1.886 5.554 18.574 10.46 35.047 2.496-.562 5.088-.866 7.75-.866 19.517 0 35.397 15.88 35.397 35.397s-15.88 35.397-35.396 35.397c-19.518 0-35.397-15.88-35.397-35.397 0-14.894 9.252-27.66 22.307-32.878l-2.972-9.98-45.4 48.19c-.528.56-1.263.878-2.034.878h-3.25l-.01.002-.01-.002h-11.85c-2.946 16.565-17.442 29.187-34.84 29.187C15.88 112.09 0 96.21 0 76.692s15.88-35.397 35.397-35.397zm83.65 35.397c0 16.436 13.372 29.808 29.808 29.808s29.808-13.37 29.808-29.808c0-16.435-13.372-29.807-29.808-29.807-2.11 0-4.166.224-6.153.64 4.262 14.316 8.093 27.196 8.443 28.37.44 1.48-.402 3.035-1.882 3.476-.267.08-.534.118-.798.118-1.204 0-2.316-.785-2.677-2-.087-.293-4.02-13.515-8.423-28.298-10.747 4.507-18.318 15.136-18.318 27.502zM130.29 28.34l-.554-2.57H66.78l17.327 51.543h.045L130.29 28.34zM78.21 77.312L61.927 28.87l-8.683 17.272c10.488 6.152 17.55 17.538 17.55 30.55 0 .21-.01.413-.014.62h7.43zm-13.005-.62c0-10.833-5.81-20.332-14.475-25.55l-13.157 26.17H65.19c.003-.208.015-.412.015-.62zM35.397 106.5c14.306 0 26.286-10.133 29.152-23.598H33.02c-1.543 0-2.794-1.25-2.794-2.794 0-.56.166-1.084.45-1.522L45.693 48.72c-3.21-1.187-6.68-1.835-10.295-1.835-16.435 0-29.808 13.37-29.808 29.807 0 16.436 13.372 29.808 29.807 29.808z"/>

	<g class="bike">

		<g fill="#1D1D1B">
			<path d="M147.477 38.008c-20.283 0-36.724 16.442-36.724 36.723 0 20.284 16.442 36.725 36.724 36.725 20.282 0 36.723-16.442 36.723-36.724 0-20.28-16.442-36.722-36.723-36.722zm32.105 36.723c0 1.133-.06 2.254-.176 3.364l-18.254-2.987 18.395-1.837c.02.484.035.972.035 1.46zm-64.21 0c0-1.168.063-2.327.187-3.473l18.314 2.997-18.47 1.846c-.02-.454-.032-.91-.032-1.37zm33.57.397l-.16.354-.248.304-.316.228-.366.137-.387.037-.496-.08-.26-.117-.307-.25-.232-.326-.14-.37-.04-.396.065-.392.162-.363.252-.306.322-.233.372-.14.396-.04.282.047.457.206.3.245.228.32.137.364.04.39-.064.383zm.6-.635l.016-.036.037.03-.03.037-.022-.03zm.138-.307l.05-.112.15.067-.103.125-.097-.08zm-.23-.187l-.03-.025.006-.038.045.02-.02.043zm.025-.357l.024-.15.17.028-.08.176-.115-.053zm-.27-.12l-.037-.016-.008-.068.056.01-.012.075zm-.413-.435l-.013-.033.054-.006.003.047-.045-.008zm-.117-.312l-.044-.113.16-.06.016.163-.13.01zm-.295.03l-.047.006-.02-.03.05-.02.017.044zm-.242-.264l-.072-.102.14-.1.056.153-.124.05zm-.278.105l-.044.015-.027-.02.043-.034.027.04zm-.58.006l-.034-.013.036-.043.038.03-.04.027zm-.304-.135l-.113-.05.07-.156.127.103-.084.102zm-.188.23l-.01.01-.042-.007.01-.023.042.02zm-.344-.045l-.13-.022.022-.138.147.066-.04.094zm-.123.27l-.018.042-.043.004.008-.054.053.01zm-.413.412l-.04.015-.007-.053.055-.006-.008.044zm-.318.12l-.125.047-.06-.16.17-.018.014.13zm.028.296l.004.043-.036.027-.02-.05.052-.02zm-.273.242l-.106.077-.1-.14.158-.06.047.123zm.105.28l.017.04-.03.034-.03-.044.043-.03zm-.198.304l-.084.103-.133-.108.14-.102.077.106zm.17.24l.027.038-.02.04-.042-.034.034-.043zm-.112.348l-.055.12-.156-.072.107-.132.103.084zm.228.188l.034.027-.007.045-.05-.024.023-.048zm-.02.366l-.016.098-.16-.026.057-.128.12.056zm.27.12l.04.02.003.014-.045-.008.003-.025zm.4.382l.016.045-.046.004-.006-.054.036.005zm.12.322l.05.124-.154.058-.016-.17.12-.012zm.297-.03l.035-.003.028.04-.044.017-.02-.053zm.235.277l.078.107-.134.095-.06-.16.116-.043zm.28-.106l.03-.01.04.03-.04.027-.03-.046zm.568.014l.043.02-.03.038-.042-.035.03-.023zm.314.142l.12.055-.066.15-.132-.108.078-.096zm.188-.23l.044-.053.04.006-.033.07-.05-.023zm.375.002l.123.02-.03.19-.157-.07.065-.14zm.122-.27l.017-.037.038-.002-.01.047-.045-.008zm.405-.402l.036-.015.004.05-.048.005.008-.04zm.313-.118l.118-.045.057.154-.162.016-.013-.125zm-.03-.294l-.003-.04.03-.023.017.046-.045.018zm.27-.236l.1-.073.094.13-.153.058-.043-.115zm-.105-.278l-.014-.036.026-.03.028.038-.04.028zm.198-.296l.08-.097.124.104-.13.095-.074-.1zm.26-.317l.15-.186.31.14-.275.198-.185-.15zm.34-.415l.29-.357.683.113-.584.42-.39-.176zm-.27-.122l-.218-.097.112-.246.34.056-.234.287zm.015-.613l.177-.392.687-.07-.434.532-.43-.07zm-.294-.048l-.245-.042.04-.237.344-.034-.14.313zm-.527-.088l-.13-.023-.013-.123.17-.016-.027.162zm-.17-.43l-.026-.24.326-.122-.055.337-.246.025zm-.055-.534l-.043-.427.56-.4-.11.675-.407.153zm-.278.106l-.23.087-.084-.223.28-.202.034.34zm-.42-.415l-.15-.404.437-.535.067.683-.354.256zm-.24.172l-.2.143-.14-.194.22-.268.12.32zm-.434.31l-.107.078-.096-.077.108-.132.094.133zm-.424-.182l-.186-.152.142-.316.2.278-.156.19zm-.416-.34l-.333-.272.112-.68.4.555-.18.398zm-.122.27l-.1.226-.22-.1.057-.342.264.217zm-.59.006l-.392-.178-.07-.687.53.436-.068.43zm-.05.293l-.034.213-.244-.04-.032-.316.31.142zm-.08.495l-.02.13-.13.014-.02-.172.17.027zm-.436.172l-.247.026-.123-.33.346.057.025.247zm-.542.055l-.437.043-.41-.567.69.112.156.412zm.105.276l.088.232-.23.088-.206-.285.35-.035zm-.422.424l-.41.155-.54-.443.694-.07.256.358zm.173.24l.146.203-.2.144-.272-.223.327-.124zm-.295.52l-.357.257-.638-.288.654-.246.34.276zm.23.19l.19.155-.157.193-.32-.145.286-.203zm-.154.576l-.255.315-.68-.112.535-.382.4.18zm.27.123l.228.102-.09.2-.337-.056.2-.245zm.016.572l-.18.397-.682.067.437-.535.426.07zm.292.047l.237.038-.04.244-.34.034.143-.317zm.52.085l.123.02.014.13-.162.018.025-.168zm.163.437l.027.245-.32.12.056-.342.238-.023zm.054.54l.046.434-.557.4.11-.682.4-.153zm.28-.104l.223-.086.088.23-.278.2-.034-.344zm.415.423l.153.407-.434.532-.07-.688.35-.25zm.24-.172l.196-.14.143.2-.218.264-.12-.324zm.43-.307l.1-.07.1.083-.103.125-.098-.137zm.423.193l.19.156-.14.31-.203-.282.153-.185zm.42.345l.337.275-.11.678-.404-.56.177-.392zm.122-.27l.1-.218.223.1-.055.34-.268-.222zm.594.004l.396.18.068.682-.535-.437.07-.425zm.048-.294l.043-.264.236.038.038.37-.316-.144zm.09-.548l.02-.123.124-.01.015.16-.16-.027zm.428-.163l.238-.025.12.316-.335-.054-.024-.237zm.533-.054l.423-.042.397.553-.67-.11-.15-.4zm-.105-.277l-.085-.225.223-.083.198.275-.335.034zm.416-.413l.4-.15.525.43-.676.067-.25-.347zm-.172-.24l-.14-.195.194-.14.263.214-.317.12zm.296-.507l.345-.25.617.28-.635.24-.328-.27zm.615-.442l.682-.49 1.545.25-1.5.568-.728-.328zm1.01-.728l1.44-1.035 5.177-.516-4.863 1.838-1.753-.286zm-.4-.065l-.802-.13.512-.624 1.56-.156-1.27.91zm-.034-1.07l1.123-1.37 4.866-1.84-4.222 3.034-1.768.177zm-.403.04l-.808.083.333-.738 1.464-.553-.99 1.208zm-1.136.115l-.434.044.07-.426.646-.245-.283.625zm-.312-.707l.13-.798 1.273-.914-.643 1.426-.76.286zm.197-1.198l.285-1.75 3.296-4.026-2.14 4.74-1.44 1.036zm-.33.237l-.66.473-.08-.803.993-1.213-.253 1.543zm-.78-.732l-.176-1.764 2.14-4.742-.84 5.132-1.124 1.375zm-.257.313l-.514.63-.284-.757.645-1.427.155 1.555zm-.724.885l-.274.338-.25-.35.282-.63.243.643zm-.72-.28l-.47-.657.252-1.544.554 1.46-.335.74zm-.706-.986l-1.034-1.44-.518-5.177 1.84 4.865-.288 1.752zm-.066.4l-.13.803-.625-.51-.155-1.56.91 1.268zm-1.07.034l-1.37-1.12-1.84-4.868 3.032 4.22.18 1.77zm.04.403l.08.808-.735-.33-.554-1.467 1.21.99zm.115 1.138l.04.405-.434-.072-.233-.615.626.283zm-.72.28l-.81-.13-.89-1.24 1.424.643.275.728zm-1.208-.197l-1.77-.29-3.983-3.26 4.74 2.14 1.013 1.41zm.236.33l.48.665-.816.08-1.226-1.003 1.563.257zm-.74.786l-1.784.178-4.793-2.164 5.19.85 1.388 1.135zm.314.257l.635.52-.77.288-1.442-.652 1.576-.156zm-.512.952l-1.622.612-5.13-.84 5.118-.51 1.634.737zm.37.165l.747.337-.633.454-1.542-.252 1.428-.54zm-.214 1.027l-1.442 1.037-5.174.517 4.867-1.84 1.748.285zm.4.066l.796.13-.513.63-1.554.155 1.27-.915zm.026 1.073l-1.126 1.375-4.862 1.84 4.224-3.038 1.764-.176zm.403-.04l.803-.08-.333.74-1.463.554.993-1.213zm1.132-.113l.428-.043-.07.43-.644.244.285-.63zm.303.714l-.13.803-1.268.912.644-1.428.753-.286zm-.196 1.202l-.287 1.753-3.293 4.024 2.14-4.743 1.44-1.035zm.33-.237l.655-.47.08.808-.988 1.208.252-1.545zm.775.74l.178 1.768-2.14 4.74.84-5.136 1.122-1.372zm.258-.313l.512-.625.287.762-.644 1.422-.156-1.56zm.72-.882l.272-.332.255.354-.283.626-.245-.648zm.72.29l.474.66-.252 1.54-.555-1.463.333-.736zm.71.99l1.038 1.442.517 5.173-1.84-4.866.286-1.75zm.066-.4l.13-.798.628.514.156 1.555-.914-1.27zm1.072-.026l1.376 1.123 1.838 4.865-3.037-4.225-.177-1.763zm-.04-.402l-.08-.804.74.334.554 1.463-1.214-.993zm-.113-1.134l-.046-.46.42.07.255.674-.63-.284zm.702-.336l.79.13.935 1.303-1.428-.645-.297-.788zm1.188.195l1.734.283 4.067 3.33-4.743-2.142-1.06-1.47zm-.236-.33l-.468-.65.796-.08 1.196.98-1.525-.25zm.733-.768l1.746-.177 4.688 2.118-5.077-.83-1.357-1.11zm-.315-.26l-.618-.504.748-.283 1.408.635-1.538.153zm.51-.93l1.694-.64 5.136.838-5.233.524-1.598-.723zm2.23-.844l5.4-2.042 19.48-1.947c.144.98.24 1.974.295 2.975l-19.474 1.946-5.702-.932zm6.435-2.432l17.3-6.54c.483 1.53.85 3.1 1.1 4.7l-18.4 1.84zm-1.1.11l-5.748.574 4.688-3.37 18.313-6.922c.397.913.75 1.846 1.06 2.794l-18.314 6.923zm-.163-3.442l15.01-10.79c.874 1.362 1.638 2.78 2.293 4.25l-17.303 6.54zm-1.036.392l-5.404 2.042 3.655-4.467 15.886-11.42c.624.784 1.21 1.592 1.75 2.424l-15.886 11.42zm-5.94 2.245l-1.66.625.73-1.614 4.224-3.036-3.293 4.025zm-.695-1.51l2.374-5.263 12.39-15.143c.796.594 1.566 1.226 2.31 1.898L156.55 65.988l-4.69 3.37zm2.83-6.27l7.606-16.854c1.42.742 2.79 1.593 4.098 2.55L154.69 63.09zm-.702.854l-3.66 4.47.934-5.696 8.054-17.846c.927.37 1.835.78 2.726 1.232l-8.054 17.84zm-2.548-2.318l2.987-18.247c1.578.345 3.122.81 4.62 1.387l-7.607 16.86zm-.456 1.01l-2.376 5.265-.574-5.743 3.16-19.317c.995.114 1.98.274 2.95.478l-3.16 19.317zm-2.612 5.788l-.73 1.618-.627-1.657.84-5.136.517 5.174zm-1.56-.575l-2.04-5.4-1.95-19.49c.983-.14 1.975-.238 2.977-.288l1.945 19.478-.932 5.7zm-2.432-6.438l-6.545-17.317c1.53-.48 3.103-.848 4.706-1.092l1.84 18.41zm.11 1.103l.576 5.747-3.37-4.687-6.933-18.34c.915-.395 1.848-.746 2.798-1.054l6.93 18.335zm-3.44.16l-10.81-15.04c1.364-.872 2.788-1.636 4.26-2.286l6.55 17.326zm.392 1.038l2.042 5.404-4.466-3.656-11.445-15.92c.785-.622 1.594-1.204 2.425-1.747l11.444 15.92zm2.244 5.938l.63 1.664-1.615-.728-3.036-4.227 4.022 3.29zm-1.51.7l-5.26-2.376-15.187-12.427c.593-.795 1.225-1.565 1.897-2.31l15.178 12.42 3.372 4.693zm-6.27-2.83l-16.91-7.635c.746-1.426 1.6-2.8 2.562-4.11l14.35 11.744zm.858.7l4.424 3.622-5.754-.942-17.804-8.037c.368-.925.78-1.834 1.234-2.72l17.9 8.076zm-2.423 2.5l-18.21-2.98c.35-1.574.815-3.115 1.395-4.61l16.816 7.59zm1.01.456l5.315 2.398-5.69.568-19.385-3.17c.115-.996.276-1.98.482-2.952l19.28 3.156zm-.383 3.257l5.696.932-5.403 2.04-19.557 1.957c-.142-.982-.238-1.975-.288-2.975l19.552-1.954zm-.742 3.366l-17.386 6.57c-.483-1.537-.85-3.115-1.095-4.724l18.48-1.847zm1.1-.11l5.746-.576-4.69 3.37-18.4 6.957c-.396-.914-.747-1.847-1.055-2.796l18.4-6.955zm.157 3.44l-15.094 10.85c-.875-1.368-1.642-2.797-2.296-4.276l17.39-6.573zm1.035-.39l5.4-2.043-3.66 4.47-15.966 11.48c-.62-.786-1.203-1.594-1.746-2.426l15.973-11.48zm5.935-2.244l1.658-.626-.73 1.62-4.223 3.032 3.295-4.026zm.69 1.515l-2.375 5.266-12.455 15.22c-.795-.594-1.565-1.226-2.31-1.898l12.454-15.217 4.687-3.37zm-2.83 6.273l-7.65 16.948c-1.43-.745-2.806-1.6-4.12-2.564l11.77-14.383zm.7-.856l3.655-4.467-.933 5.702-8.092 17.93c-.927-.367-1.835-.777-2.724-1.23l8.095-17.935zm2.543 2.327l-3 18.336c-1.585-.347-3.138-.81-4.645-1.393l7.645-16.943zm.457-1.008l2.375-5.263.575 5.748-3.173 19.396c-.996-.113-1.98-.273-2.953-.476l3.175-19.404zm2.61-5.784l.73-1.616.628 1.662-.84 5.13-.52-5.176zm1.56.583l2.042 5.403 1.955 19.548c-.983.143-1.976.242-2.976.294l-1.954-19.548.933-5.697zm2.434 6.437l6.564 17.366c-1.535.485-3.112.855-4.72 1.104l-1.844-18.47zm-.11-1.1l-.574-5.744 3.372 4.69 6.945 18.375c-.916.397-1.848.75-2.797 1.06l-6.947-18.38zm3.444-.154l10.825 15.062c-1.366.875-2.79 1.644-4.263 2.298l-6.562-17.36zm-.393-1.036l-2.04-5.4 4.468 3.657 11.452 15.93c-.784.624-1.59 1.207-2.42 1.752l-11.46-15.94zm-2.243-5.937l-.627-1.656 1.62.728 3.033 4.223-4.026-3.295zm1.514-.69l5.266 2.376 15.175 12.42c-.594.795-1.226 1.565-1.896 2.31l-15.176-12.418-3.37-4.688zm6.274 2.832l16.887 7.62c-.742 1.427-1.596 2.8-2.553 4.11l-14.335-11.73zm-.857-.702l-4.51-3.693 5.642.924 17.97 8.113c-.365.925-.773 1.835-1.226 2.724l-17.875-8.07zm2.224-2.59l18.375 3.006c-.345 1.592-.81 3.15-1.392 4.662l-16.984-7.667zm-1.01-.455l-5.213-2.353 5.803-.58 19.325 3.16c-.113.995-.27 1.98-.47 2.954l-19.446-3.18zm12.992-23.593l-15.005 10.786 11.7-14.297c.35.32.694.647 1.03.985.81.808 1.567 1.652 2.275 2.527zM150.91 42.81l-2.986 18.246-1.838-18.397c.46-.022.925-.033 1.39-.033 1.154 0 2.3.062 3.434.183zm-23.562 6.908l10.81 15.04-14.337-11.732c.31-.337.627-.67.954-.996.823-.823 1.682-1.592 2.574-2.312zM122.47 94.87l15.087-10.845-11.765 14.38c-.345-.318-.685-.64-1.017-.973-.82-.818-1.586-1.675-2.304-2.562zm21.602 11.787l3-18.324 1.845 18.47c-.478.02-.958.032-1.44.032-1.146 0-2.282-.06-3.405-.178zm23.59-6.957l-10.818-15.05 14.337 11.732c-.324.357-.66.707-1.002 1.052-.805.804-1.645 1.558-2.516 2.266zM37.72 38.35c-20.09 0-36.378 16.285-36.378 36.376 0 20.09 16.287 36.376 36.38 36.376 20.088 0 36.375-16.287 36.375-36.376 0-20.09-16.287-36.377-36.376-36.377zm31.8 36.377c0 1.223-.07 2.434-.205 3.63l-18.048-2.953 18.23-1.823c.015.383.024.764.024 1.147zm-63.602 0c0-1.058.052-2.105.153-3.14l18.176 2.972L5.96 76.386c-.027-.55-.042-1.105-.042-1.66zm33.253.697l-.158.35-.244.3-.315.226-.36.137-.386.04-.49-.083-.255-.114-.306-.25-.23-.32-.137-.368-.042-.392.065-.39.162-.357.247-.304.322-.232.365-.138.393-.04.278.047.456.203.298.245.225.314.135.36.037.385-.06.38zm.595-.628l.018-.036.036.03-.03.038-.025-.032zm.138-.304l.05-.113.147.066-.1.124-.097-.078zm-.227-.186l-.03-.024.005-.04.045.02-.02.044zm.023-.352l.024-.15.167.027-.078.174-.113-.05zm-.268-.12l-.035-.016-.008-.07.054.01-.012.075zm-.408-.433l-.013-.032.056-.005.004.046-.046-.01zm-.116-.306l-.044-.114.16-.06.014.16-.13.014zm-.293.03l-.05.005-.02-.03.054-.02.015.043zm-.24-.263l-.07-.1.136-.097.058.15-.122.048zm-.274.104l-.044.016-.026-.022.044-.03.027.036zm-.576.008l-.032-.014.036-.043.034.03-.038.027zm-.3-.135l-.11-.05.07-.154.124.102-.084.102zm-.186.227l-.01.012-.043-.007.012-.025.04.02zm-.342-.043l-.13-.02.024-.138.147.067-.04.09zm-.12.27l-.02.04-.043.004.01-.055.052.01zm-.41.406l-.04.015-.007-.052.053-.007-.006.046zm-.316.12l-.122.044-.06-.158.17-.016.012.13zm.03.29l.004.046-.037.025-.02-.05.052-.02zm-.27.243l-.106.076-.1-.14.16-.06.045.123zm.104.274l.015.04-.03.036-.03-.045.044-.03zm-.2.3l-.08.102-.133-.105.14-.1.074.105zm.173.24l.026.036-.018.04-.043-.033.035-.043zm-.115.345l-.054.118-.154-.07.108-.132.1.083zm.228.185l.035.03-.008.042-.05-.023.023-.05zm-.02.362l-.016.1-.16-.027.058-.126.118.053zm.267.12l.04.018.002.014-.046-.008.003-.025zm.397.377l.015.044-.046.004-.005-.054.034.006zm.12.32l.046.123-.15.056-.02-.167.123-.013zm.292-.03l.035-.003.03.04-.043.016-.02-.052zm.234.274l.077.107-.13.095-.06-.157.113-.045zm.275-.103l.033-.013.037.03-.037.027-.033-.045zm.565.01l.043.02-.03.036-.042-.034.03-.02zm.31.142l.12.054-.066.15-.13-.108.076-.095zm.186-.228l.044-.052.038.006-.032.068-.05-.023zm.373 0l.12.02-.032.19-.153-.07.064-.14zm.12-.267l.015-.036.038-.004-.008.048-.045-.007zm.4-.398l.035-.013.006.048-.046.005.006-.04zm.31-.118l.116-.043.057.15-.16.016-.013-.123zm-.03-.29l-.003-.04.033-.02.015.043-.044.017zm.267-.233l.1-.072.095.13-.15.056-.045-.114zm-.104-.275l-.014-.037.025-.03.027.038-.04.03zm.198-.294l.08-.095.124.102-.13.093-.073-.1zm.26-.316l.147-.184.306.14-.27.194-.184-.15zm.334-.41l.29-.354.675.112-.58.415-.386-.173zm-.268-.122l-.215-.097.11-.242.34.055-.234.285zm.015-.608l.177-.39.68-.067-.43.526-.426-.07zm-.288-.048l-.242-.038.038-.234.343-.035-.138.307zm-.522-.085l-.13-.02-.01-.122.166-.018-.026.16zm-.17-.424l-.023-.238.322-.12-.056.334-.244.023zm-.052-.53l-.043-.425.557-.398-.11.67-.404.153zm-.276.104l-.23.086-.083-.222.278-.2.034.337zm-.416-.41l-.15-.4.432-.528.068.674-.35.253zm-.24.17l-.198.144-.14-.193.22-.265.118.316zm-.428.31l-.106.075-.097-.077.11-.13.093.13zm-.42-.182l-.185-.15.142-.314.198.277-.156.188zm-.41-.337l-.332-.27.11-.674.397.553-.176.39zm-.123.27l-.1.222-.217-.098.055-.34.262.215zm-.585.003l-.388-.175-.068-.68.526.43-.07.426zm-.047.29l-.036.213-.242-.04-.03-.31.308.137zm-.08.493l-.02.13-.13.012-.02-.17.17.028zm-.435.17l-.244.026-.122-.325.343.054.023.244zm-.536.055l-.432.042-.403-.563.682.113.152.408zm.103.273l.09.23-.23.088-.204-.282.345-.035zm-.416.422l-.41.154-.535-.44.688-.067.256.352zm.17.24l.143.2-.2.142-.27-.22.328-.123zm-.295.512l-.352.254-.633-.284.65-.245.335.274zm.228.187l.19.156-.156.19-.316-.142.283-.203zm-.153.573l-.253.312-.672-.11.53-.38.395.178zm.27.12l.222.102-.088.197-.333-.055.2-.243zm.013.567l-.177.394-.677.067.432-.53.42.07zm.29.048l.235.038-.038.24-.337.034.14-.312zm.516.084l.118.02.014.13-.16.017.027-.168zm.16.43l.024.245-.316.12.056-.34.237-.024zm.053.538l.044.43-.553.397.11-.675.4-.152zm.276-.104l.22-.084.088.23-.275.196-.034-.342zm.41.42l.154.403-.43.526-.068-.68.344-.25zm.24-.172l.192-.138.143.2-.215.26-.12-.322zm.422-.305l.1-.072.102.084-.103.125-.098-.138zm.422.19l.188.155-.137.308-.202-.28.15-.183zm.416.342l.334.274-.11.67-.4-.555.176-.388zm.12-.267l.1-.217.222.1-.055.335-.266-.218zm.59.004l.393.177.067.675-.53-.433.07-.42zm.048-.29l.043-.264.234.04.037.365-.312-.14zm.087-.544l.02-.123.122-.01.016.16-.158-.027zm.425-.162l.236-.025.12.313-.33-.053-.026-.236zm.53-.053l.42-.042.392.548-.664-.108-.15-.397zm-.106-.274l-.082-.223.22-.082.196.27-.334.036zm.413-.41l.397-.15.52.426-.67.07-.247-.345zm-.17-.238l-.14-.192.194-.138.26.21-.314.12zm.292-.502l.343-.247.612.276-.63.238-.326-.268zm.608-.438l.677-.486 1.53.25-1.485.56-.722-.324zm1.002-.72l1.426-1.024 5.13-.513-4.818 1.823-1.738-.286zm-.396-.065l-.793-.13.506-.62 1.545-.154-1.256.903zm-.032-1.06l1.11-1.358 4.823-1.822-4.18 3.006-1.753.174zm-.4.04l-.8.08.328-.73 1.452-.547-.98 1.197zm-1.127.113l-.43.043.07-.42.64-.243-.28.62zm-.308-.7l.13-.79 1.26-.907-.637 1.41-.753.285zm.195-1.187l.284-1.733 3.265-3.99-2.12 4.695-1.428 1.027zm-.326.233l-.653.47-.08-.796.982-1.202-.25 1.528zm-.774-.726l-.174-1.746 2.12-4.7-.83 5.086-1.116 1.36zm-.253.312l-.51.622-.283-.75.638-1.414.154 1.54zm-.717.874l-.275.334-.247-.345.282-.624.24.634zm-.715-.277l-.466-.65.25-1.532.547 1.448-.332.734zm-.7-.976l-1.024-1.424-.513-5.13 1.822 4.818-.284 1.737zm-.067.397l-.13.794-.617-.505-.154-1.544.9 1.257zm-1.057.034l-1.36-1.11-1.82-4.823 3.004 4.183.176 1.75zm.04.4l.08.8-.73-.33-.548-1.45 1.197.98zm.113 1.127l.04.4-.43-.07-.23-.61.62.28zm-.714.276l-.8-.13-.883-1.228 1.41.638.272.72zm-1.197-.196l-1.754-.286-3.943-3.23 4.696 2.122 1.002 1.395zm.235.327l.474.658-.808.082-1.215-.994 1.55.254zm-.735.78l-1.767.177-4.75-2.142 5.143.84 1.375 1.126zm.313.254l.627.514-.76.287-1.43-.647 1.563-.155zm-.508.943l-1.608.61-5.083-.833 5.07-.507 1.62.73zm.365.165l.74.335-.625.45-1.53-.25 1.415-.535zm-.212 1.02l-1.428 1.027-5.126.51 4.82-1.82 1.733.283zm.397.065l.79.128-.51.623-1.54.155 1.26-.905zm.025 1.062l-1.113 1.36-4.818 1.823 4.185-3.01 1.745-.173zm.4-.04l.796-.08-.33.734-1.448.547.982-1.202zm1.12-.112l.425-.043-.07.426-.636.24.282-.623zm.303.706l-.13.794-1.255.904.637-1.416.748-.282zm-.194 1.19l-.283 1.737-3.262 3.987 2.12-4.698 1.426-1.026zm.327-.233l.65-.467.078.8-.98 1.197.253-1.53zm.77.732l.173 1.752-2.118 4.694.833-5.087 1.11-1.358zm.253-.31l.507-.62.284.754-.636 1.41-.155-1.546zm.714-.873l.27-.33.25.35-.28.62-.24-.64zm.714.287l.47.652-.25 1.528-.548-1.453.33-.728zm.703.978l1.028 1.428.514 5.126-1.822-4.822.28-1.732zm.065-.397l.13-.788.622.51.153 1.54-.905-1.26zm1.063-.024l1.363 1.116L43.105 85l-3.008-4.185-.176-1.75zm-.038-.4l-.08-.795.734.333.547 1.447-1.2-.983zm-.112-1.12l-.046-.455.417.07.253.667-.623-.28zm.694-.333l.782.127.927 1.29-1.414-.638-.296-.78zm1.178.192l1.716.28 4.03 3.3-4.698-2.12-1.048-1.46zm-.234-.324l-.462-.643.788-.08 1.185.97-1.512-.246zm.724-.764l1.73-.173 4.647 2.098-5.03-.822-1.348-1.102zm-.31-.253l-.612-.5.74-.28 1.395.628-1.522.153zm.504-.924l1.68-.635 5.087.832-5.184.518-1.584-.716zm2.21-.836l5.35-2.023 19.336-1.93c.132.97.223 1.955.266 2.948l-19.305 1.928-5.647-.922zm6.374-2.41l17.223-6.51c.467 1.524.82 3.09 1.05 4.684L50.91 71.894zm-1.09.11l-5.694.568 4.645-3.338 18.253-6.9c.385.91.726 1.837 1.024 2.78l-18.226 6.89zm-.16-3.41L64.662 57.81c.86 1.365 1.61 2.79 2.25 4.262L49.66 68.594zm-1.026.387l-5.352 2.026 3.62-4.426 15.89-11.422c.61.782 1.184 1.588 1.716 2.414l-15.874 11.41zm-5.883 2.226l-1.645.622.722-1.6 4.186-3.008-3.262 3.986zm-.69-1.495l2.354-5.212L56.84 49.312c.784.592 1.546 1.22 2.28 1.89l-12.412 15.17-4.647 3.34zm2.804-6.21l7.647-16.94c1.426.75 2.8 1.61 4.106 2.58L44.864 63.5zm-.694.848l-3.625 4.43.925-5.643 8.094-17.937c.917.368 1.815.778 2.695 1.23l-8.09 17.92zm-2.523-2.297l3.006-18.37c1.59.35 3.14.824 4.648 1.41l-7.653 16.96zm-.45 1.002l-2.355 5.214-.57-5.69 3.18-19.433c.985.114 1.96.275 2.924.48l-3.18 19.43zm-2.59 5.73l-.724 1.605-.62-1.643.833-5.086.51 5.125zm-1.544-.567l-2.023-5.35-1.96-19.605c.972-.142 1.956-.24 2.948-.29l1.958 19.598-.923 5.647zm-2.41-6.375l-6.587-17.428c1.54-.49 3.122-.86 4.735-1.108l1.853 18.536zm.108 1.09l.572 5.695-3.338-4.644-6.968-18.43c.906-.394 1.828-.745 2.767-1.054L34.76 62.93zm-3.406.162l-10.86-15.108c1.368-.884 2.794-1.66 4.272-2.32l6.588 17.428zm.387 1.025l2.024 5.352-4.426-3.62-11.473-15.966c.772-.622 1.572-1.204 2.392-1.746l11.484 15.98zM33.967 70l.623 1.647-1.6-.722-3.01-4.188L33.965 70zm-1.495.69l-5.212-2.353-15.185-12.424c.583-.79 1.206-1.557 1.866-2.3L29.13 66.044l3.34 4.646zm-6.21-2.802l-16.882-7.62c.733-1.43 1.577-2.81 2.528-4.125L26.26 67.888zm.846.693l4.386 3.59-5.702-.934-17.74-8.008c.357-.92.756-1.823 1.2-2.707l17.856 8.06zm-2.397 2.48l-18.1-2.963c.33-1.572.78-3.108 1.342-4.602L24.71 71.06zm.998.45l5.264 2.378-5.636.562L6.1 71.302c.106-.986.255-1.962.45-2.925l19.158 3.133zm-.38 3.226l5.643.924-5.35 2.024-19.33 1.93c-.148-.97-.253-1.953-.31-2.943l19.35-1.934zm-.735 3.335L7.458 84.55c-.49-1.514-.865-3.068-1.122-4.653l18.257-1.824zm1.09-.11l5.69-.568-4.644 3.34L8.612 87.58c-.397-.904-.754-1.825-1.067-2.763l18.138-6.856zm.156 3.412L11.02 92.022c-.87-1.34-1.636-2.738-2.292-4.183l17.11-6.468zm1.024-.388l5.348-2.02-3.624 4.427-15.66 11.257c-.623-.772-1.208-1.57-1.752-2.388l15.688-11.276zm5.88-2.223l1.642-.62-.723 1.604-4.183 3.007 3.263-3.99zm.683 1.502l-2.354 5.216-12.18 14.885c-.79-.582-1.557-1.205-2.298-1.867L28.785 83.6l4.642-3.338zm-2.804 6.213l-7.464 16.54c-1.4-.723-2.75-1.554-4.037-2.484l11.5-14.055zm.695-.847l3.62-4.426-.924 5.648-7.9 17.503c-.92-.36-1.822-.762-2.703-1.207l7.908-17.518zm2.52 2.305L30.914 105.8c-1.548-.336-3.063-.785-4.534-1.346l7.46-16.52zm.45-1l2.352-5.213.57 5.694-3.095 18.91c-.985-.11-1.96-.265-2.923-.465l3.095-18.927zm2.587-5.73l.72-1.6.623 1.648-.83 5.083-.513-5.13zm1.544.577l2.023 5.353 1.904 19.06c-.97.143-1.955.24-2.947.29l-1.906-19.06.925-5.643zm2.41 6.378l6.4 16.93c-1.498.466-3.035.823-4.602 1.064L40.83 88.158zm-.108-1.09l-.57-5.69 3.34 4.646 6.78 17.937c-.905.392-1.83.738-2.772 1.04l-6.778-17.93zm3.41-.154l10.572 14.71c-1.336.848-2.73 1.59-4.17 2.225L44.13 86.913zm-.387-1.025l-2.023-5.35 4.428 3.624L57.352 99.75c-.78.61-1.582 1.185-2.408 1.72l-11.2-15.58zm-2.224-5.88l-.62-1.643 1.604.724 3.006 4.184-3.99-3.264zm1.5-.687l5.218 2.355L63.126 93.86c-.594.786-1.224 1.546-1.892 2.28L46.358 83.966l-3.337-4.643zm6.217 2.807l16.596 7.49c-.74 1.394-1.586 2.737-2.535 4.015L49.238 82.13zm-.848-.693l-4.47-3.66 5.59.915 17.696 7.988c-.37.914-.785 1.81-1.24 2.688l-17.577-7.93zm2.2-2.568l18.137 2.968c-.356 1.566-.83 3.095-1.417 4.58l-16.72-7.55zm-1-.45l-5.163-2.332 5.748-.574 19.11 3.126c-.12.983-.288 1.957-.497 2.918l-19.197-3.14zm13.026-23.483l-15.02 10.795L59.33 51.396c.298.276.592.556.88.844.86.86 1.66 1.76 2.408 2.697zM41.17 43.112l-3.006 18.373-1.85-18.528c.467-.02.935-.032 1.407-.032 1.16 0 2.313.064 3.45.187zM17.643 50.06L28.49 65.154 14.128 53.4c.358-.394.726-.782 1.105-1.16.77-.772 1.576-1.498 2.41-2.18zm-4.538 44.81l14.79-10.63L16.38 98.31c-.39-.357-.774-.72-1.15-1.097-.75-.75-1.46-1.533-2.127-2.344zm21.292 11.485l2.92-17.85 1.8 17.99c-.463.02-.93.033-1.396.033-1.118 0-2.226-.06-3.323-.173zm23.176-6.784L47 84.86l14.038 11.488c-.27.293-.548.583-.832.867-.84.84-1.72 1.626-2.633 2.358z"/><path d="M81.87 70.272l-.004-.003h-.024c-.324-.032-.654-.048-.988-.048-.323 0-.644.015-.962.045l-42.458-.044-.002.007c-.058-.002-.114-.01-.172-.01-2.647 0-4.793 2.147-4.793 4.793 0 2.28 1.593 4.186 3.73 4.67l-.003.005 41.457 11.13c.295.093.595.174.9.24l.065.02.007-.003c.72.156 1.467.24 2.233.24 5.827 0 10.548-4.72 10.548-10.548 0-5.48-4.184-9.984-9.533-10.495zM77.494 88c.145-.414.598-.634 1.01-.49.754.264 1.545.396 2.35.396h.03c.428.012.772.363.772.794 0 .438-.355.794-.793.794l-.018-.002c-.982-.002-1.944-.165-2.862-.484-.414-.144-.633-.595-.49-1.01zm-2.455-4.586l2.97-.808c.246.38.564.71.937.964l-.88 2.95c-1.336-.652-2.41-1.753-3.028-3.106zm11.45-5.656c.48.9.755 1.924.755 3.012 0 .44-.044.866-.13 1.28l-2.882-1.094c.003-.062.01-.123.01-.186 0-.402-.076-.784-.204-1.142l2.45-1.87zm-1.33-3.696c.27-.343.77-.402 1.112-.13.77.61 1.428 1.34 1.954 2.17.234.37.125.86-.245 1.096-.13.083-.277.123-.424.123-.262 0-.52-.128-.67-.367-.43-.68-.97-1.278-1.6-1.778-.342-.27-.4-.77-.127-1.113zm-.96-.526c-.112.327-.42.532-.75.532-.083 0-.17-.014-.258-.044-.75-.26-1.536-.392-2.338-.392h-.023c-.436 0-.79-.354-.79-.793 0-.44.354-.794.792-.794h.026c.978.002 1.938.163 2.855.48.412.144.632.595.488 1.01zm-3.346.844c1.146 0 2.22.304 3.152.835l-1.93 2.4c-.38-.15-.79-.232-1.222-.232-.032 0-.067.004-.1.004L79.73 74.48c.367-.065.74-.1 1.124-.1zm.72 12.737l.148-3.075c.444-.12.85-.322 1.204-.595l2.532 1.75c-1.007 1.046-2.366 1.752-3.885 1.92zm3.082-.305c.68-.43 1.28-.965 1.78-1.595.274-.34.774-.397 1.116-.125.342.274.397.773.125 1.115-.613.77-1.344 1.423-2.176 1.947-.13.084-.277.122-.42.122-.265 0-.52-.13-.672-.37-.234-.37-.124-.86.248-1.094zm2.936-3.685c.265-.756.4-1.55.4-2.357v-.03c0-.437.354-.792.793-.792.438 0 .792.355.792.793v.02c0 .996-.164 1.965-.487 2.89-.114.327-.42.53-.75.53-.085 0-.173-.013-.26-.043-.413-.145-.63-.596-.488-1.01zm-9.987-3.305l-3.078.072c.206-1.51.944-2.855 2.017-3.837l1.686 2.573c-.283.347-.497.75-.625 1.192zm-.562-5.088c-.678.43-1.277.968-1.78 1.6-.153.196-.386.297-.62.297-.172 0-.346-.056-.493-.17-.34-.274-.4-.772-.126-1.115.61-.77 1.342-1.427 2.17-1.95.37-.236.86-.126 1.095.245.233.37.124.86-.247 1.094zm-2.93 3.69c-.262.753-.396 1.542-.396 2.345 0 .437-.354.8-.793.8-.438 0-.792-.348-.792-.786v-.014c0-.982.163-1.945.482-2.864.143-.414.594-.634 1.01-.49.412.145.632.597.488 1.01zm-.39 5.906c.37-.235.86-.124 1.094.246.428.68.966 1.278 1.595 1.78.343.274.4.772.127 1.115-.158.197-.388.3-.62.3-.176 0-.35-.057-.495-.174-.768-.61-1.425-1.342-1.95-2.173-.234-.37-.123-.86.248-1.093zm-35.607-4.602c2.238-.406 3.935-2.36 3.935-4.713 0-1.91-1.12-3.556-2.738-4.326l38.314.037c-4.245 1.365-7.32 5.344-7.32 10.043 0 3.76 1.968 7.055 4.927 8.923l-37.117-9.965z"/><path d="M147.477 71.76c-.177 0-.35.02-.52.05-.31-.404-.62-.812-.908-1.238-.78-1.15-1.505-2.35-2.18-3.578-1.336-2.457-2.548-5-3.5-7.607-.072-.195-.142-.393-.21-.59l-5.144-15.675-3.086-9.367.012-.005c.602-.205.925-.866.72-1.466l-4.85-14.165c-.187-.552-.755-.862-1.31-.756l-.823-2.474c.53-.237 1.036-.455 1.298-.554.706-.266 3.074-.74 3.074-.74.073.034.133.053.184.066.347.22.76.35 1.2.35 1.246 0 2.254-1.01 2.254-2.252 0-.622-.253-1.185-.66-1.592-.462-.617-1.183-1.887-1.34-2.25-.182-.425-.772-2.096-.83-2.327.03-.028.056-.07.08-.124.15-.193.237-.43.237-.692 0-.52-.346-.955-.82-1.1-.657-.616-1.87-1.738-3.056-1.99-.03-.008-.065-.014-.095-.02-.045-.007-.09-.015-.134-.02-.083-.01-.166-.016-.252-.016-1.212 0-2.195.982-2.195 2.194 0 .265.05.516.136.75-.087.236-.137.488-.137.752 0 1.21.983 2.193 2.195 2.193.67 0 1.27-.3 1.672-.777.14.025.27.117.387.316.318.54.586 1.19.646 1.59-.5.21-.906.6-1.145 1.084-1.417.202-4.977.454-5.506.675-.598.25-2.1 1.232-2.31 1.423-.212.194-.827 1.135-.058 1.348.35.097.73.11 1.04.1l.36 1.026c-.038.014-.08.03-.13.047-.403.153-.807.634-.79.865.02.23.213.77.907.848.184.02.403.007.626-.022l.845 2.4c-.504.255-.762.852-.575 1.4l.322.94c-1.406.077-2.813.153-4.22.22l-3.772.187-3.772.165-3.77.165c-1.27-.186-2.524-.043-3.782-.007l-7.542.323c-2.515.1-5.028.246-7.54.368l-3.77.217-1.886.105-.472.028c-.156.012-.315.005-.47.06-.154.052-.307.146-.46.21-.155.072-.31.082-.47.088-2.512.142-5.025.277-7.54.38-2.38.104-4.76.176-7.144.218l-.055-.197.098-.03c.246-.072.385-.33.314-.577l-.263-.89c-.075-.246-.334-.386-.58-.313l-.074.022-3.37-11.932 2.37-.123c.588-.03 1.39-.363 1.823-.757L69.9 5.86c1.054-.116 1.975-.143 2.553-.05.912.15 3.436.26 3.782.088.207-.105.404-2.945-4.39-2.945s-11.173.058-11.865.058c-.693 0-5.692-.75-6.467-.98-.906-.27-4.62-.983-5.14-.75-.52.23-.488 2.06.347 2.944.828.877 2.702 1.807 3.805 2.28l2.39 2.638c.392.434 1.14.753 1.735.753.03 0 .056 0 .083-.002l3.1-.16c.104.106.177.2.21.27l.002.018L63.5 22.24l-1.16.342c-.246.072-.385.33-.314.577l.263.89c.072.245.332.385.577.313l1.138-.337.49 1.733-27.914 47.6 1.77 1.018-.086-.01-.16 1.18 42.774 5.927.12-.893.145.025.098-.574.955.863c1.088-.986 2.156-1.99 3.213-3.004l1.584-1.525 1.566-1.54c1.05-1.022 2.07-2.067 3.105-3.102 1.034-1.035 2.052-2.084 3.07-3.134 4.078-4.194 8.027-8.505 12.013-12.78l5.93-6.46 5.886-6.5c2.928-3.27 5.845-6.547 8.725-9.86l.346 1.014c.207.6.866.923 1.468.718l.015-.004 1.936 5.45 1.366 3.845.004.013.018.05 1.417 3.973 1.43 4.002 1.434 4.02.02.064.01.02.473 1.328c.1.282.2.565.302.847l.122.342.122.336.043.12.02.056.03.072c.103.28.208.564.318.847.518 1.345 1.064 2.677 1.644 3.996.578 1.317 1.19 2.623 1.86 3.907.668 1.282 1.374 2.55 2.18 3.774.328.497.68.984 1.054 1.463-.258.44-.415.944-.415 1.49 0 1.643 1.332 2.974 2.974 2.974 1.642 0 2.973-1.33 2.973-2.974 0-1.643-1.332-2.974-2.973-2.974zM56.7 9.2c-.404.024-.996-.224-1.27-.524l-1.495-1.65c.83.26 2.06.547 3.706.547-.12.204-.19.44-.19.693 0 .335.12.64.32.88L56.7 9.2zm4.56-1.608c.233-.01.45-.033.684-.078.924-.173 3.176-.664 3.176-.664 1.072-.345 2.352-.633 3.57-.827l-2.396 2.173c-.316.287-.965.556-1.392.58l-2.57.13c-.245-.49-.643-.938-1.073-1.314zM39.55 74.54l.555-.98 27.946 4.8-28.5-3.82zm1.183-2.09L64.28 30.854c.363-.494 1.034-.516 1.198.084.172.634 1.656 5.433 1.77 5.676.057.126.316.064.33.06l11.94 42.252-38.785-6.48zm74.038-33.03l-5.877 6.507-5.834 6.548c-3.858 4.393-7.75 8.755-11.517 13.23-.942 1.12-1.886 2.237-2.81 3.37-.928 1.132-1.867 2.253-2.78 3.4l-1.374 1.71-1.36 1.73c-.47.602-.94 1.206-1.403 1.816L68.027 28.92c-.144-.715-.083-1.545.998-1.634-.004-.003-.076-.02-.19-.038 1.66-.12 3.322-.23 4.983-.316 2.513-.14 5.026-.25 7.543-.35.158-.01.315-.015.474.04.16.05.322.13.48.166.16.038.317.018.474.014l.472-.02 1.886-.073 3.772-.152c2.515-.12 5.03-.22 7.54-.366l7.54-.41c1.257-.083 2.518-.063 3.762-.37l3.77-.202 3.77-.2 1.24-.06 8.9 2.646.083.244c-3.63 3.82-7.198 7.694-10.752 11.583z"/></g>


	</g>

</svg>
