
<svg version="1.1" xmlns="http://www.w3.org/2000/svg" xmlns:xlink="http://www.w3.org/1999/xlink" x="0px" y="0px" xml:space="preserve">

	<style type="text/css">
		#calendrier {
			fill: red;
		}
	</style>

<symbol id="favoris_x5F_on">
	<g>
		<line fill="none" stroke="#449FDB" x1="16" y1="16" x2="16" y2="16"/>
	</g>
	<path d="M32,12.408l-11.057-1.607L16,0.783l-4.944,10.018L0,12.408l8,7.798L6.111,31.217L16,26.018l9.889,5.199L24,20.206
		L32,12.408z"/>
</symbol>
<symbol id="zoom_x2B_">
	<g>
		<path fill="none" d="M13.479,5.794c-2.294,0-4.255,0.815-5.885,2.445c-1.63,1.63-2.445,3.592-2.445,5.885
			c0,2.294,0.815,4.255,2.445,5.886c1.63,1.63,3.592,2.444,5.885,2.444c2.293,0,4.255-0.814,5.885-2.444
			c1.63-1.631,2.445-3.592,2.445-5.886c0-2.293-0.816-4.255-2.445-5.885C17.734,6.61,15.772,5.794,13.479,5.794z M19.43,14.72
			c0,0.161-0.06,0.301-0.177,0.418c-0.118,0.118-0.258,0.176-0.419,0.176h-4.165v4.166c0,0.161-0.059,0.301-0.177,0.418
			c-0.118,0.118-0.257,0.177-0.418,0.177h-1.19c-0.161,0-0.301-0.059-0.418-0.177c-0.118-0.117-0.176-0.257-0.176-0.418v-4.166
			H8.123c-0.161,0-0.301-0.059-0.418-0.176c-0.118-0.118-0.176-0.257-0.176-0.418v-1.19c0-0.161,0.059-0.3,0.176-0.418
			c0.118-0.118,0.257-0.177,0.418-0.177h4.166V8.77c0-0.161,0.059-0.3,0.176-0.418c0.118-0.118,0.257-0.176,0.418-0.176h1.19
			c0.161,0,0.3,0.059,0.418,0.176c0.118,0.118,0.177,0.258,0.177,0.418v4.166h4.165c0.161,0,0.301,0.059,0.419,0.177
			c0.117,0.118,0.177,0.257,0.177,0.418V14.72z"/>
		<path d="M18.834,12.935h-4.165V8.77c0-0.161-0.059-0.3-0.177-0.418c-0.118-0.118-0.257-0.176-0.418-0.176h-1.19
			c-0.161,0-0.301,0.059-0.418,0.176c-0.118,0.118-0.176,0.258-0.176,0.418v4.166H8.123c-0.161,0-0.301,0.059-0.418,0.177
			c-0.118,0.118-0.176,0.257-0.176,0.418v1.19c0,0.161,0.059,0.301,0.176,0.418c0.118,0.118,0.257,0.176,0.418,0.176h4.166v4.166
			c0,0.161,0.059,0.301,0.176,0.418c0.118,0.118,0.257,0.177,0.418,0.177h1.19c0.161,0,0.3-0.059,0.418-0.177
			c0.118-0.117,0.177-0.257,0.177-0.418v-4.166h4.165c0.161,0,0.301-0.059,0.419-0.176c0.117-0.118,0.177-0.257,0.177-0.418v-1.19
			c0-0.161-0.06-0.3-0.177-0.418C19.135,12.994,18.995,12.935,18.834,12.935z"/>
		<path d="M30.642,27.923l-6.378-6.379c1.537-2.219,2.306-4.691,2.306-7.419c0-1.772-0.344-3.468-1.031-5.085
			c-0.689-1.618-1.618-3.013-2.789-4.184c-1.172-1.171-2.566-2.101-4.185-2.789c-1.617-0.688-3.313-1.032-5.085-1.032
			c-1.773,0-3.468,0.344-5.086,1.032C6.775,2.754,5.381,3.684,4.209,4.856S2.108,7.421,1.42,9.04
			c-0.688,1.618-1.032,3.313-1.032,5.085c0,1.773,0.344,3.468,1.032,5.086c0.688,1.617,1.618,3.012,2.789,4.184
			c1.171,1.172,2.566,2.102,4.184,2.789c1.618,0.688,3.313,1.032,5.086,1.032c2.727,0,5.2-0.768,7.419-2.306l6.378,6.359
			c0.446,0.471,1.004,0.707,1.674,0.707c0.656,0,1.218-0.233,1.683-0.698c0.465-0.465,0.697-1.025,0.697-1.683
			S31.101,28.381,30.642,27.923z M19.364,20.011c-1.63,1.63-3.592,2.444-5.885,2.444c-2.294,0-4.255-0.814-5.885-2.444
			c-1.63-1.631-2.445-3.592-2.445-5.886c0-2.293,0.815-4.255,2.445-5.885c1.63-1.63,3.592-2.445,5.885-2.445
			c2.293,0,4.255,0.815,5.885,2.445c1.63,1.63,2.445,3.592,2.445,5.885C21.81,16.419,20.994,18.38,19.364,20.011z"/>
	</g>
</symbol>
<symbol id="zoom-">
	<g>
		<path fill="#020202" d="M1.504,19.317c-0.695-1.633-1.042-3.344-1.042-5.134c0-1.79,0.347-3.502,1.042-5.135
			C2.198,7.415,3.137,6.007,4.32,4.825c1.183-1.183,2.591-2.122,4.224-2.816c1.633-0.695,3.344-1.042,5.134-1.042
			c1.79,0,3.502,0.347,5.134,1.042c1.634,0.694,3.042,1.633,4.225,2.816c1.183,1.183,2.121,2.59,2.815,4.224
			c0.695,1.633,1.042,3.345,1.042,5.135c0,2.753-0.776,5.25-2.328,7.491l6.44,6.44c0.463,0.462,0.694,1.025,0.694,1.689
			c0,0.663-0.234,1.229-0.703,1.698c-0.47,0.47-1.036,0.704-1.699,0.704c-0.676,0-1.239-0.237-1.69-0.713l-6.439-6.421
			c-2.24,1.553-4.737,2.328-7.491,2.328c-1.79,0-3.501-0.348-5.134-1.042c-1.633-0.694-3.042-1.633-4.224-2.815
			C3.137,22.358,2.198,20.951,1.504,19.317z M7.736,8.241c-1.645,1.646-2.468,3.626-2.468,5.942s0.823,4.296,2.468,5.942
			c1.646,1.646,3.626,2.469,5.942,2.469c2.316,0,4.296-0.823,5.942-2.469c1.646-1.645,2.469-3.626,2.469-5.942
			s-0.823-4.296-2.469-5.942c-1.646-1.646-3.626-2.469-5.942-2.469C11.363,5.773,9.382,6.596,7.736,8.241z M7.671,14.784v-1.201
			c0-0.163,0.059-0.304,0.178-0.423c0.119-0.119,0.26-0.178,0.422-0.178h10.814c0.162,0,0.304,0.06,0.423,0.178
			c0.118,0.119,0.178,0.26,0.178,0.423v1.201c0,0.163-0.059,0.304-0.178,0.422c-0.119,0.119-0.261,0.178-0.423,0.178H8.271
			c-0.163,0-0.304-0.059-0.422-0.178C7.73,15.087,7.671,14.947,7.671,14.784z"/>
	</g>
</symbol>
<symbol id="Loupe">
	<g>
		<path d="M1.341,18.601c-0.672-1.582-1.009-3.239-1.009-4.972c0-1.733,0.336-3.39,1.009-4.972c0.673-1.582,1.582-2.945,2.727-4.09
			c1.146-1.145,2.509-2.054,4.09-2.727c1.582-0.673,3.238-1.009,4.972-1.009c1.733,0,3.39,0.336,4.971,1.009
			c1.582,0.672,2.945,1.581,4.091,2.727c1.145,1.145,2.054,2.508,2.727,4.09c0.672,1.582,1.009,3.239,1.009,4.972
			c0,2.666-0.752,5.084-2.254,7.253l6.234,6.234c0.448,0.448,0.673,0.994,0.673,1.637c0,0.63-0.231,1.175-0.691,1.636
			c-0.461,0.46-1.006,0.69-1.637,0.69c-0.654,0-1.199-0.23-1.636-0.69l-6.235-6.217c-2.169,1.503-4.586,2.254-7.252,2.254
			c-1.733,0-3.39-0.336-4.972-1.009c-1.582-0.673-2.945-1.582-4.09-2.727C2.922,21.545,2.014,20.182,1.341,18.601z M7.376,7.875
			c-1.594,1.594-2.391,3.512-2.391,5.753c0,2.242,0.797,4.16,2.391,5.753c1.593,1.594,3.511,2.391,5.753,2.391
			c2.242,0,4.16-0.797,5.753-2.391c1.593-1.594,2.391-3.511,2.391-5.753c0-2.242-0.798-4.16-2.391-5.753
			c-1.594-1.593-3.512-2.39-5.753-2.39C10.887,5.485,8.969,6.282,7.376,7.875z"/>
	</g>
</symbol>

<symbol id="tags">
	<g>
		<path d="M-0.001,11.457V2.955c0-0.709,0.259-1.321,0.776-1.839c0.518-0.518,1.131-0.776,1.839-0.776h8.502
			c0.722,0,1.519,0.181,2.391,0.541c0.872,0.361,1.566,0.8,2.084,1.318L30.204,16.79c0.504,0.531,0.756,1.151,0.756,1.86
			c0,0.722-0.252,1.335-0.756,1.839L20.17,30.544c-0.531,0.504-1.151,0.756-1.859,0.756c-0.723,0-1.336-0.252-1.839-0.756
			L1.859,15.912c-0.518-0.504-0.958-1.192-1.318-2.064C0.18,12.976-0.001,12.179-0.001,11.457z M4.689,5.029
			C4.179,5.54,3.923,6.157,3.923,6.879s0.255,1.338,0.766,1.849c0.511,0.511,1.127,0.767,1.85,0.767c0.722,0,1.338-0.255,1.85-0.767
			c0.511-0.511,0.766-1.127,0.766-1.849S8.899,5.54,8.389,5.029c-0.511-0.511-1.128-0.767-1.85-0.767
			C5.817,4.263,5.201,4.519,4.689,5.029z"/>
	</g>
</symbol>
<symbol id="calendrier" viewBox="0 0 32 32">
	<g>
		<path d="M1.862,29.624V7.396c0-0.602,0.22-1.123,0.66-1.563c0.44-0.44,0.961-0.66,1.563-0.66h2.223V3.506
			c0-0.764,0.272-1.418,0.816-1.962C7.668,1,8.322,0.727,9.086,0.727h1.111c0.764,0,1.418,0.272,1.962,0.816
			c0.544,0.544,0.816,1.198,0.816,1.962v1.667h6.668V3.506c0-0.764,0.272-1.418,0.816-1.962C21.005,1,21.659,0.727,22.423,0.727
			h1.111c0.765,0,1.418,0.272,1.963,0.816c0.544,0.544,0.816,1.198,0.816,1.962v1.667h2.223c0.602,0,1.123,0.22,1.562,0.66
			c0.441,0.44,0.66,0.961,0.66,1.563v22.228c0,0.602-0.22,1.123-0.66,1.564c-0.439,0.439-0.961,0.659-1.562,0.659H4.084
			c-0.602,0-1.123-0.22-1.563-0.659C2.081,30.747,1.862,30.226,1.862,29.624z M4.084,16.843h5.001v-5.002H4.084V16.843z
			 M4.084,23.512h5.001v-5.558H4.084V23.512z M4.084,29.624h5.001v-5.001H4.084V29.624z M8.53,8.507c0,0.15,0.055,0.281,0.165,0.391
			c0.11,0.11,0.24,0.165,0.391,0.165h1.111c0.15,0,0.281-0.055,0.391-0.165c0.11-0.11,0.165-0.24,0.165-0.391V3.506
			c0-0.15-0.055-0.281-0.165-0.391c-0.11-0.11-0.241-0.165-0.391-0.165H9.086c-0.15,0-0.281,0.055-0.391,0.165
			c-0.11,0.11-0.165,0.24-0.165,0.391V8.507z M10.197,16.843h5.557v-5.002h-5.557V16.843z M10.197,23.512h5.557v-5.558h-5.557
			V23.512z M10.197,29.624h5.557v-5.001h-5.557V29.624z M16.866,16.843h5.557v-5.002h-5.557V16.843z M16.866,23.512h5.557v-5.558
			h-5.557V23.512z M16.866,29.624h5.557v-5.001h-5.557V29.624z M21.867,8.507c0,0.15,0.055,0.281,0.165,0.391
			c0.11,0.11,0.24,0.165,0.391,0.165h1.111c0.15,0,0.281-0.055,0.391-0.165c0.11-0.11,0.165-0.24,0.165-0.391V3.506
			c0-0.15-0.055-0.281-0.165-0.391c-0.109-0.11-0.24-0.165-0.391-0.165h-1.111c-0.15,0-0.28,0.055-0.391,0.165
			c-0.11,0.11-0.165,0.24-0.165,0.391V8.507z M23.534,16.843h5.002v-5.002h-5.002V16.843z M23.534,23.512h5.002v-5.558h-5.002
			V23.512z M23.534,29.624h5.002v-5.001h-5.002V29.624z"/>
	</g>
</symbol>
<symbol id="success">
	<g>
		<path d="M0.314,25.862V6.44c0-1.605,0.57-2.977,1.709-4.117c1.14-1.14,2.512-1.709,4.117-1.709h19.422
			c1.606,0,2.978,0.57,4.117,1.709c1.14,1.14,1.71,2.512,1.71,4.117v19.422c0,1.606-0.57,2.978-1.71,4.117
			c-1.14,1.14-2.512,1.71-4.117,1.71H6.141c-1.605,0-2.977-0.57-4.117-1.71C0.884,28.84,0.314,27.468,0.314,25.862z M4.725,16.151
			c0,0.351,0.128,0.654,0.384,0.91l7.243,7.243c0.256,0.257,0.56,0.385,0.911,0.385c0.351,0,0.654-0.128,0.91-0.385l12.422-12.422
			c0.256-0.256,0.385-0.559,0.385-0.91c0-0.351-0.129-0.654-0.385-0.911l-2.063-2.064c-0.257-0.256-0.56-0.384-0.91-0.384
			c-0.352,0-0.654,0.128-0.911,0.384l-9.448,9.448l-4.269-4.269c-0.256-0.256-0.56-0.384-0.91-0.384
			c-0.351,0-0.654,0.128-0.911,0.384l-2.063,2.064C4.852,15.498,4.725,15.801,4.725,16.151z"/>
	</g>
</symbol>

<symbol id="favoris_x5F_off">
	<g>
		<line fill="none" stroke="#449FDB" x1="16" y1="16" x2="16" y2="16"/>
	</g>
	<path d="M32,12.408l-11.057-1.607L16,0.783l-4.943,10.018L0,12.408l8,7.798L6.111,31.217L16,26.018l9.889,5.199L24,20.206
		L32,12.408z M16,23.547l-6.982,3.671l1.334-7.776l-5.65-5.506l7.808-1.134l3.492-7.075l3.492,7.075l7.807,1.134l-5.649,5.506
		l1.334,7.776L16,23.547L16,23.547z"/>
</symbol>
<symbol id="tcheck_x5F_box_x5F_on">
	<path d="M0,0v32h32V0H0z M30,30H2V2h28V30z M24,7L14,17l-6-6l-4,4l10,10l14-14L24,7z"/>
</symbol>
<symbol id="tcheck_x5F_box_x5F_off">
	<path d="M0,0v32h32V0H0z M30,30H2V2h28V30z"/>
</symbol>
<symbol id="deplacer">
	<g>
		<path fill="none" d="M22.546,12.47c-3.179,0-5.833,2.229-6.496,5.208h6.743v-2.321l3.848,3.772L22.793,22.9v-2.321H16.05
			c0.663,2.978,3.317,5.208,6.496,5.208c3.676,0,6.657-2.982,6.657-6.657C29.203,15.451,26.222,12.47,22.546,12.47z"/>
		<polygon points="28.924,5.065 16,5.065 15.007,3.076 4.07,3.076 2.082,7.053 29.918,7.053 		"/>
		<path d="M0.094,9.041l1.988,19.883h27.836l1.988-19.883H0.094z M22.546,25.787c-3.179,0-5.833-2.23-6.496-5.208h6.743V22.9
			l3.848-3.771l-3.848-3.772v2.321H16.05c0.663-2.98,3.317-5.208,6.496-5.208c3.676,0,6.657,2.981,6.657,6.66
			C29.203,22.805,26.222,25.787,22.546,25.787z"/>
	</g>
</symbol>
<symbol id="renommer">
	<g id="icomoon-ignore_5_">
		<line fill="none" stroke="#449FDB" x1="16" y1="16" x2="16" y2="16"/>
	</g>
	<path d="M27,0c2.762,0,5,2.239,5,5c0,1.126-0.372,2.164-1,3l-2,2l-7-7l2-2C24.836,0.372,25.874,0,27,0z M2,23l-2,9l9-2l18.5-18.5
		l-7-7L2,23z M21.361,10.362l-14,13.999l-1.723-1.723l14-14.001L21.361,10.362z"/>
</symbol>
<symbol id="flashcode">
	<g id="icomoon-ignore_6_">
		<line fill="none" stroke="#449FDB" x1="0" y1="0" x2="0" y2="0"/>
	</g>
	<path d="M10,2H2v8h8V2z M12,0L12,0v12H0V0H12z M4,4h4v4H4V4z M30,2h-8v8h8V2z M32,0L32,0v12H20V0H32z M24,4h4v4h-4V4z M10,22H2v8h8
		V22z M12,20L12,20v12H0V20H12z M4,24h4v4H4V24z M14,0h2v2h-2V0z M16,2h2v2h-2V2z M14,4h2v2h-2V4z M16,6h2v2h-2V6z M14,8h2v2h-2V8z
		 M16,10h2v2h-2V10z M14,12h2v2h-2V12z M14,16h2v2h-2V16z M16,18h2v2h-2V18z M14,20h2v2h-2V20z M16,22h2v2h-2V22z M14,24h2v2h-2V24z
		 M16,26h2v2h-2V26z M14,28h2v2h-2V28z M16,30h2v2h-2V30z M30,16h2v2h-2V16z M2,16h2v2H2V16z M4,14h2v2H4V14z M0,14h2v2H0V14z M8,14
		h2v2H8V14z M10,16h2v2h-2V16z M12,14h2v2h-2V14z M18,16h2v2h-2V16z M20,14h2v2h-2V14z M22,16h2v2h-2V16z M24,14h2v2h-2V14z M26,16
		h2v2h-2V16z M28,14h2v2h-2V14z M30,20h2v2h-2V20z M18,20h2v2h-2V20z M20,18h2v2h-2V18z M22,20h2v2h-2V20z M26,20h2v2h-2V20z M28,18
		h2v2h-2V18z M30,24h2v2h-2V24z M18,24h2v2h-2V24z M20,22h2v2h-2V22z M24,22h2v2h-2V22z M26,24h2v2h-2V24z M28,22h2v2h-2V22z M30,28
		h2v2h-2V28z M20,26h2v2h-2V26z M22,28h2v2h-2V28z M24,26h2v2h-2V26z M26,28h2v2h-2V28z M20,30h2v2h-2V30z M24,30h2v2h-2V30z M28,30
		h2v2h-2V30z"/>
</symbol>
<symbol id="impression">
	<g>
		<circle fill="none" cx="29" cy="13" r="1.45"/>
		<path d="M30,10H2c-1.1,0-2,0.9-2,2v10c0,1.1,0.9,2,2,2h6h0.066v7c0,0.553,0.447,1,1,1h13.867c0.553,0,1-0.447,1-1v-7H24h6
			c1.1,0,2-0.9,2-2V12C32,10.9,31.1,10,30,10z M22,29c0,0.553-0.447,1-1,1H11c-0.552,0-1-0.447-1-1v-8c0-0.553,0.448-1,1-1h10
			c0.553,0,1,0.447,1,1V29z M29,14.45c-0.801,0-1.45-0.649-1.45-1.45c0-0.801,0.649-1.45,1.45-1.45c0.801,0,1.45,0.649,1.45,1.45
			C30.45,13.801,29.801,14.45,29,14.45z"/>
	</g>
	<path d="M24,7c0,0.552-0.447,1-1,1H9C8.448,8,8,7.552,8,7V5c0-0.552,0.448-1,1-1h14c0.553,0,1,0.448,1,1V7z"/>
</symbol>
<symbol id="supprimer">
	<path d="M16,0C7.163,0,0,7.163,0,16c0,8.837,7.163,16,16,16c8.837,0,16-7.163,16-16C32,7.163,24.837,0,16,0z M20.897,23.331
		l-4.877-4.878l-4.798,4.798l-2.476-2.476l4.798-4.797l-4.876-4.876l2.433-2.433l4.876,4.876l4.798-4.799l2.476,2.476l-4.799,4.799
		l4.878,4.878L20.897,23.331z"/>
</symbol>
<symbol id="croix">
	<g>
		<rect x="14.125" y="7.125" transform="matrix(0.7071 0.7071 -0.7071 0.7071 16.0001 -6.6276)" width="3.75" height="17.751"/>
		<rect x="14.125" y="7.125" transform="matrix(-0.707 0.7072 -0.7072 -0.707 38.6278 15.9966)" width="3.75" height="17.751"/>
	</g>
</symbol>
<symbol id="enregistrer_x5F_sous">
	<g id="icomoon-ignore_1_">
		<line fill="none" stroke="#449FDB" x1="0" y1="0" x2="0" y2="0"/>
	</g>
	<path d="M28,16h-5l-7,7l-7-7H4l-4,8v2h32v-2L28,16z M0,28h32v2H0V28z M18,10V2h-4v8H7l9,9l9-9H18z"/>
</symbol>
<symbol id="visualiser">
	<g id="icomoon-ignore_4_">
		<line fill="none" stroke="#449FDB" x1="16" y1="16" x2="16" y2="16"/>
	</g>
	<path d="M16,6C9.021,6,2.972,10.064,0,16c2.972,5.936,9.021,10,16,10c6.978,0,13.027-4.064,16-10C29.027,10.064,22.978,6,16,6z
		 M23.889,11.303c1.881,1.199,3.473,2.805,4.67,4.697c-1.197,1.891-2.789,3.498-4.67,4.697C21.527,22.204,18.799,23,16,23
		c-2.799,0-5.527-0.796-7.889-2.303C6.23,19.498,4.639,17.893,3.441,16c1.198-1.891,2.79-3.498,4.67-4.697
		c0.121-0.078,0.246-0.154,0.371-0.227C8.171,11.929,8,12.851,8,13.812c0,4.419,3.582,8.001,8,8.001s8-3.582,8-8.001
		c0-0.962-0.17-1.883-0.482-2.737C23.643,11.149,23.766,11.225,23.889,11.303z M16,12.813c0,1.657-1.343,3-3,3c-1.657,0-3-1.343-3-3
		c0-1.657,1.343-3,3-3C14.657,9.813,16,11.156,16,12.813z"/>
</symbol>
<symbol id="partager_1_">
	<path fill="#000100" d="M4.178,25.035H5.17V32h12.131v-6.964h0.966V32h4.153v-8.151c0-3.229-2.469-6.386-6.193-6.386L6.116,17.458
		c-3.393,0-6.116,2.803-6.116,6.3v8.241h4.178V25.035z"/>
	<path fill="#000100" d="M11.196,16.1c2.662,0,4.817-2.156,4.817-4.818c0-2.66-2.155-4.817-4.817-4.817
		c-2.662,0-4.819,2.157-4.819,4.817C6.377,13.942,8.534,16.1,11.196,16.1z"/>
	<g>
		<path fill="#000100" d="M27.483,17.101l-7.375-0.004c-0.473,0-0.919,0.095-1.347,0.234c2.686,0.903,4.364,3.558,4.364,6.261v4.11
			h5.141v-5.078h0.703v5.078H32v-5.946C32,19.403,30.198,17.101,27.483,17.101z"/>
		<circle fill="#000100" cx="23.814" cy="12.593" r="3.514"/>
		<path fill="#000100" d="M23.126,27.702"/>
		<path fill="#000100" d="M23.126,32"/>
	</g>
</symbol>
<symbol id="creer_x5F_dossier">
	<g>
		<polygon points="28.924,5.065 16,5.065 15.007,3.076 4.07,3.076 2.082,7.053 29.918,7.053 		"/>
		<polygon points="23.5,14.21 21.945,14.21 21.945,17.224 18.884,17.224 18.884,18.751 21.945,18.751 21.945,21.763 23.5,21.763 
			23.5,18.751 26.562,18.751 26.562,17.224 23.5,17.224 		"/>
		<path d="M0.094,9.041l1.988,19.883h27.836l1.988-19.883H0.094z M22.725,24.271c-3.529,0-6.387-2.813-6.387-6.283
			c0-3.469,2.857-6.282,6.387-6.282c3.527,0,6.387,2.811,6.387,6.282C29.111,21.454,26.252,24.271,22.725,24.271z"/>
	</g>
</symbol>
<symbol id="ajouter_doc">
	<path d="M16,0C7.163,0,0,7.163,0,16c0,8.837,7.163,16,16,16c8.837,0,16-7.163,16-16C32,7.163,24.837,0,16,0z M24.647,17.721h-6.898
		v6.785h-3.501v-6.785H7.352v-3.44h6.896V7.494h3.501v6.787h6.898V17.721z"/>
</symbol>
<symbol id="mes_x5F_demarches">
	<g>
		<path d="M27.866,0.179H4.135c-1.632,0-2.967,1.335-2.967,2.967v25.709c0,1.632,1.335,2.967,2.967,2.967h23.731
			c1.632,0,2.966-1.335,2.966-2.967V3.146C30.832,1.514,29.498,0.179,27.866,0.179z M27.878,28.866H4.123V3.134h23.755V28.866z"/>
		<rect x="15.492" y="7.267" width="9.844" height="2.977"/>
		<rect x="15.492" y="13.851" width="9.844" height="2.977"/>
		<path d="M12.052,5.744L9.356,8.44L7.74,6.82L6.664,7.901l2.692,2.692L13.13,6.82L12.052,5.744z"/>
		<path d="M12.064,13.071l-2.695,2.695l-1.616-1.619l-1.077,1.081l2.693,2.693l3.774-3.774L12.064,13.071z"/>
		<rect x="15.492" y="20.851" width="9.844" height="2.977"/>
		<path d="M12.064,20.071l-2.695,2.695l-1.616-1.619l-1.077,1.081l2.693,2.693l3.774-3.774L12.064,20.071z"/>
	</g>
</symbol>
<symbol id="fournisseurs">
	<g>
		<path d="M5.411,10.359c0-2.988,2.421-5.411,5.41-5.411c2.988,0,5.41,2.422,5.41,5.411c0,2.988-2.422,5.41-5.41,5.41
			C7.832,15.77,5.411,13.347,5.411,10.359z M18.035,17.571h-0.998l-5.61,11.392l2.099-10.488l-2.705-2.705l-2.706,2.705
			l2.099,10.488l-5.61-11.392H3.604C0,17.571,0,19.996,0,22.982V32h21.641v-9.018C21.641,19.996,21.641,17.571,18.035,17.571z"/>
		<path fill="#020202" d="M24.99,2.764c-3.625,0-6.559,2.889-6.559,6.452c0,3.564,2.934,6.452,6.559,6.452
			c3.622,0,6.56-2.891,6.56-6.452C31.55,5.65,28.612,2.764,24.99,2.764z M25.785,9.999v3.094h-1.596V9.999h-3.144V8.432h3.144V5.337
			h1.596v3.095h3.146v1.567H25.785z"/>
	</g>
</symbol>
<symbol id="trash">
	<g>
	</g>
	<path d="M25.5,10h-19c-1.1,0-1.918,0.897-1.818,1.992l1.637,18.016C6.419,31.104,7.4,32,8.5,32h15c1.1,0,2.081-0.896,2.182-1.992
		l1.637-18.016C27.419,10.897,26.6,10,25.5,10z"/>
	<path d="M25,3.75h-2.942c0,0-0.058-3.75-3.683-3.75h-4.644c-3.625,0-3.683,3.75-3.683,3.75H9.94H7c-1.657,0-3,1.343-3,3v1h24v-1
		C28,5.093,26.657,3.75,25,3.75z M11.661,3.75c0,0,0.042-2.71,2.662-2.71h3.357c2.619,0,2.66,2.71,2.66,2.71H11.661z"/>
</symbol>
<symbol id="mes_x5F_partages">
	<g>
		<line fill="none" stroke="#449FDB" stroke-width="0.931" x1="0.749" y1="1.106" x2="0.749" y2="1.106"/>
	</g>
	<g>
		<path d="M25.885,21.586c-1.311,0-2.5,0.545-3.345,1.418l-12.539-6.266c0.039-0.239,0.059-0.487,0.059-0.737
			c0-0.25-0.02-0.497-0.059-0.735l12.539-6.27c0.845,0.875,2.034,1.42,3.345,1.42c2.571,0,4.656-2.083,4.656-4.655
			c0-2.569-2.085-4.654-4.656-4.654c-2.569,0-4.652,2.085-4.652,4.654c0,0.252,0.018,0.497,0.056,0.737L8.75,12.768
			c-0.846-0.876-2.033-1.421-3.347-1.421c-2.571,0-4.654,2.085-4.654,4.655c0,2.571,2.084,4.653,4.654,4.653
			c1.314,0,2.501-0.545,3.347-1.42l12.538,6.27c-0.038,0.24-0.056,0.484-0.056,0.734c0,2.572,2.083,4.656,4.652,4.656
			c2.571,0,4.656-2.084,4.656-4.656C30.541,23.67,28.456,21.586,25.885,21.586z M25.834,3.334c1.335,0,2.416,1.082,2.416,2.416
			c0,1.335-1.081,2.417-2.416,2.417c-1.335,0-2.417-1.082-2.417-2.417C23.417,4.416,24.499,3.334,25.834,3.334z"/>
	</g>
</symbol>
<symbol id="dossier_x5F_open">
	<g>
		<line fill="none" stroke="#449FDB" x1="16" y1="16" x2="16" y2="16"/>
	</g>
	<path d="M26,29l6-16H6L0,29H26z M4,11L0,29V3h9l4,4h13v4H4z"/>
</symbol>
<symbol id="dossier_-_copie">
	<path d="M0.094,9.041h31.812l-1.988,19.883H2.082L0.094,9.041z M28.924,5.065l0.994,1.988H2.082L4.07,3.076h10.936L16,5.065H28.924
		z"/>
</symbol>
<symbol id="doc_x5F_nonlus_1_">
	<path d="M22,7H10L0,15v8c0,1.106,0.895,2,2,2h28c1.105,0,2-0.894,2-2v-8L22,7z M20,19h-8l-2-2h12L20,19z M2.602,15l7.815-6.333
		l10.989-0.011L29.396,15H2.602z M7.25,12.917L25.084,13l-2.322-2H9.334L7.25,12.917z"/>
</symbol>
<symbol id="coffre">
	<g>
		<g>
			<circle cx="11.093" cy="14.363" r="1.858"/>
			<path d="M27.725,2.404H4.275c-2.045,0-3.702,1.657-3.702,3.702V22.77c0,2.045,1.657,3.7,3.702,3.7h23.449
				c2.044,0,3.702-1.655,3.702-3.7V6.106C31.427,4.062,29.769,2.404,27.725,2.404z M18.379,15.805l-0.001-0.001l-2.094,0.349
				c-0.084,0.257-0.187,0.506-0.308,0.742l1.233,1.728l-1.933,1.934l-1.732-1.235c-0.235,0.119-0.481,0.221-0.736,0.304l-0.35,2.1
				H9.725l-0.35-2.099c-0.255-0.084-0.501-0.185-0.736-0.304l-1.732,1.235l-1.934-1.935l1.233-1.728
				c-0.12-0.236-0.223-0.485-0.307-0.742l-2.095-0.348v-2.735l2.089-0.349c0.085-0.257,0.189-0.507,0.31-0.746l-1.231-1.723
				l1.935-1.934l1.719,1.228c0.24-0.122,0.491-0.226,0.749-0.312l0.349-2.083h2.734l0.349,2.083c0.26,0.086,0.511,0.19,0.75,0.312
				l1.72-1.228l1.934,1.934l-1.23,1.723c0.12,0.239,0.223,0.489,0.309,0.746l2.089,0.349V15.805z M27.773,20.162
				c0,0.881-0.714,1.595-1.595,1.595c-0.882,0-1.597-0.714-1.597-1.595V8.884c0-0.882,0.715-1.596,1.597-1.596
				c0.881,0,1.595,0.714,1.595,1.596V20.162z"/>
		</g>
		<path d="M10.255,26.865c0,1.507-1.223,2.73-2.73,2.73c-1.509,0-2.731-1.224-2.731-2.73"/>
		<path d="M27.845,26.865c0,1.507-1.222,2.73-2.73,2.73c-1.508,0-2.73-1.224-2.73-2.73"/>
	</g>
</symbol>
<symbol id="home">
	<g>
		<line fill="none" stroke="#449FDB" stroke-width="0.4208" x1="17.062" y1="2.427" x2="17.062" y2="2.427"/>
	</g>
	<g>
		<line fill="none" stroke="#449FDB" x1="0" y1="2.4" x2="0" y2="2.4"/>
	</g>
	<g>
		<line fill="#FFFFFF" x1="5.635" y1="10.908" x2="5.635" y2="10.908"/>
	</g>
	<g>
		<line fill="none" stroke="#449FDB" stroke-width="0.9474" x1="15.168" y1="16.71" x2="15.168" y2="16.71"/>
	</g>
	<path d="M24.982,13.543c0,0.523-0.424,0.947-0.947,0.947h-3.05c-0.524,0-0.947-0.424-0.947-0.947V5.934
		c0-0.523,0.424-0.947,0.947-0.947h3.05c0.523,0,0.947,0.424,0.947,0.947V13.543z"/>
	<line x1="15.997" y1="3.92" x2="15.997" y2="3.92"/>
	<path d="M31.228,17.895L16.86,4.649c-0.915-0.843-1.692,0.036-1.692,0.036l-14.33,13.21c-1.479,1.363,0,2.132,0,2.132h0.71h3.079
		v3.02v5.507c0,0.524,0.424,0.947,0.947,0.947h7.579c0.523,0,0.948-0.424,0.948-0.947v-4.737h3.79v4.737
		c0,0.524,0.424,0.947,0.947,0.947h7.579c0.523,0,0.947-0.424,0.947-0.947v-4.737v-0.769v-3.02h0.074h3.079h0.71
		C31.228,20.026,32.708,19.258,31.228,17.895z"/>
</symbol>
<symbol id="liste">
	<g>
		<line fill="none" stroke="#449FDB" x1="0" y1="0" x2="0" y2="0"/>
	</g>
	<g>
		<path d="M5.62,22.195H3.543c-1.146,0-2.076,0.925-2.076,2.067c0,1.142,0.931,2.064,2.076,2.064H5.62
			c1.145,0,2.075-0.923,2.075-2.064C7.695,23.12,6.765,22.195,5.62,22.195z M5.62,13.934H3.543c-1.146,0-2.076,0.926-2.076,2.066
			c0,1.14,0.931,2.065,2.076,2.065H5.62c1.145,0,2.075-0.925,2.075-2.065C7.695,14.86,6.765,13.934,5.62,13.934z M5.62,5.673H3.543
			c-1.146,0-2.076,0.925-2.076,2.066c0,1.14,0.931,2.065,2.076,2.065H5.62c1.145,0,2.075-0.926,2.075-2.065
			C7.695,6.598,6.765,5.673,5.62,5.673z M13.924,9.804h14.532c1.147,0,2.077-0.926,2.077-2.065c0-1.141-0.93-2.066-2.077-2.066
			H13.924c-1.145,0-2.076,0.925-2.076,2.066C11.848,8.878,12.778,9.804,13.924,9.804z M28.456,13.934H13.924
			c-1.145,0-2.076,0.926-2.076,2.066c0,1.14,0.931,2.065,2.076,2.065h14.532c1.147,0,2.077-0.925,2.077-2.065
			C30.533,14.86,29.603,13.934,28.456,13.934z M28.456,22.195H13.924c-1.145,0-2.076,0.925-2.076,2.067
			c0,1.142,0.931,2.064,2.076,2.064h14.532c1.147,0,2.077-0.923,2.077-2.064C30.533,23.12,29.603,22.195,28.456,22.195z"/>
	</g>
</symbol>
<symbol id="mozaique">
	<path d="M10.768,4.4H7.087c-2.248,0-3.27,1.022-3.27,3.27v3.681c0,2.25,1.022,3.271,3.27,3.271h3.681
		c2.248,0,3.272-1.022,3.272-3.271V7.671C14.04,5.422,13.016,4.4,10.768,4.4z M25.08,4.4h-3.682c-2.248,0-3.271,1.022-3.271,3.27
		v3.681c0,2.25,1.023,3.271,3.271,3.271h3.682c2.248,0,3.269-1.022,3.269-3.271V7.671C28.35,5.422,27.328,4.4,25.08,4.4z
		 M10.768,18.711H7.087c-2.248,0-3.27,1.024-3.27,3.271v3.68c0,2.248,1.022,3.271,3.27,3.271h3.681c2.248,0,3.272-1.023,3.272-3.271
		v-3.68C14.04,19.734,13.016,18.711,10.768,18.711z M25.08,18.711h-3.682c-2.248,0-3.271,1.024-3.271,3.271v3.68
		c0,2.248,1.023,3.271,3.271,3.271h3.682c2.248,0,3.269-1.023,3.269-3.271v-3.68C28.35,19.734,27.328,18.711,25.08,18.711z"/>
</symbol>
<symbol id="Détail">
	<g>
		<rect x="2" y="2" fill="none" width="15.333" height="28"/>
		<rect x="17.333" y="2" width="12.667" height="28"/>
		<path d="M17.333,0H0v32h17.333H32V0H17.333z M30,30H17.333H2V2h15.333H30V30z"/>
	</g>
</symbol>
<symbol id="right">
	<polygon points="12.011,0.042 4.031,0.042 19.99,16 4.031,31.959 12.011,31.959 27.969,16 	"/>
</symbol>
<symbol id="left">
	<polygon points="19.989,0.042 27.969,0.042 12.01,16 27.969,31.959 19.989,31.959 4.031,16 	"/>
</symbol>
<symbol id="down">
	<polygon points="0.041,12.011 0.041,4.031 15.999,19.99 31.959,4.031 31.959,12.011 15.999,27.969 	"/>
</symbol>
<symbol id="up">
	<polygon points="31.959,19.988 31.959,27.968 16,12.008 0.041,27.968 0.041,19.988 16,4.03 	"/>
</symbol>
<symbol id="connexion">
	<g>
		<g>
			<g>
				<path d="M31.149,16.807c0,8.351-6.795,15.149-15.149,15.149c-8.354,0-15.149-6.799-15.149-15.149
					c0-4.845,2.286-9.164,5.834-11.939c0,0,1.158-0.904,2.376,0.439c0.89,0.981,0.197,2.091-0.302,2.548
					c-2.347,2.151-3.914,5.525-3.913,8.952c0,6.15,5.004,11.152,11.154,11.152c6.15,0,11.154-5.002,11.154-11.152"/>
			</g>
			<path d="M27.154,16.807c0.001-3.427-1.567-6.801-3.912-8.952c-0.5-0.457-1.193-1.567-0.303-2.548
				c1.218-1.344,2.376-0.439,2.376-0.439c3.55,2.775,5.834,7.095,5.834,11.939"/>
		</g>
		<path d="M18.007,13.068c0,1.108-0.897,2.007-2.007,2.007l0,0c-1.108,0-2.007-0.898-2.007-2.007V2.05
			c0-1.107,0.898-2.006,2.007-2.006l0,0c1.109,0,2.007,0.898,2.007,2.006V13.068z"/>
	</g>
</symbol>
<symbol id="img_1_">
	<g>
		<polygon fill="none" points="18.033,20.2 9.517,9.554 3.129,26.588 28.679,26.588 22.292,17.006 		"/>
		<path d="M30.433,5.57H1.377c-0.547,0-0.993,0.445-0.993,0.993v22.226c0,0.55,0.445,0.993,0.993,0.993h29.056
			c0.549,0,0.991-0.443,0.991-0.993V6.563C31.424,6.015,30.981,5.57,30.433,5.57z M3.129,26.588L9.517,9.554L18.033,20.2
			l4.259-3.194l6.387,9.582H3.129z M25.818,14.145c-1.765,0-3.193-1.431-3.193-3.194c0-1.763,1.429-3.194,3.193-3.194
			c1.765,0,3.193,1.431,3.193,3.194C29.012,12.714,27.583,14.145,25.818,14.145z"/>
	</g>
</symbol>
<symbol id="pdf">
	<path fill="#0C0C0C" d="M7.306,28.801c0.548-0.277,1.361-1.076,2.558-2.984c-0.17,0.162-0.354,0.334-0.428,0.394
		C8.298,27.143,7.56,28.379,7.306,28.801z"/>
	<path fill="#0C0C0C" d="M7.306,28.801c-0.02,0.01-0.044,0.025-0.064,0.035C7.176,29.016,7.202,28.975,7.306,28.801z"/>
	<g>
		<path fill="#0C0C0C" d="M14.756,15.981c0.246-0.438,0.443-1.033,0.427-1.878c-0.018-0.844-0.221-1.747-0.579-1.747
			c-0.164,0-0.149,1.279-0.149,1.28C14.454,14.308,14.553,15.332,14.756,15.981z"/>
		<path fill="#0C0C0C" d="M14.637,19.525c-0.304,0.785-0.711,1.742-1.358,2.963c-0.265,0.498-0.525,0.967-0.773,1.414
			c1.369-0.525,2.924-0.957,4.723-1.312c-0.124-0.096-0.239-0.189-0.35-0.283C15.994,21.559,15.241,20.625,14.637,19.525z"/>
		<path fill="#0C0C0C" d="M23.309,23.24c-0.64-0.164-0.831-0.162-1.486-0.162c-0.355,0-0.752,0.018-1.188,0.051
			c1.131,0.484,1.937,0.779,2.588,0.779c0.201,0,0.516-0.039,0.625-0.107C23.957,23.732,23.949,23.402,23.309,23.24z"/>
		<g>
			<path fill="none" d="M24.195,22.635l-0.003,0.002c-0.359-0.355-1.156-0.545-2.372-0.559c-0.821-0.01-1.812,0.062-2.853,0.209
				c-0.466-0.27-0.947-0.562-1.322-0.914c-1.014-0.947-1.861-2.262-2.39-3.709c0.035-0.135,0.063-0.254,0.09-0.375
				c0,0,0.57-3.246,0.421-4.342c-0.021-0.15-0.034-0.194-0.074-0.312l-0.051-0.127c-0.156-0.359-0.46-0.739-0.938-0.717
				l-0.289-0.008c-0.532,0-0.967,0.273-1.081,0.679c-0.346,1.278,0.012,3.188,0.659,5.664l-0.165,0.404
				c-0.464,1.131-1.045,2.269-1.559,3.273l-0.066,0.131c-0.54,1.057-1.03,1.951-1.473,2.711l-0.458,0.242
				C10.24,24.904,9.455,25.32,9.27,25.43c-1.563,0.936-2.599,1.994-2.769,2.834c-0.055,0.267-0.015,0.611,0.263,0.771l0.443,0.223
				c0.193,0.096,0.395,0.145,0.603,0.145c1.113,0,2.405-1.387,4.185-4.492c2.055-0.67,4.396-1.225,6.446-1.531
				c1.564,0.881,3.485,1.49,4.697,1.49c0.217,0,0.401-0.02,0.552-0.059c0.232-0.063,0.429-0.193,0.549-0.375
				c0.238-0.355,0.284-0.846,0.221-1.344C24.439,22.943,24.321,22.76,24.195,22.635z"/>
			<path fill="#0C0C0C" d="M28.487,8.853l-8.189-8.349c-0.285-0.289-0.675-0.45-1.081-0.45H4.596c-0.838,0-1.519,0.678-1.519,1.514
				v28.863c0,0.838,0.681,1.516,1.519,1.516l8.262-0.018l10.406,0.018h4.143c0.838,0,1.517-0.678,1.517-1.516V9.917
				C28.923,9.52,28.767,9.138,28.487,8.853z M24.238,24.436c-0.12,0.182-0.316,0.312-0.549,0.375
				c-0.15,0.039-0.335,0.059-0.552,0.059c-1.212,0-3.133-0.609-4.697-1.49c-2.05,0.307-4.391,0.861-6.446,1.531
				c-1.779,3.105-3.071,4.492-4.185,4.492c-0.208,0-0.41-0.049-0.603-0.145l-0.443-0.223c-0.278-0.16-0.318-0.504-0.263-0.771
				c0.17-0.84,1.206-1.899,2.769-2.834c0.185-0.109,0.969-0.525,1.002-0.543l0.458-0.242c0.443-0.76,0.933-1.654,1.473-2.711
				l0.066-0.131c0.514-1.004,1.095-2.142,1.559-3.273l0.165-0.404c-0.646-2.476-1.005-4.386-0.659-5.664
				c0.114-0.406,0.548-0.679,1.081-0.679l0.289,0.008c0.478-0.022,0.782,0.358,0.938,0.717l0.051,0.127
				c0.04,0.118,0.053,0.162,0.074,0.312c0.149,1.097-0.421,4.342-0.421,4.342c-0.027,0.121-0.055,0.24-0.09,0.375
				c0.528,1.447,1.376,2.762,2.39,3.709c0.375,0.352,0.857,0.645,1.322,0.914c1.041-0.146,2.031-0.219,2.853-0.209
				c1.216,0.014,2.013,0.203,2.372,0.559l0.003-0.002c0.126,0.125,0.244,0.309,0.264,0.457C24.522,23.59,24.477,24.08,24.238,24.436
				z M27.401,10.615h-8.242c-0.426,0-0.772-0.346-0.772-0.771V1.588h1.281v7.712h7.733V10.615z"/>
		</g>
	</g>
</symbol>
<symbol id="xls">
	<path fill="none" d="M12.774,11.486h-1.281v8.256c0,0.425,0.347,0.772,0.772,0.772h8.243v-1.315h-7.734V11.486z"/>
	<path fill="#0C0C0C" d="M28.487,8.853l-8.189-8.349c-0.285-0.289-0.675-0.45-1.081-0.45H4.596c-0.838,0-1.519,0.678-1.519,1.514
		v28.863c0,0.838,0.681,1.516,1.519,1.516l8.262-0.018l10.406,0.018h4.143c0.838,0,1.517-0.678,1.517-1.516V9.917
		C28.923,9.52,28.767,9.138,28.487,8.853z M18.305,27.499l-2.938-4.393l-1.321,1.979h1.597V27.5H8.725l4.826-7.108l-4.277-6.394
		h3.568l2.525,3.719l2.526-3.719h3.568l-4.277,6.394l4.826,7.108H18.305z M27.401,10.615h-8.242c-0.426,0-0.772-0.346-0.772-0.771
		V1.588h1.281v7.712h7.733V10.615z"/>
</symbol>
<symbol id="word_1_">
	<path fill="none" d="M12.774,11.486h-1.281v8.256c0,0.425,0.347,0.772,0.772,0.772h8.243v-1.315h-7.734V11.486z"/>
	<path fill="#0C0C0C" d="M28.487,8.853l-8.189-8.349c-0.285-0.289-0.675-0.45-1.081-0.45H4.596c-0.838,0-1.519,0.678-1.519,1.514
		v28.863c0,0.838,0.681,1.516,1.519,1.516l8.262-0.018l10.406,0.018h4.143c0.838,0,1.517-0.678,1.517-1.516V9.917
		C28.923,9.52,28.767,9.138,28.487,8.853z M20.011,27.067h-2.387L16,19.867l-1.814,7.2h-2.589L8.908,14.893h2.648l1.376,7.564
		l1.835-7.564h2.535l1.576,7.564l1.215-5.379H19.04v-2.186h4.053L20.011,27.067z M27.401,10.615h-8.242
		c-0.426,0-0.772-0.346-0.772-0.771V1.588h1.281v7.712h7.733V10.615z"/>
</symbol>
<symbol id="txt">
	<path display="none" fill="none" d="M19.342,1.588H18.06v8.255c0,0.425,0.347,0.771,0.773,0.771h8.242V9.301h-7.733V1.588z"/>
	<g>
		<polygon fill="none" points="12.326,16 6.326,22 12.326,28 14.326,26 10.326,22 14.326,18 		"/>
		<path fill="none" d="M19.668,1.588h-1.281v8.255c0,0.425,0.347,0.771,0.772,0.771h8.242V9.301h-7.733V1.588z"/>
		<path fill="#0C0C0C" d="M28.487,8.853l-8.189-8.349c-0.285-0.289-0.675-0.45-1.081-0.45H4.596c-0.838,0-1.519,0.678-1.519,1.514
			v28.863c0,0.838,0.681,1.516,1.519,1.516l8.262-0.018l10.406,0.018h4.143c0.838,0,1.517-0.678,1.517-1.516V9.917
			C28.923,9.52,28.767,9.138,28.487,8.853z M14.326,26l-2,2l-6-6l6-6l2,2l-4,4L14.326,26z M20.326,28l-2-2l4-4l-4-4l2-2l6,6
			L20.326,28z M27.401,10.615h-8.242c-0.426,0-0.772-0.346-0.772-0.771V1.588h1.281v7.712h7.733V10.615z"/>
	</g>
</symbol>
<symbol id="ppt_1_">
	<g>
		<rect x="5.982" y="19.704" fill="none" width="6" height="2"/>
		<rect x="5.982" y="15.703" fill="none" width="6" height="2.001"/>
		<rect x="5.982" y="23.704" fill="none" width="6" height="2"/>
		<path fill="none" d="M19.668,1.588h-1.281v8.255c0,0.425,0.347,0.771,0.772,0.771h8.242V9.301h-7.733V1.588z"/>
		<path fill="#0C0C0C" d="M28.487,8.853l-8.189-8.349c-0.285-0.289-0.675-0.45-1.081-0.45H4.596c-0.838,0-1.519,0.678-1.519,1.514
			v28.863c0,0.838,0.681,1.516,1.519,1.516l8.262-0.018l10.406,0.018h4.143c0.838,0,1.517-0.678,1.517-1.516V9.917
			C28.923,9.52,28.767,9.138,28.487,8.853z M11.982,25.704h-6v-2h6V25.704z M11.982,21.704h-6v-2h6V21.704z M11.982,17.704h-6
			v-2.001h6V17.704z M19.506,26.177c-2.762,0-5-2.24-5-5c0-2.42,1.717-4.436,4-4.901v5.901h5.9
			C23.943,24.458,21.924,26.177,19.506,26.177z M26.406,20.177h-5.9v-5.901c0.322-0.065,0.658-0.1,1-0.1c2.762,0,5,2.239,5,5.001
			C26.506,19.519,26.471,19.853,26.406,20.177z M27.401,10.615h-8.242c-0.426,0-0.772-0.346-0.772-0.771V1.588h1.281v7.712h7.733
			V10.615z"/>
	</g>
</symbol>
<symbol id="zip_1_">
	<g>
		<path fill="none" d="M19.668,1.588h-1.281v8.255c0,0.425,0.347,0.771,0.772,0.771h8.242V9.301h-7.733V1.588z"/>
		<rect x="10.251" y="23.281" fill="#0C0C0C" width="4" height="2"/>
		<path fill="#0C0C0C" d="M28.487,8.853l-8.189-8.349c-0.285-0.289-0.675-0.45-1.081-0.45H4.596c-0.838,0-1.519,0.678-1.519,1.514
			v28.863c0,0.838,0.681,1.516,1.519,1.516l8.263-0.018l10.405,0.018h4.143c0.838,0,1.517-0.678,1.517-1.516V9.917
			C28.923,9.52,28.767,9.138,28.487,8.853z M12.438,5.219c0-0.276,0.224-0.5,0.5-0.5h1.812c0.276,0,0.5,0.224,0.5,0.5v9.812
			c0,0.276-0.224,0.5-0.5,0.5h-1.812c-0.276,0-0.5-0.224-0.5-0.5V5.219z M9.001,17.031V5.219c0-0.276,0.225-0.5,0.5-0.5h1.812
			c0.275,0,0.5,0.224,0.5,0.5v11.812c0,0.275-0.225,0.5-0.5,0.5H9.501C9.226,17.531,9.001,17.307,9.001,17.031z M15.251,26.281
			c0,0.552-0.447,1-1,1h-4c-0.553,0-1-0.448-1-1v-7h3v-2h3V26.281z M27.401,10.615h-8.242c-0.426,0-0.772-0.346-0.772-0.771V1.588
			h1.281v7.712h7.733V10.615z"/>
	</g>
</symbol>
<symbol id="rar_1_">
	<g>
		<path fill="none" d="M19.668,1.588h-1.281v8.255c0,0.425,0.347,0.771,0.772,0.771h8.242V9.301h-7.733V1.588z"/>
		<polygon fill="#0C0C0C" points="10.236,25.27 10.251,25.27 10.251,23.281 14.236,23.281 14.236,23.27 10.236,23.27 		"/>
		<path fill="#0C0C0C" d="M28.487,8.853l-8.189-8.349c-0.285-0.289-0.675-0.45-1.081-0.45H4.596c-0.838,0-1.519,0.678-1.519,1.514
			v28.863c0,0.838,0.681,1.516,1.519,1.516l8.263-0.018l10.405,0.018h4.143c0.838,0,1.517-0.678,1.517-1.516V9.917
			C28.923,9.52,28.767,9.138,28.487,8.853z M15.236,7.27h-3v2h3v2h-3v2h3v2h-3v2h3v9c0,0.552-0.447,1-1,1h-4c-0.551,0-1-0.448-1-1
			v-7h3v-2h-3v-2h3v-2h-3v-2h3v-2h-3v-2h3v-2h3V7.27z M27.401,10.615h-8.242c-0.426,0-0.772-0.346-0.772-0.771V1.588h1.281v7.712
			h7.733V10.615z"/>
		<rect x="10.251" y="23.281" fill="#0C0C0C" width="3.985" height="1.988"/>
		<polygon fill="#CC1919" points="10.251,25.27 10.251,25.281 14.251,25.281 14.251,23.281 14.236,23.281 14.236,25.27 		"/>
	</g>
</symbol>
<symbol id="defaut_1_">
	<path fill="none" d="M19.342,1.588H18.06v8.255c0,0.425,0.347,0.771,0.773,0.771h8.242V9.301h-7.733V1.588z"/>
	<path fill="#0C0C0C" d="M28.161,8.853l-8.189-8.349c-0.285-0.289-0.675-0.45-1.081-0.45H4.269c-0.838,0-1.518,0.678-1.518,1.514
		v28.863c0,0.838,0.681,1.516,1.518,1.516l8.262-0.018l10.406,0.018h4.143c0.838,0,1.517-0.678,1.517-1.516V9.917
		C28.597,9.52,28.44,9.138,28.161,8.853z M27.075,10.615h-8.242c-0.426,0-0.773-0.346-0.773-0.771V1.588h1.281v7.712h7.733V10.615z"
		/>
</symbol>
<symbol id="video">
	<g id="icomoon-ignore_2_">
		<line fill="none" stroke="#449FDB" x1="0" y1="0" x2="0" y2="0"/>
	</g>
	<g>
		<rect x="2" y="6" fill="none" width="4" height="4"/>
		<rect x="2" y="14" fill="none" width="4" height="4"/>
		<rect x="26" y="22" fill="none" width="4" height="4"/>
		<rect x="2" y="22" fill="none" width="4" height="4"/>
		<rect x="26" y="6" fill="none" width="4" height="4"/>
		<rect x="26" y="14" fill="none" width="4" height="4"/>
		<path d="M0,4v24h32V4H0z M6,26H2v-4h4V26z M6,18H2v-4h4V18z M6,10H2V6h4V10z M12,22V10l8,6L12,22z M30,26h-4v-4h4V26z M30,18h-4
			v-4h4V18z M30,10h-4V6h4V10z"/>
	</g>
</symbol>
<symbol id="audio">
	<g id="icomoon-ignore_3_">
		<line fill="none" stroke="#449FDB" stroke-width="0.8385" x1="16" y1="16" x2="16" y2="16"/>
	</g>
	<path d="M10.058,5.984L32,0v22.94c0,2.753-3.125,4.986-6.981,4.986c-3.855,0-6.982-2.233-6.982-4.986
		c0-2.754,3.126-4.987,6.982-4.987c1.071,0,2.086,0.173,2.992,0.479V8.16l-13.963,3.808V26.93c0,2.753-3.125,4.986-6.982,4.986
		c-3.855,0-6.981-2.233-6.981-4.986c0-2.755,3.126-4.988,6.981-4.988c1.072,0,2.086,0.173,2.992,0.481V5.984L10.058,5.984z"/>
</symbol>
<symbol id="alerte_x5F_notification">
	<path d="M16,0C7.163,0,0,7.163,0,16c0,8.837,7.163,16,16,16c8.837,0,16-7.163,16-16C32,7.163,24.837,0,16,0z M17.918,25.916h-4.001
		v-4h4.001V25.916z M17.918,17.916h-4.001V5.917h4.001V17.916z"/>
</symbol>
<symbol id="alerte_x5F_info">
	<path d="M16,0C7.163,0,0,7.163,0,16c0,8.837,7.163,16,16,16c8.837,0,16-7.163,16-16C32,7.163,24.837,0,16,0z M17.213,24.779h-2.414
		v-2.414h2.414V24.779z M21.041,14.016c-0.354,0.636-1.043,1.409-2.072,2.32c-0.692,0.612-1.145,1.063-1.356,1.354
		c-0.211,0.291-0.369,0.625-0.471,1.002c-0.104,0.377-0.162,0.988-0.176,1.836h-2.039c-0.008-0.281-0.012-0.494-0.012-0.635
		c0-0.832,0.118-1.551,0.353-2.154c0.173-0.457,0.452-0.916,0.837-1.378c0.283-0.339,0.79-0.831,1.525-1.479
		c0.734-0.648,1.211-1.164,1.432-1.548c0.219-0.385,0.33-0.805,0.33-1.261c0-0.824-0.322-1.548-0.967-2.173
		c-0.644-0.624-1.432-0.936-2.367-0.936c-0.903,0-1.657,0.282-2.261,0.848c-0.605,0.565-1.001,1.448-1.189,2.65l-2.179-0.259
		c0.197-1.61,0.779-2.843,1.749-3.698c0.97-0.856,2.252-1.284,3.846-1.284c1.687,0,3.035,0.459,4.039,1.378
		c1.006,0.918,1.508,2.03,1.508,3.333C21.57,12.685,21.394,13.379,21.041,14.016z"/>
</symbol>
<symbol id="alerte_x5F_info_x5F_big">
	<g>
		<path fill="#020202" d="M16.083,0c-8.836,0-16,7.164-16,16c0,8.837,7.164,16,16,16c8.837,0,16-7.163,16-16
			C32.083,7.164,24.92,0,16.083,0z M18.619,24.307h-4.111v-3.826h4.111V24.307z M21.571,13.679
			c-0.243,0.504-0.535,0.979-0.877,1.427l-1.682,2.136c-0.111,0.128-0.213,0.3-0.304,0.516c-0.092,0.216-0.137,0.428-0.137,0.636
			v0.227h-4.017v-0.563c0-0.56,0.074-1.05,0.221-1.47c0.148-0.42,0.409-0.842,0.784-1.266l1.711-2.015
			c0.183-0.216,0.341-0.45,0.472-0.702c0.132-0.252,0.198-0.474,0.198-0.666c0-0.423-0.124-0.779-0.371-1.067
			c-0.247-0.288-0.614-0.432-1.101-0.432c-0.527,0-0.904,0.145-1.131,0.434c-0.227,0.289-0.341,0.655-0.341,1.099h-3.992
			c0-0.824,0.146-1.558,0.439-2.204c0.293-0.645,0.688-1.183,1.183-1.61c0.495-0.428,1.073-0.754,1.736-0.98
			c0.662-0.226,1.364-0.339,2.106-0.339c0.716,0,1.403,0.109,2.063,0.328c0.66,0.219,1.243,0.539,1.748,0.959
			c0.505,0.421,0.906,0.953,1.205,1.597c0.298,0.644,0.447,1.39,0.447,2.24C21.935,12.604,21.813,13.175,21.571,13.679z"/>
		<rect x="14.508" y="20.481" fill="#FFFFFF" width="4.111" height="3.826"/>
		<path fill="#FFFFFF" d="M20.282,8.127c-0.505-0.421-1.088-0.741-1.748-0.959c-0.66-0.218-1.348-0.328-2.063-0.328
			c-0.742,0-1.444,0.113-2.106,0.339c-0.663,0.226-1.241,0.552-1.736,0.98c-0.495,0.428-0.89,0.965-1.183,1.61
			c-0.293,0.646-0.439,1.38-0.439,2.204h3.992c0-0.444,0.114-0.81,0.341-1.099c0.227-0.289,0.604-0.434,1.131-0.434
			c0.486,0,0.854,0.144,1.101,0.432c0.247,0.288,0.371,0.644,0.371,1.067c0,0.192-0.066,0.414-0.198,0.666
			c-0.131,0.252-0.289,0.486-0.472,0.702l-1.711,2.015c-0.375,0.424-0.636,0.846-0.784,1.266c-0.148,0.42-0.221,0.91-0.221,1.47
			v0.563h4.017v-0.227c0-0.208,0.045-0.42,0.137-0.636c0.091-0.216,0.192-0.388,0.304-0.516l1.682-2.136
			c0.342-0.448,0.634-0.923,0.877-1.427c0.242-0.504,0.363-1.076,0.363-1.715c0-0.85-0.149-1.597-0.447-2.24
			C21.188,9.08,20.787,8.548,20.282,8.127z"/>
	</g>
</symbol>
<symbol id="Layer_58">
	<g>
		<polygon fill="none" points="12,23.381 20,23.381 22,21.381 10,21.381 		"/>
		<path d="M24.943,15.846l4.453,3.535h-8.058l-0.006,0.006l-0.005-0.006H2.602l7.815-6.333l4.27-0.004l-1.742-1.663H10l-10,8v8
			c0,1.105,0.895,2,2,2h28c1.105,0,2-0.895,2-2v-8l-5.871-4.697L24.943,15.846z M20,23.381h-8l-2-2h12L20,23.381z"/>
		<polygon points="7.25,17.298 19.203,17.354 17.136,15.381 9.334,15.381 		"/>
		<polygon fill="#FFFFFF" points="21.339,19.381 21.328,19.381 21.333,19.387 		"/>
		<polygon points="32,4.057 28.944,1 21.306,8.64 16.723,4.057 13.666,7.111 21.306,14.75 		"/>
	</g>
</symbol>

</svg>
