<svg xmlns="http://www.w3.org/2000/svg" xmlns:xlink="http://www.w3.org/1999/xlink" viewBox="0 0 211 199">

    <style type="text/css">
        #pdf_logo {
            fill: red;
        }

        #img_sun {
            fill: #f7d224;
        }

        #img_moutains {
            fill: #7e5910;
        }

        #premium {
            fill: #f7d224;
        }


    </style>

    <view id="dgp_icon_Mes_partage" viewBox="35.029 0 35.029 33.044"/>
    <svg width="35" height="33" viewBox="-0.059 -0.5 35.029 33.044" x="35">
        <path fill="none" stroke="#449FDB" stroke-width=".931" d="M.75 1.1"/>
        <path d="M25.885 21.586c-1.31 0-2.5.545-3.345 1.418L10 16.738c.04-.24.06-.487.06-.737s-.02-.496-.06-.734l12.54-6.27c.845.875 2 1.4 3.3 1.4 2.6 0 4.656-2.083 4.656-4.655 0-2.568-2.084-4.653-4.655-4.653-2.57 0-4.652 2.085-4.652 4.7 0 .252.018.498.056.738l-12.54 6.27c-.846-.876-2.033-1.42-3.347-1.42C2.833 11.347.75 13.43.75 16s2.082 4.7 4.7 4.653c1.314 0 2.5-.545 3.347-1.42l12.538 6.27c-.038.24-.056.484-.056.734 0 2.6 2.1 4.7 4.7 4.7 2.6 0 4.656-2.084 4.656-4.656 0-2.57-2.084-4.654-4.655-4.654zm-.05-18.253c1.334 0 2.4 1.1 2.4 2.4 0 1.335-1.08 2.417-2.416 2.417s-2.417-1.082-2.417-2.417c0-1.334 1.082-2.417 2.417-2.417z"/>
    </svg>
    <view id="dgp_icon_add_doc" viewBox="140.116 66.088 35.029 33.044"/>
    <svg width="35" height="33" viewBox="-0.059 -0.5 35.029 33.044" x="140.1" y="66.1">
        <path fill="none" stroke="#449FDB" d="M16 16"/>
        <path d="M30.94 20.867l-5.094-3.427h-3.14l5.438 4.173h-5.672c-.162 0-.31.083-.384.213l-1.306 3.576H11.21l-1.307-3.576c-.072-.13-.22-.213-.385-.213H3.85l5.442-4.173H6.15l-5.094 3.427c-.758.453-1.21 1.498-1.008 2.318l.898 4.918c.203.823 1.1 1.5 2 1.497h26.1c.898 0 1.8-.674 2.002-1.496l.898-4.918c.206-.822-.248-1.866-1.006-2.318h-.004zm-6.62-10.275h-5.283V2.4h-6.08v8.192h-5.28l8.32 7.8 8.322-7.808z"/>
    </svg>
    <view id="dgp_icon_add_dossier" viewBox="0 33.044 35.029 33.044"/>
    <svg width="35" height="33" viewBox="-0.059 -0.5 35.029 33.044" y="33">
        <path d="M28.924 5.064H16l-.993-1.988H4.07L2.082 7.053h27.836M23.5 14.21h-1.555v3.014h-3.06v1.527h3.06v3.013H23.5V18.75h3.063v-1.526H23.5"/>
        <path d="M.094 9.04l1.988 19.884h27.836L31.906 9.04H.094zm22.63 15.23c-3.528 0-6.386-2.812-6.386-6.282s2.857-6.282 6.387-6.282c3.527 0 6.4 2.8 6.4 6.3 0 3.466-2.86 6.283-6.387 6.283z"/>
    </svg>
    <view id="dgp_icon_add_fournisseur" viewBox="35.029 33.044 35.029 33.044"/>
    <svg width="35" height="33" viewBox="-0.059 -0.5 35.029 33.044" x="35" y="33">
        <path d="M28.42 11.938v4.612H3.578v-4.612L1.583 16.55v9.388c0 1.104.877 2 2 2h25.332c1.08 0 1.54-1.02 1.54-2.125V16.55l-1.995-4.612zm-9.183 8.942h-6.475v-1.884h6.475v1.884z"/>
        <path d="M16 15.438l6.875-6.875H17.72V1.688h-3.44v6.875H9.126M9.375 11.938H3.578v2.5h8.547M22.64 11.938h5.798v2.5H19.89"/>
    </svg>
    <view id="dgp_icon_coffre" viewBox="70.058 0 35.029 33.044"/>
    <svg width="35" height="33" viewBox="-0.059 -0.5 35.029 33.044" x="70.1">
        <circle cx="11.6" cy="17.2" r="1.6"/>
        <path d="M26.27 6.697H5.605c-1.8 0-3.262 1.46-3.262 3.262V24.64c0 1.8 1.5 3.3 3.3 3.26H26.27c1.8 0 3.262-1.458 3.262-3.26V9.96c0-1.803-1.462-3.263-3.263-3.263zm-8.236 11.808l-1.846.307c-.075.226-.165.444-.27.653l1.086 1.522L15.3 22.69l-1.525-1.088c-.208.104-.425.194-.65.268l-.307 1.85h-2.41l-.308-1.85c-.224-.073-.44-.163-.65-.267L7.926 22.7 6.2 20.988l1.088-1.522c-.106-.21-.197-.428-.27-.653l-1.847-.307v-2.41l1.842-.308c.075-.226.166-.446.272-.657L6.22 13.612l1.705-1.704L9.44 12.99c.212-.107.433-.198.66-.274l.307-1.835h2.41l.307 1.836c.23.076.45.167.66.275L15.3 11.91l1.704 1.704-1.084 1.518c.106.21.197.43.272.657l1.84.307v2.41zm8.28 3.84c0 .775-.63 1.405-1.407 1.405s-1.407-.63-1.407-1.406v-9.938c0-.777.63-1.406 1.406-1.406s1.406.63 1.4 1.406v9.938zM10.875 28.25c0 1.328-1.077 2.406-2.406 2.406s-2.407-1.078-2.407-2.406M26.375 28.25c0 1.328-1.077 2.406-2.406 2.406s-2.407-1.078-2.407-2.406"/>
    </svg>
    <view id="dgp_icon_connexion" viewBox="70.058 33.044 35.029 33.044"/>
    <svg width="35" height="33" viewBox="-0.059 -0.5 35.029 33.044" x="70.1" y="33">
        <path d="M28.03 16.906c0 6.633-5.395 12.03-12.03 12.03-6.634 0-12.03-5.397-12.03-12.03 0-3.847 1.814-7.278 4.632-9.482 0 0 .92-.718 1.888.35.707.778.156 1.66-.24 2.022-1.864 1.708-3.108 4.388-3.107 7.1 0 4.9 4 8.9 8.9 8.856s8.86-3.973 8.86-8.857"/>
        <path d="M24.858 16.906c0-2.72-1.244-5.4-3.107-7.11-.395-.362-.946-1.244-.24-2.022.97-1.067 1.89-.35 1.89-.35 2.8 2.2 4.6 5.6 4.6 9.483M17.594 13.938c0 .88-.713 1.594-1.594 1.594-.88 0-1.594-.713-1.594-1.594v-8.75c0-.88.713-1.594 1.594-1.594.88 0 1.594.713 1.6 1.594v8.75z"/>
    </svg>
    <view id="dgp_icon_demache" viewBox="0 66.088 35.029 33.044"/>
    <svg width="35" height="33" viewBox="-0.059 -0.5 35.029 33.044" y="66.1">
        <path fill="none" stroke="#449FDB" stroke-width=".825" d="M0 5.2"/>
        <path d="M26.98 27.13c1.36 0 2.475-1.113 2.475-2.475V3.21c0-1.36-1.113-2.473-2.475-2.473H7.187c-1.36 0-2.474 1.113-2.474 2.474v.826h21.444V27.13h.823z"/>
        <path d="M22.27 5.24H2.473C1.114 5.2 0 6.4 0 7.716v21.443c0 1.4 1.1 2.5 2.5 2.475h19.794c1.36 0 2.474-1.113 2.474-2.475V7.715c0-1.36-1.112-2.474-2.473-2.474zm-.826 23.094H3.3V8.54h18.144v19.794zM6.598 20.086h11.547v1.65H6.598v-1.65zm0 3.3h11.547v1.648H6.598v-1.648zm1.65-10.722c0-1.367 1.107-2.474 2.475-2.474 1.4 0 2.5 1.1 2.5 2.5 0 1.367-1.108 2.474-2.474 2.474-1.368 0-2.475-1.108-2.475-2.474zm4.123 2.474H9.073c-1.36 0-2.475.742-2.475 1.65v1.65h8.248v-1.65c0-.908-1.112-1.65-2.474-1.65z"/>
        <path fill="none" stroke="#449FDB" stroke-width=".825" d="M11.564 3.1"/>
    </svg>
    <view id="dgp_icon_deplacer" viewBox="35.029 66.088 35.029 33.044"/>
    <svg width="35" height="33" viewBox="-0.059 -0.5 35.029 33.044" x="35" y="66.1">
        <path d="M26.64 19.13l-3.847-3.773v2.322H14.09v2.9h8.703v2.32"/>
    </svg>
    <view id="dgp_icon_doc_nonlus" viewBox="70.058 66.088 35.029 33.044"/>
    <svg width="35" height="33" viewBox="-0.059 -0.5 35.029 33.044" x="70.1" y="66.1">
        <path d="M5.6 12.473H26.4v2.156H5.6zM6.795 8.332h18.41v2.157H6.794z"/>
        <path d="M28.42 11.938v4.612H3.578v-4.612L1.583 16.55v9.388c0 1.104.877 2 2 2h25.332c1.08 0 1.54-1.02 1.54-2.125V16.55l-1.995-4.612zm-9.183 8.942h-6.475v-1.884h6.475v1.884z"/>
    </svg>
    <view id="dgp_icon_dossier" viewBox="105.08700000000002 0 35.029 33.044"/>
    <svg width="35" height="33" viewBox="-0.059 -0.5 35.029 33.044" x="105.1">
        <path d="M.094 9.04h31.813L29.92 28.925H2.08L.094 9.04zm28.83-3.976l.994 1.988H2.082L4.07 3.076h10.937L16 5.064h12.924z"/>
    </svg>
    <view id="dgp_icon_dossier_open" viewBox="105.08700000000002 33.044 35.029 33.044"/>
    <svg width="35" height="33" viewBox="-0.059 -0.5 35.029 33.044" x="105.1" y="33">
        <path fill="none" stroke="#449FDB" d="M16 16"/>
        <path d="M26 29l6-16H6L0 29h26zM4 11L0 29V3h9l4 4h13v4H4z"/>
    </svg>
    <view id="dgp_icon_enregistrer" viewBox="105.08700000000002 66.088 35.029 33.044"/>
    <svg width="35" height="33" viewBox="-0.059 -0.5 35.029 33.044" x="105.1" y="66.1">
        <path fill="none" stroke="#449FDB" d="M0 0"/>
        <path d="M28 16h-5l-7 7-7-7H4l-4 8v2h32v-2l-4-8zM0 28h32v2H0v-2zm18-18V2h-4v8H7l9 9 9-9h-7z"/>
    </svg>
    <view id="dgp_icon_favoris" viewBox="0 99.13199999999999 35.029 33.044"/>
    <svg width="35" height="33" viewBox="-0.059 -0.5 35.029 33.044" y="99.1">
        <path fill="none" stroke="#449FDB" d="M16 16"/>
        <path d="M32 12.408L20.943 10.8 16 0.8 11.1 10.8 0 12.41l8 7.798-1.89 11.01L16 26.02l9.89 5.2L24 20.205l8-7.798z"/>
    </svg>
    <view id="dgp_icon_favoris_vide" viewBox="35.029 99.13199999999999 35.029 33.044"/>
    <svg width="35" height="33" viewBox="-0.059 -0.5 35.029 33.044" x="35" y="99.1">
        <path fill="none" stroke="#449FDB" d="M16 16"/>
        <path d="M32 12.408L20.943 10.8 16 0.8 11.1 10.8 0 12.41l8 7.798-1.89 11.01L16 26.02l9.89 5.2L24 20.205l8-7.798zm-16 11.14l-6.982 3.7 1.334-7.776-5.65-5.506 7.808-1.134 3.492-7.075 3.5 7.1 7.8 1.134-5.648 5.5 1.3 7.776L16 23.548z"/>
    </svg>
    <view id="dgp_icon_flashcode" viewBox="70.058 99.13199999999999 35.029 33.044"/>
    <svg width="35" height="33" viewBox="-0.059 -0.5 35.029 33.044" x="70.1" y="99.1">
        <path fill="none" stroke="#449FDB" d="M0 0"/>
        <path d="M10 2H2v8h8V2zm2-2v12H0V0h12zM4 4h4v4H4V4zm26-2h-8v8h8V2zm2-2v12H20V0h12zm-8 4h4v4h-4V4zM10 22H2v8h8v-8zm2-2v12H0V20h12zm-8 4h4v4H4v-4zM14 0h2v2h-2V0zm2 2h2v2h-2V2zm-2 2h2v2h-2V4zm2 2h2v2h-2V6zm-2 2h2v2h-2V8zm2 2h2v2h-2v-2zm-2 2h2v2h-2v-2zm0 4h2v2h-2v-2zm2 2h2v2h-2v-2zm-2 2h2v2h-2v-2zm2 2h2v2h-2v-2zm-2 2h2v2h-2v-2zm2 2h2v2h-2v-2zm-2 2h2v2h-2v-2zm2 2h2v2h-2v-2zm14-14h2v2h-2v-2zM2 16h2v2H2v-2zm2-2h2v2H4v-2zm-4 0h2v2H0v-2zm8 0h2v2H8v-2zm2 2h2v2h-2v-2zm2-2h2v2h-2v-2zm6 2h2v2h-2v-2zm2-2h2v2h-2v-2zm2 2h2v2h-2v-2zm2-2h2v2h-2v-2zm2 2h2v2h-2v-2zm2-2h2v2h-2v-2zm2 6h2v2h-2v-2zm-12 0h2v2h-2v-2zm2-2h2v2h-2v-2zm2 2h2v2h-2v-2zm4 0h2v2h-2v-2zm2-2h2v2h-2v-2zm2 6h2v2h-2v-2zm-12 0h2v2h-2v-2zm2-2h2v2h-2v-2zm4 0h2v2h-2v-2zm2 2h2v2h-2v-2zm2-2h2v2h-2v-2zm2 6h2v2h-2v-2zm-10-2h2v2h-2v-2zm2 2h2v2h-2v-2zm2-2h2v2h-2v-2zm2 2h2v2h-2v-2zm-6 2h2v2h-2v-2zm4 0h2v2h-2v-2zm4 0h2v2h-2v-2z"/>
    </svg>
    <view id="dgp_icon_fournisseurs" viewBox="105.08700000000002 99.13199999999999 35.029 33.044"/>
    <svg width="35" height="33" viewBox="-0.059 -0.5 35.029 33.044" x="105.1" y="99.1">
        <path fill="none" stroke="#449FDB" d="M16 16"/>
        <path d="M27.146 8c0-1.6-1.592-1.6-1.592-1.6H6.442S4.85 6.4 4.8 8v1.6h22.296V8zm-4.778-4.8H9.628s-1.593 0-1.593 1.6H23.96c0-1.6-1.593-1.6-1.592-1.6zm7.963 6.4l-.94-.947V11.2H2.606V8.653l-.942.947c-.942.947-1.618 1.202-1.237 3.202.377 2 2.2 12.9 2.5 14.398.3 1.6 1.9 1.6 1.9 1.6h22.298s1.647.022 1.947-1.6c.27-1.478 2.098-12.406 2.477-14.398.38-2-.297-2.254-1.24-3.202zm-7.962 8.64s0 1.6-1.595 1.6H11.22c-1.592 0-1.592-1.6-1.592-1.6v-3.2h2.23v2.56h8.276v-2.56h2.234v3.2z"/>
    </svg>
    <view id="dgp_icon_home" viewBox="140.116 0 35.029 33.044"/>
    <svg width="35" height="33" viewBox="-0.059 -0.5 35.029 33.044" x="140.1">
        <path fill="none" stroke="#449FDB" stroke-width=".421" d="M17.063 2.4"/>
        <path fill="none" stroke="#449FDB" d="M0 2.4"/>
        <path fill="#FFF" d="M5.635 10.9"/>
        <path fill="none" stroke="#449FDB" stroke-width=".947" d="M15.168 16.7"/>
        <path d="M24.982 13.542c0 .523-.424.947-.947.947h-3.05c-.523 0-.947-.425-.947-.948V5.934c0-.523.424-.947.947-.947h3.05c.523 0 .947.424.947.947v7.608zM15.997 3.9"/>
        <path d="M31.23 17.895L16.86 4.65c-.915-.844-1.692.035-1.692.035L.838 17.895c-1.48 1.4 0 2.1 0 2.132h3.79v8.527c0 .523.423.947.946.947h7.58c.522 0 .947-.423.947-.946v-4.737h3.79v4.737c0 .523.425.947.948.947h7.58c.522 0 .946-.423.946-.946v-8.527h3.864s1.48-.77 0-2.132z"/>
    </svg>
    <view id="dgp_icon_img" viewBox="140.116 33.044 35.029 33.044"/>
    <svg width="35" height="33" viewBox="-0.059 -0.5 35.029 33.044" x="140.1" y="33">
        <circle id="img_sun" cx="25" cy="11" r="3"/>
        <path id="img_moutains" d="M28 26H4l6-16 8 10 4-3"/>
        <path d="M30.578 28.067c0 .516-.416.933-.932.933H2.354c-.515 0-.933-.417-.933-.933V7.19c0-.515.42-.933.934-.933h27.292c.516 0 .932.418.932.933v20.877z"
              fill="none" stroke="#000" stroke-width="2" stroke-miterlimit="10"/>
    </svg>
    <view id="dgp_icon_img_plein" viewBox="0 0 35.029 33.044"/>
    <svg width="35" height="33" viewBox="-0.059 -0.5 35.029 33.044">
        <path fill="none" d="M18 20l-8-10-6 16h24l-6-9"/>
        <path d="M29.646 6.257H2.354c-.515 0-.933.418-.933.933v20.877c0 .516.42.933.934.933h27.292c.516 0 .932-.417.932-.933V7.19c0-.515-.416-.933-.932-.933zM4 26l6-16 8 10 4-3 6 9H4zm21.313-11.687c-1.657 0-3-1.344-3-3 0-1.657 1.343-3 3-3s3 1.3 3 3c0 1.656-1.343 3-3 3z"/>
    </svg>
    <view id="dgp_icon_impression" viewBox="140.116 99.13199999999999 35.029 33.044"/>
    <svg width="35" height="33" viewBox="-0.059 -0.5 35.029 33.044" x="140.1" y="99.1">
        <circle cx="29" cy="13" r="1.4" fill="none"/>
        <path d="M30 10H2c-1.1 0-2 .9-2 2v10c0 1.1.9 2 2 2h6.066v7c0 .553.447 1 1 1h13.867c.553 0 1-.447 1-1v-7H30c1.1 0 2-.9 2-2V12c0-1.1-.9-2-2-2zm-8 19c0 .553-.447 1-1 1H11c-.552 0-1-.447-1-1v-8c0-.553.448-1 1-1h10c.553 0 1 0.4 1 1v8zm7-14.55c-.8 0-1.45-.65-1.45-1.45s.65-1.45 1.45-1.45 1.45.65 1.4 1.45-.65 1.45-1.45 1.45zM24 7c0 .552-.447 1-1 1H9c-.552 0-1-.448-1-1V5c0-.552.448-1 1-1h14c.553 0 1 0.4 1 1v2z"/>
    </svg>
    <view id="dgp_icon_info" viewBox="0 132.176 35.029 33.044"/>
    <svg width="35" height="33" viewBox="-0.059 -0.5 35.029 33.044" y="132.2">
        <path d="M16 0C7.163 0 0 7.2 0 16s7.163 16 16 16 16-7.163 16-16S24.837 0 16 0zm2.297 25.79h-4.593V11.316h4.593V25.79zm0-16.603h-4.593v-3.5h4.593"/>
    </svg>
    <view id="dgp_icon_liste" viewBox="35.029 132.176 35.029 33.044"/>
    <svg width="35" height="33" viewBox="-0.059 -0.5 35.029 33.044" x="35" y="132.2">
        <path fill="none" stroke="#449FDB" d="M0 0"/>
        <path d="M8 20.8H6.4c-.883 0-1.6.716-1.6 1.6S5.517 24 6.4 24H8c.883 0 1.6-.715 1.6-1.6s-.717-1.6-1.6-1.6zm0-6.4H6.4c-.883 0-1.6.717-1.6 1.6s.717 1.6 1.6 1.6H8c.883 0 1.6-.717 1.6-1.6s-.717-1.6-1.6-1.6zM8 8H6.4c-.883 0-1.6.717-1.6 1.6 0 .883.717 1.6 1.6 1.6H8c.883 0 1.6-.717 1.6-1.6C9.6 8.7 8.9 8 8 8zm6.4 3.2h11.2c.885 0 1.6-.717 1.6-1.6 0-.883-.716-1.6-1.6-1.6H14.4c-.883 0-1.6.717-1.6 1.6 0 .883.717 1.6 1.6 1.6zm11.2 3.2H14.4c-.883 0-1.6.717-1.6 1.6s.717 1.6 1.6 1.6h11.2c.885 0 1.6-.717 1.6-1.6s-.716-1.6-1.6-1.6zm0 6.4H14.4c-.883 0-1.6.716-1.6 1.6s.717 1.6 1.6 1.6h11.2c.885 0 1.6-.714 1.6-1.6s-.716-1.6-1.6-1.6z"/>
    </svg>
    <view id="dgp_icon_mozaique" viewBox="70.058 132.176 35.029 33.044"/>
    <svg width="35" height="33" viewBox="-0.059 -0.5 35.029 33.044" x="70.1" y="132.2">
        <path d="M11.84 6.4H8.96c-1.76 0-2.56.8-2.56 2.56v2.88c0 1.76.8 2.6 2.6 2.56h2.88c1.76 0 2.56-.8 2.56-2.56V8.96c0-1.76-.8-2.56-2.56-2.56zm11.2 0h-2.88c-1.76 0-2.56.8-2.56 2.56v2.88c0 1.76.8 2.6 2.6 2.56h2.88c1.76 0 2.56-.8 2.56-2.56V8.96c0-1.76-.8-2.56-2.56-2.56zm-11.2 11.2H8.96c-1.76 0-2.56.8-2.56 2.56v2.88c0 1.76.8 2.6 2.6 2.56h2.88c1.76 0 2.56-.8 2.56-2.56v-2.88c0-1.76-.8-2.56-2.56-2.56zm11.2 0h-2.88c-1.76 0-2.56.8-2.56 2.56v2.88c0 1.76.8 2.6 2.6 2.56h2.88c1.76 0 2.56-.8 2.56-2.56v-2.88c0-1.76-.8-2.56-2.56-2.56z"/>
    </svg>
    <view id="dgp_icon_none" viewBox="105.08700000000002 132.176 35.029 33.044"/>
    <svg width="35" height="33" viewBox="-0.059 -0.5 35.029 33.044" x="105.1" y="132.2">
        <path d="M28.23 6.232h.003l-4.465-4.464C22.796.796 20.9 0 19.5 0h-15C3.125 0 2 1.1 2 2.5v27C2 30.9 3.1 32 4.5 32h23c1.375 0 2.5-1.125 2.5-2.5v-19c0-1.375-.796-3.296-1.77-4.268zM28 29.5c0 .27-.228.5-.5.5h-23c-.27 0-.5-.23-.5-.5v-27c0-.27.23-.5.5-.5h15c.15 0 .32.02.5.053V10h7.948c.033.18.053.35.053.5v19z"
              fill="#020202"/>
    </svg>
    <view id="dgp_icon_partager" viewBox="140.116 132.176 35.029 33.044"/>
    <svg width="35" height="33" viewBox="-0.059 -0.5 35.029 33.044" x="140.1" y="132.2">
        <path d="M4.814 24.42H5.97v8.124h14.15v-8.122h1.127v8.122h4.844v-9.506c0-3.767-2.88-7.448-7.222-7.448l-11.794-.007c-3.956 0-7.133 3.27-7.133 7.35v9.61h4.874V24.42zM13 14c3.104 0 5.618-2.517 5.618-5.622 0-3.103-2.514-5.617-5.618-5.617-3.105 0-5.62 2.516-5.62 5.618C7.38 11.5 9.9 14 13 14z"
              fill="#000100"/>
        <path d="M28.584 4.167c-3.53 0-6.387 2.813-6.387 6.3 0 3.5 2.9 6.3 6.4 6.3 3.5 0 6.387-2.816 6.387-6.283 0-3.472-2.86-6.283-6.386-6.283zm.775 7.046v3.012h-1.556v-3.012h-3.062V9.686h3.062V6.672h1.555v3.013h3.062v1.527H29.36z"/>
    </svg>
    <view id="dgp_icon_pdf" viewBox="175.145 0 35.029 33.044"/>
    <svg id="pdf" width="35" height="33" viewBox="-0.059 -0.5 35.029 33.044" x="175.1">
        <path d="M28.23 6.232h.003l-4.465-4.464C22.796.796 20.9 0 19.5 0h-15C3.125 0 2 1.1 2 2.5v27C2 30.9 3.1 32 4.5 32h23c1.375 0 2.5-1.125 2.5-2.5v-19c0-1.375-.796-3.296-1.77-4.268zM28 29.5c0 .27-.228.5-.5.5h-23c-.27 0-.5-.23-.5-.5v-27c0-.27.23-.5.5-.5h15c.15 0 .32.02.5.053V10h7.948c.033.18.053.35.053.5v19z"
              fill="#020202"/>
        <path id="pdf_logo"
              d="M26.638 18.96c-.023-.175-.164-.392-.313-.54l-.004.002c-.425-.42-1.368-.645-2.81-.662-.974-.012-2.147.074-3.38.248-.553-.32-1.123-.666-1.567-1.084-1.2-1.122-2.205-2.68-2.832-4.394.042-.16.075-.3.108-.444 0 0 .676-3.846.5-5.146-.025-.178-.042-.23-.09-.37l-.058-.15c-.186-.425-.545-.875-1.112-.85l-.34-.01c-.632 0-1.147.323-1.282.805-.41 1.514.014 3.778.78 6.71l-.195.48c-.55 1.34-1.236 2.688-1.846 3.878l-.078.153c-.64 1.252-1.22 2.312-1.746 3.213l-.543.286c-.04.02-.97.515-1.188.646-1.854 1.106-3.08 2.36-3.283 3.356-.065.318-.018.726.312.914l.523.265c.23.112.468.172.714.172 1.3 0 2.85-1.645 4.96-5.324 2.436-.794 5.208-1.45 7.638-1.813 1.9 1 4.1 1.8 5.6 1.766.257 0 .476-.023.654-.07.274-.074.508-.23.65-.444.283-.425.338-1.003.264-1.595zm-19.94 6.767c-.125.205-.154.254-.076.04.024-.01.052-.03.076-.04.302-.502 1.176-1.965 2.524-3.07.088-.07.307-.274.508-.468-1.418 2.262-2.383 3.206-3.032 3.537zm8.26-19.486c.425 0 0.7 1.07.688 2.07.02 1.002-.215 1.706-.506 2.226-.24-.77-.357-1.984-.357-2.778 0 0-.018-1.517.176-1.517zm-2.484 13.682c.293-.53.602-1.086.916-1.676.766-1.447 1.248-2.58 1.608-3.512.716 1.3 1.6 2.4 2.7 3.297.13.112.268.224.414.335-2.132.422-3.975.934-5.596 1.557zm13.437-.12c-.128.08-.5.128-.74.128-.77 0-1.726-.352-3.065-.926.518-.04.986-.06 1.408-.06.775 0 1 0 1.762.19.758.195.767.587.636.67z"/>
    </svg>
    <view id="dgp_icon_premium" viewBox="175.145 33.044 35.029 33.044"/>
    <svg id="premium" width="35" height="33" viewBox="-0.059 -0.5 35.029 33.044" x="175.1" y="33">
        <path d="M15.95 7.692c-4.843-.036-8.798 3.86-8.834 8.703-.036 4.8 3.9 8.8 8.7 8.8 4.84.037 8.798-3.86 8.833-8.7.035-4.843-3.86-8.8-8.703-8.836zm-.122 16.21c-4.11-.03-7.417-3.388-7.386-7.497s3.386-7.417 7.497-7.386c4.106.03 7.4 3.4 7.4 7.495-.033 4.112-3.388 7.42-7.498 7.387z"
              fill="none"/>
        <path d="M15.94 9.02c-4.112-.03-7.467 3.276-7.498 7.386s3.275 7.5 7.4 7.497c4.11.03 7.465-3.275 7.498-7.387.03-4.11-3.28-7.465-7.387-7.496zM17 21h-1.94v-6.348l-1.795 1.56v-2.068l1.796-1.56h1.94V21z"/>
        <path id="premium_border"
              d="M29.2 18.172l-2.097-1.195c-.598-.305-.596-.802.002-1.104l2.102-1.187c.584-.294.533-.618-.113-.72l-2.363-.49c-.66-.105-.813-.576-.34-1.05l1.634-1.776c.465-.462.314-.754-.33-.653l-2.398.266c-.662.106-.953-.296-.645-.893l1-2.195c.3-.58.067-.813-.515-.517l-2.197.993c-.6.307-1 .013-.893-.648l.275-2.397c.105-.646-.188-.795-.65-.333l-1.783 1.624c-.475.475-.945.32-1.05-.343L18.36 3.19c-.1-.646-.427-.698-.724-.116l-1.193 2.094c-.306.598-.802.598-1.104 0l-1.186-2.1c-.295-.585-.62-.535-.723.112l-.486 2.362c-.106.662-.577.815-1.05.34L10.12 4.25c-.462-.463-.755-.315-.654.33l.266 2.397c.104.664-.297.955-.894.647l-2.194-1c-.58-.3-.814-.068-.517.516l.993 2.196c.305.598.012.998-.65.89l-2.397-.273c-.646-.105-.794.188-.332.65l1.625 1.784c.475.474.32.946-.343 1.048l-2.364.48c-.646.1-.7.423-.115.72l2.093 1.194c.6.305.597.8-.002 1.103l-2.1 1.188c-.584.295-.533.62.113.722l2.363.488c.662.104.816.576.34 1.048l-1.632 1.778c-.465.46-.317.754.33.65l2.397-.265c.662-.103.953.3.647.896L6.09 25.63c-.3.583-.067.815.516.52l2.2-.995c.596-.304.997-.01.89.65l-.273 2.397c-.106.646.188.796.65.332l1.78-1.623c.476-.473.948-.32 1.05.344l.48 2.363c.1.646.423.697.72.114l1.194-2.093c.306-.598.802-.597 1.104.002l1.186 2.1c.295.583.62.533.723-.114l.485-2.36c.105-.663.578-.815 1.05-.338l1.776 1.63c.462.464.755.314.653-.33l-.264-2.397c-.106-.663.296-.954.892-.645l2.193 1c.584.3.814.068.518-.515l-.992-2.197c-.304-.598-.013-1 .65-.892l2.4.275c.644.104.794-.187.33-.65l-1.624-1.784c-.475-.474-.32-.945.342-1.047l2.365-.48c.646-.1.698-.423.116-.72zM15.817 25.23c-4.842-.036-8.74-3.992-8.703-8.834.036-4.843 3.99-8.74 8.834-8.703 4.842.036 8.7 4 8.7 8.835-.035 4.84-3.992 8.738-8.834 8.7z">
            <animateTransform
                    attributeName="transform"
                    begin="0s"
                    dur="20s"
                    type="rotate"
                    from="0 15.9 16.5"
                    to="360 15.9 16.5"
                    repeatCount="indefinite"
            />
        </path>
    </svg>
    <view id="dgp_icon_renommer" viewBox="175.145 66.088 35.029 33.044"/>
    <svg width="35" height="33" viewBox="-0.059 -0.5 35.029 33.044" x="175.1" y="66.1">
        <path fill="none" stroke="#449FDB" d="M16 16"/>
        <path d="M27 0c2.762 0 5 2.2 5 5 0 1.126-.372 2.164-1 3l-2 2-7-7 2-2c.836-.628 1.874-1 3-1zM2 23l-2 9 9-2 18.5-18.5-7-7L2 23zm19.36-12.638l-14 14L5.64 22.64l14-14 1.7 1.722z"/>
    </svg>
    <view id="dgp_icon_save" viewBox="175.145 99.13199999999999 35.029 33.044"/>
    <svg width="35" height="33" viewBox="-0.059 -0.5 35.029 33.044" x="175.1" y="99.1">
        <path fill="none" stroke="#449FDB" d="M16 0"/>
        <path d="M28 18h-5l-7 7-7-7H4l-4 8v2h32v-2l-4-8zm-10-6V4h-4v8H7l9 9 9-9h-7zM32 31.57c0 .275-.224.5-.5.5H.5c-.276 0-.5-.225-.5-.5v-1.144c0-.276.224-.5.5-.5h31c.276 0 .5.224.5.5v1.143z"/>
    </svg>
    <view id="dgp_icon_supprimer" viewBox="175.145 132.176 35.029 33.044"/>
    <svg width="35" height="33" viewBox="-0.059 -0.5 35.029 33.044" x="175.1" y="132.2">
        <path d="M28.646 6.23L24.18 1.768C23.21.795 21.3 0 19.9 0h-15c-1.375 0-2.5 1.125-2.5 2.5v27c0 1.4 1.1 2.5 2.5 2.5h23c1.375 0 2.5-1.125 2.5-2.5v-19c0-1.375-.796-3.296-1.77-4.268h.003zm-1.414 1.416c.098.098.196.217.29.354h-5.108V2.892c.137.095.256.192.354.29l4.464 4.464zM28.414 29.5c0 .27-.23.5-.5.5h-23c-.27 0-.5-.23-.5-.5v-27c0-.27.23-.5.5-.5h15c.15 0 .32.02.5.053V10h7.947c.034.18.054.35.054.5v19z"/>
        <path d="M22.414 2.455V8h5.545M22.546 12.783c-3.678 0-6.66 2.98-6.66 6.7 0 3.7 3 6.7 6.7 6.7 3.7 0 6.657-2.982 6.657-6.657 0-3.68-2.98-6.66-6.657-6.66zm2.99 8.334c.425.426.475 1.064.11 1.428-.363.363-1.002.314-1.428-.11l-1.674-1.677-1.678 1.675c-.426.425-1.064.474-1.428.11-.363-.364-.314-1.003.11-1.428l1.68-1.676-1.676-1.677c-.425-.426-.474-1.064-.11-1.428.364-.363 1.003-.314 1.428.11l1.675 1.7 1.676-1.674c.427-.424 1.065-.474 1.43-.11.362.364.313 1.003-.112 1.43l-1.676 1.7 1.7 1.677z"/>
    </svg>
    <view id="dgp_icon_tcheck_box" viewBox="0 165.21999999999997 35.029 33.044"/>
    <svg width="35" height="33" viewBox="-0.059 -0.5 35.029 33.044" y="165.2">
        <path d="M0 0v32h32V0H0zm30 30H2V2h28v28zM24 7L14 17l-6-6-4 4 10 10 14-14-4-4z"/>
    </svg>
    <view id="dgp_icon_trash" viewBox="35.029 165.21999999999997 35.029 33.044"/>
    <svg width="35" height="33" viewBox="-0.059 -0.5 35.029 33.044" x="35" y="165.2">
        <path d="M25.5 10h-19c-1.1 0-1.918.896-1.818 1.992L6.32 30.008C6.42 31.1 7.4 32 8.5 32h15c1.1 0 2.08-.896 2.182-1.992l1.637-18.016C27.42 10.9 26.6 10 25.5 10zM25 3.75h-2.942S22 0 18.4 0H13.73c-3.624 0-3.682 3.75-3.682 3.75H7c-1.657 0-3 1.343-3 3v1h24v-1c0-1.657-1.343-3-3-3zm-13.34 0s.043-2.71 2.663-2.71h3.357c2.62 0 2.7 2.7 2.7 2.71h-8.68z"/>
    </svg>
    <view id="dgp_icon_visualiser" viewBox="70.058 165.21999999999997 35.029 33.044"/>
    <svg width="35" height="33" viewBox="-0.059 -0.5 35.029 33.044" x="70.1" y="165.2">
        <path fill="none" stroke="#449FDB" d="M16 16"/>
        <path d="M16 6C9.02 6 3 10.1 0 16c2.972 5.9 9 10 16 10s13.027-4.064 16-10c-2.973-5.936-9.02-10-16-10zm7.89 5.303c1.88 1.2 3.5 2.8 4.7 4.697-1.198 1.89-2.79 3.498-4.67 4.697C21.526 22.2 18.8 23 16 23s-5.527-.796-7.89-2.303c-1.88-1.2-3.47-2.804-4.67-4.697 1.2-1.89 2.79-3.498 4.67-4.697.122-.078.247-.154.372-.228C8.172 11.9 8 12.8 8 13.812c0 4.4 3.6 8 8 8s8-3.582 8-8c0-.962-.17-1.883-.482-2.737.125.074.248.15.37.228zM16 12.813c0 1.657-1.343 3-3 3s-3-1.343-3-3 1.343-3 3-3 3 1.3 3 3z"/>
    </svg>
    <view id="dgp_icon_word" viewBox="105.08700000000002 165.21999999999997 35.029 33.044"/>
    <svg width="35" height="33" viewBox="-0.059 -0.5 35.029 33.044" x="105.1" y="165.2">
        <path d="M28.23 6.232h.003l-4.465-4.464C22.796.796 20.9 0 19.5 0h-15C3.125 0 2 1.1 2 2.5v27C2 30.9 3.1 32 4.5 32h23c1.375 0 2.5-1.125 2.5-2.5v-19c0-1.375-.796-3.296-1.77-4.268zM28 29.5c0 .27-.228.5-.5.5h-23c-.27 0-.5-.23-.5-.5v-27c0-.27.23-.5.5-.5h15c.15 0 .32.02.5.053V10h7.948c.033.18.053.35.053.5v19z"
              fill="#020202"/>
        <path d="M19.995 14.372h1.382l-1.594 7.067L17.71 11.5h-3.33l-2.41 9.937-1.807-9.938h-3.48l3.533 15.996h3.4l2.385-9.46 2.1 9.46h3.137l4.05-15.996h-5.325"/>
    </svg>
    <view id="dgp_icon_xls" viewBox="140.116 165.21999999999997 35.029 33.044"/>
    <svg width="35" height="33" viewBox="-0.059 -0.5 35.029 33.044" x="140.1" y="165.2">
        <path d="M28.23 6.232h.003l-4.465-4.464C22.796.796 20.9 0 19.5 0h-15C3.125 0 2 1.1 2 2.5v27C2 30.9 3.1 32 4.5 32h23c1.375 0 2.5-1.125 2.5-2.5v-19c0-1.375-.796-3.296-1.77-4.268zM28 29.5c0 .27-.228.5-.5.5h-23c-.27 0-.5-.23-.5-.5v-27c0-.27.23-.5.5-.5h15c.15 0 .32.02.5.053V10h7.948c.033.18.053.35.053.5v19z"
              fill="#020202"/>
        <path d="M22.034 11.5h-4.228l-2.993 4.407L11.82 11.5H7.594l5.068 7.577L6.943 27.5h8.198v-2.86h-1.893l1.566-2.346 3.5 5.205h4.392l-5.72-8.424"/>
    </svg>
    <view id="dgp_icon_zip" viewBox="175.145 165.21999999999997 35.029 33.044"/>
    <svg width="35" height="33" viewBox="-0.059 -0.5 35.029 33.044" x="175.1" y="165.2">
        <path d="M28.23 6.232h.003l-4.465-4.464C22.796.796 20.9 0 19.5 0h-15C3.125 0 2 1.1 2 2.5v27C2 30.9 3.1 32 4.5 32h23c1.375 0 2.5-1.125 2.5-2.5v-19c0-1.375-.796-3.296-1.77-4.268zM28 29.5c0 .27-.228.5-.5.5h-23c-.27 0-.5-.23-.5-.5v-27c0-.27.23-.5.5-.5h15c.15 0 .32.02.5.053V10h7.948c.033.18.053.35.053.5v19z"
              fill="#020202"/>
        <path d="M12.25 17.28v2h-3v7c0 .553.448 1 1 1h4c.554 0 1-.447 1-1v-9h-3zm2 8h-4v-2h4v2zM12.438 5.22c0-.277.224-.5.5-.5h1.812c.276 0 .5.223.5.5v9.812c0 .276-.224.5-.5.5h-1.812c-.276 0-.5-.224-.5-.5V5.22zM9 5.22c0-.277.226-.5.5-.5h1.814c.275 0 .5.223.5.5V17.03c0 .275-.225.5-.5.5H9.5c-.274 0-.5-.225-.5-.5V5.22z"/>
    </svg>


</svg>
