<svg xmlns="http://www.w3.org/2000/svg" width="32" height="192" viewBox="0 0 32 192" xmlns:xlink="http://www.w3.org/1999/xlink">

    <style>

        .image_hover {
            color: yellow;
            fill: #7e5910;
        }

        .validate_hover {
            fill: green;
        }

        .delete_hover {
            color: #23128c;
            fill: red;
        }
    </style>

    <symbol id="validate">
        <path d="M0,0v32h32V0H0z M30,30H2V2h28V30z M24,7L14,17l-6-6l-4,4l10,10l14-14L24,7z"/>
    </symbol>

    <symbol id="image">
        <circle fill="currentColor" cx="25" cy="9.371" r="3"/>
        <polygon points="28,24.372 4.001,24.372 10.001,8.372 18,18.372 22,15.372 		"/>
        <path fill="none" stroke="#000000" stroke-width="2" stroke-miterlimit="10" d="M30.578,26.438c0,0.516-0.416,0.933-0.932,0.933
			H2.355c-0.515,0-0.933-0.417-0.933-0.933V5.562c0-0.515,0.418-0.933,0.933-0.933h27.292c0.516,0,0.932,0.418,0.932,0.933V26.438z"
        />
    </symbol>

    <symbol id="delete">

        <path fill="currentColor" d="M28.233,6.231l-4.465-4.464C22.796,0.795,20.875,0,19.5,0h-15C3.125,0,2,1.125,2,2.5v27C2,30.875,3.125,32,4.5,32h23
			c1.375,0,2.5-1.125,2.5-2.5v-19c0-1.375-0.796-3.296-1.769-4.268L28.233,6.231L28.233,6.231z M26.819,7.646
			C26.917,7.744,27.015,7.863,27.108,8h-5.107V2.892c0.137,0.095,0.256,0.192,0.354,0.29L26.819,7.646L26.819,7.646z M28.001,29.5
			c0,0.271-0.229,0.5-0.5,0.5h-23c-0.271,0-0.5-0.229-0.5-0.5v-27c0-0.271,0.229-0.5,0.5-0.5h15c0.15,0,0.32,0.019,0.5,0.053V10
			h7.947c0.033,0.18,0.053,0.349,0.053,0.5V29.5z"/>
        <polygon points="22.001,2.455 22.001,8 27.546,8 "/>

        <path d="M22.133,12.783c-3.678,0-6.659,2.98-6.659,6.66c0,3.675,2.981,6.657,6.659,6.657c3.676,0,6.657-2.982,6.657-6.657
				C28.79,15.763,25.809,12.783,22.133,12.783z M25.124,21.117c0.424,0.426,0.474,1.064,0.11,1.428
				c-0.364,0.363-1.003,0.314-1.429-0.111l-1.674-1.676l-1.678,1.675c-0.426,0.425-1.064,0.474-1.428,0.109
				c-0.363-0.363-0.314-1.002,0.111-1.427l1.678-1.676l-1.675-1.676c-0.425-0.426-0.474-1.064-0.109-1.428
				c0.363-0.363,1.002-0.314,1.427,0.111l1.675,1.676l1.676-1.674c0.426-0.424,1.064-0.474,1.428-0.11
				c0.363,0.364,0.314,1.003-0.111,1.429l-1.676,1.674L25.124,21.117z"/>
    </symbol>




    <use xlink:href="#image"/>
    <use xlink:href="#image" y="32" class="image_hover"/>

    <use xlink:href="#validate" y="64"/>
    <use xlink:href="#validate" y="96" class="validate_hover"/>

    <use xlink:href="#delete" y="128"/>
    <use xlink:href="#delete" y="160" class="delete_hover"/>

</svg>
