<svg xmlns="http://www.w3.org/2000/svg" viewBox="0 0 32 192" xmlns:xlink="http://www.w3.org/1999/xlink">

    <style>

        .image_hover {
            color: yellow;
            fill: #7e5910;
        }

        .validate_hover {
            fill: green;
        }

        .delete_hover {
            color: #23128c;
            fill: red;
        }
    </style>

    <symbol id="spinner">
        <path d="M1.919,19.11C1.306,18.498,1,17.762,1,16.901c0-0.86,0.306-1.596,0.919-2.209c0.612-0.613,1.349-0.919,2.209-0.919
			c0.86,0,1.596,0.306,2.209,0.919s0.919,1.349,0.919,2.209c0,0.86-0.306,1.597-0.919,2.209c-0.613,0.613-1.349,0.919-2.209,0.919
			C3.268,20.029,2.531,19.724,1.919,19.11z M5.448,10.577C4.776,9.906,4.441,9.095,4.441,8.143c0-0.951,0.335-1.762,1.007-2.434
			C6.119,5.038,6.93,4.703,7.881,4.703c0.951,0,1.763,0.336,2.434,1.006c0.671,0.672,1.007,1.483,1.007,2.434
			c0,0.952-0.336,1.763-1.007,2.434c-0.671,0.671-1.483,1.007-2.434,1.007C6.93,11.584,6.119,11.249,5.448,10.577z M5.887,27.653
			c-0.547-0.547-0.821-1.212-0.821-1.994c0-0.781,0.273-1.446,0.821-1.994c0.547-0.547,1.212-0.82,1.994-0.82
			c0.769,0,1.43,0.274,1.984,0.82c0.554,0.548,0.831,1.213,0.831,1.994c0,0.782-0.277,1.447-0.831,1.994
			c-0.554,0.548-1.215,0.821-1.984,0.821C7.1,28.475,6.435,28.201,5.887,27.653z M13.981,7.048c-0.73-0.73-1.095-1.616-1.095-2.659
			c0-1.042,0.365-1.929,1.095-2.659c0.729-0.73,1.616-1.095,2.659-1.095c1.043,0,1.929,0.365,2.659,1.095
			c0.729,0.73,1.095,1.616,1.095,2.659c0,1.043-0.365,1.929-1.095,2.659c-0.73,0.73-1.616,1.095-2.659,1.095
			C15.597,8.143,14.71,7.778,13.981,7.048z M14.871,31.183c-0.489-0.489-0.733-1.079-0.733-1.77c0-0.69,0.245-1.28,0.733-1.769
			c0.489-0.488,1.078-0.733,1.769-0.733c0.691,0,1.28,0.244,1.77,0.733c0.488,0.489,0.732,1.079,0.732,1.769
			c0,0.69-0.244,1.28-0.732,1.77c-0.489,0.488-1.079,0.732-1.77,0.732C15.949,31.915,15.359,31.671,14.871,31.183z M23.853,27.204
			c-0.43-0.431-0.645-0.945-0.645-1.545c0-0.599,0.216-1.114,0.645-1.544c0.43-0.43,0.944-0.646,1.544-0.646
			s1.114,0.216,1.545,0.646c0.43,0.43,0.646,0.945,0.646,1.544c0,0.6-0.216,1.114-0.646,1.545c-0.431,0.43-0.945,0.645-1.545,0.645
			S24.283,27.634,23.853,27.204z M24.293,9.248c-0.306-0.306-0.459-0.674-0.459-1.104c0-0.43,0.153-0.798,0.459-1.104
			c0.307-0.306,0.675-0.459,1.104-0.459c0.431,0,0.799,0.153,1.105,0.459c0.307,0.307,0.46,0.674,0.46,1.104
			c0,0.43-0.153,0.798-0.46,1.104c-0.306,0.307-0.674,0.459-1.105,0.459C24.968,9.707,24.6,9.554,24.293,9.248z M27.822,18.231
			c-0.365-0.364-0.548-0.808-0.548-1.329c0-0.521,0.183-0.964,0.548-1.33c0.364-0.365,0.808-0.547,1.329-0.547
			c0.522,0,0.965,0.183,1.329,0.547c0.365,0.365,0.548,0.809,0.548,1.33c0,0.521-0.183,0.965-0.548,1.329
			c-0.364,0.365-0.808,0.548-1.329,0.548C28.63,18.778,28.186,18.596,27.822,18.231z"/>
    </symbol>

    <symbol id="validate">
        <path d="M0,0v32h32V0H0z M30,30H2V2h28V30z M24,7L14,17l-6-6l-4,4l10,10l14-14L24,7z"/>
    </symbol>

    <symbol id="full">
        <polygon fill="none" points="12,23.381 20,23.381 22,21.381 10,21.381 		"/>
        <path d="M24.943,15.846l4.453,3.535h-8.058l-0.006,0.006l-0.005-0.006H2.602l7.815-6.333l4.27-0.004l-1.742-1.663H10l-10,8v8
			c0,1.105,0.895,2,2,2h28c1.105,0,2-0.895,2-2v-8l-5.871-4.697L24.943,15.846z M20,23.381h-8l-2-2h12L20,23.381z"/>
        <polygon points="7.25,17.298 19.203,17.354 17.136,15.381 9.334,15.381 		"/>
        <polygon fill="#FFFFFF" points="21.339,19.381 21.328,19.381 21.333,19.387 		"/>
    </symbol>

    <symbol id="image">
        <circle fill="currentColor" cx="25" cy="9.371" r="3"/>
        <polygon points="28,24.372 4.001,24.372 10.001,8.372 18,18.372 22,15.372 		"/>
        <path fill="none" stroke="#000000" stroke-width="2" stroke-miterlimit="10" d="M30.578,26.438c0,0.516-0.416,0.933-0.932,0.933
			H2.355c-0.515,0-0.933-0.417-0.933-0.933V5.562c0-0.515,0.418-0.933,0.933-0.933h27.292c0.516,0,0.932,0.418,0.932,0.933V26.438z"
        />
    </symbol>

    <symbol id="premium">
        <path fill="none" d="M16.09,6.18c-5.46-0.041-9.918,4.352-9.959,9.811c-0.041,5.459,4.352,9.918,9.811,9.958
				c5.459,0.042,9.919-4.352,9.959-9.809C25.94,10.681,21.549,6.221,16.09,6.18z M15.952,24.454
				c-4.633-0.034-8.361-3.819-8.326-8.452s3.817-8.361,8.452-8.326c4.63,0.036,8.36,3.818,8.328,8.451
				C24.368,20.762,20.585,24.49,15.952,24.454z"/>
        <path d="M16.077,7.677c-4.634-0.035-8.417,3.693-8.452,8.326c-0.035,4.633,3.692,8.418,8.326,8.452
				c4.632,0.035,8.416-3.692,8.453-8.328C24.438,11.495,20.708,7.712,16.077,7.677z M17.276,21.182H15.09v-7.156l-2.025,1.76v-2.332
				l2.025-1.76h2.186C17.276,11.693,17.276,21.182,17.276,21.182z"/>
        <path d="M31.026,17.994l-2.363-1.347c-0.674-0.344-0.672-0.904,0.002-1.245l2.37-1.338c0.658-0.331,0.601-0.697-0.127-0.813
				l-2.664-0.55c-0.746-0.119-0.918-0.65-0.383-1.184l1.841-2.003c0.524-0.521,0.354-0.85-0.372-0.736l-2.703,0.3
				c-0.746,0.119-1.074-0.334-0.727-1.007l1.127-2.474c0.337-0.655,0.074-0.917-0.582-0.583l-2.477,1.119
				c-0.676,0.345-1.127,0.014-1.007-0.732l0.31-2.702c0.118-0.728-0.212-0.896-0.733-0.375l-2.01,1.831
				c-0.535,0.535-1.065,0.361-1.183-0.387l-0.54-2.664c-0.113-0.728-0.48-0.787-0.815-0.131l-1.345,2.361
				c-0.345,0.674-0.904,0.674-1.245-0.001l-1.336-2.366c-0.333-0.659-0.7-0.603-0.815,0.126l-0.549,2.663
				c-0.119,0.746-0.65,0.919-1.184,0.382l-2-1.839C8.996,1.777,8.666,1.944,8.78,2.673l0.3,2.701
				C9.197,6.122,8.745,6.45,8.072,6.103L5.599,4.976C4.944,4.638,4.681,4.899,5.016,5.557l1.119,2.476
				c0.344,0.674,0.014,1.125-0.732,1.004L2.7,8.729C1.972,8.61,1.805,8.941,2.326,9.461l1.831,2.011
				c0.535,0.534,0.361,1.066-0.387,1.181l-2.665,0.54c-0.728,0.113-0.788,0.478-0.13,0.813l2.36,1.346
				c0.675,0.345,0.673,0.904-0.002,1.245l-2.367,1.339c-0.658,0.331-0.601,0.698,0.127,0.813l2.664,0.55
				c0.746,0.117,0.92,0.649,0.382,1.181L2.3,22.485c-0.524,0.52-0.357,0.85,0.372,0.734l2.702-0.3
				c0.746-0.117,1.074,0.336,0.729,1.009l-1.13,2.473c-0.337,0.657-0.076,0.919,0.582,0.585l2.479-1.121
				c0.673-0.343,1.125-0.012,1.003,0.734l-0.307,2.701c-0.119,0.728,0.212,0.897,0.733,0.374l2.008-1.83
				c0.535-0.534,1.068-0.361,1.181,0.387l0.541,2.664c0.113,0.728,0.478,0.786,0.813,0.129l1.346-2.361
				c0.345-0.674,0.904-0.673,1.245,0.002l1.336,2.367c0.333,0.658,0.698,0.602,0.815-0.127l0.548-2.661
				c0.118-0.747,0.652-0.919,1.185-0.381l2.001,1.836c0.52,0.524,0.85,0.355,0.735-0.372l-0.298-2.701
				c-0.118-0.749,0.335-1.077,1.007-0.728l2.472,1.128c0.658,0.337,0.918,0.076,0.584-0.582l-1.118-2.477
				c-0.344-0.674-0.016-1.126,0.733-1.006l2.703,0.309c0.727,0.117,0.896-0.211,0.374-0.732l-1.832-2.012
				c-0.535-0.535-0.361-1.066,0.386-1.181l2.666-0.54C31.623,18.693,31.682,18.33,31.026,17.994z M15.941,25.95
				c-5.459-0.039-9.852-4.499-9.811-9.958c0.041-5.46,4.499-9.852,9.959-9.811c5.46,0.041,9.851,4.5,9.811,9.96
				C25.86,21.597,21.399,25.991,15.941,25.95z"/>
    </symbol>

    <symbol id="delete">

        <path fill="currentColor" d="M28.233,6.231l-4.465-4.464C22.796,0.795,20.875,0,19.5,0h-15C3.125,0,2,1.125,2,2.5v27C2,30.875,3.125,32,4.5,32h23
			c1.375,0,2.5-1.125,2.5-2.5v-19c0-1.375-0.796-3.296-1.769-4.268L28.233,6.231L28.233,6.231z M26.819,7.646
			C26.917,7.744,27.015,7.863,27.108,8h-5.107V2.892c0.137,0.095,0.256,0.192,0.354,0.29L26.819,7.646L26.819,7.646z M28.001,29.5
			c0,0.271-0.229,0.5-0.5,0.5h-23c-0.271,0-0.5-0.229-0.5-0.5v-27c0-0.271,0.229-0.5,0.5-0.5h15c0.15,0,0.32,0.019,0.5,0.053V10
			h7.947c0.033,0.18,0.053,0.349,0.053,0.5V29.5z"/>
        <polygon points="22.001,2.455 22.001,8 27.546,8 "/>

        <path d="M22.133,12.783c-3.678,0-6.659,2.98-6.659,6.66c0,3.675,2.981,6.657,6.659,6.657c3.676,0,6.657-2.982,6.657-6.657
				C28.79,15.763,25.809,12.783,22.133,12.783z M25.124,21.117c0.424,0.426,0.474,1.064,0.11,1.428
				c-0.364,0.363-1.003,0.314-1.429-0.111l-1.674-1.676l-1.678,1.675c-0.426,0.425-1.064,0.474-1.428,0.109
				c-0.363-0.363-0.314-1.002,0.111-1.427l1.678-1.676l-1.675-1.676c-0.425-0.426-0.474-1.064-0.109-1.428
				c0.363-0.363,1.002-0.314,1.427,0.111l1.675,1.676l1.676-1.674c0.426-0.424,1.064-0.474,1.428-0.11
				c0.363,0.364,0.314,1.003-0.111,1.429l-1.676,1.674L25.124,21.117z"/>
    </symbol>




    <use xlink:href="#image"/>
    <use xlink:href="#image" y="32" class="image_hover"/>

    <use xlink:href="#validate" y="64"/>
    <use xlink:href="#validate" y="96" class="validate_hover"/>

    <use xlink:href="#delete" y="128"/>
    <use xlink:href="#delete" y="160" class="delete_hover"/>

</svg>
